SplineFontDB: 3.0
FontName: Meera
FullName: Meera
FamilyName: Meera
Weight: Book
Copyright: Copyright (c) 2007, Hussain K H,Suresh P,Swathanthra Malayalam Computing(http://savannah.nongnu.org/projects/smc)\nAll rights reserved.
Version: Meera:04;Revision:0.400
ItalicAngle: 0
UnderlinePosition: -942
UnderlineWidth: 61
Ascent: 1147
Descent: 901
LayerCount: 2
Layer: 0 1 "Back"  1
Layer: 1 1 "Fore"  0
XUID: [1021 400 913805956 9059854]
FSType: 0
OS2Version: 1
OS2_WeightWidthSlopeOnly: 0
OS2_UseTypoMetrics: 1
CreationTime: 1201144287
ModificationTime: 1275976264
PfmFamily: 17
TTFWeight: 400
TTFWidth: 5
LineGap: 0
VLineGap: 0
Panose: 2 0 6 3 0 0 0 0 0 0
OS2TypoAscent: 0
OS2TypoAOffset: 1
OS2TypoDescent: 0
OS2TypoDOffset: 1
OS2TypoLinegap: 0
OS2WinAscent: 0
OS2WinAOffset: 1
OS2WinDescent: 0
OS2WinDOffset: 1
HheadAscent: 0
HheadAOffset: 1
HheadDescent: 0
HheadDOffset: 1
OS2SubXSize: 1327
OS2SubYSize: 1225
OS2SubXOff: 0
OS2SubYOff: 150
OS2SupXSize: 1327
OS2SupYSize: 1427
OS2SupXOff: 0
OS2SupYOff: 977
OS2StrikeYSize: 98
OS2StrikeYPos: 512
OS2Vendor: 'PfEd'
OS2CodePages: 00000001.00000000
OS2UnicodeRanges: 80800003.00002000.00000000.00000000
Lookup: 4 0 0 "'akhn' Akhand in Malay+AQEA-lam lookup 0"  {"'akhn' Akhand in Malay+AQEA-lam lookup 0 subtable"  } ['akhn' ('mlym' <'dflt' > ) ]
Lookup: 4 0 0 "'half' Half Forms in Malay+AQEA-lam lookup 1"  {"'half' Half Forms in Malay+AQEA-lam lookup 1 subtable"  } ['half' ('mlym' <'dflt' > ) ]
Lookup: 4 0 0 "'blwf' Below Base Forms in Malay+AQEA-lam lookup 2"  {"'blwf' Below Base Forms in Malay+AQEA-lam lookup 2 subtable"  } ['blwf' ('mlym' <'dflt' > ) ]
Lookup: 4 0 0 "'blws' Below Base Substitutions in Malay+AQEA-lam lookup 3"  {"'blws' Below Base Substitutions in Malay+AQEA-lam lookup 3 subtable"  } ['blws' ('mlym' <'dflt' > ) ]
Lookup: 4 0 0 "'pres' Pre Base Substitutions in Malay+AQEA-lam lookup 4"  {"'pres' Pre Base Substitutions in Malay+AQEA-lam lookup 4 subtable"  } ['pres' ('mlym' <'dflt' > ) ]

StartChar: .notdef
Encoding: 65536 -1 0
Width: 598
GlyphClass: 2
Flags: W
LayerCount: 2
Fore
SplineSet
45 0 m 1,0,-1
 45 932 l 1,1,-1
 512 932 l 1,2,-1
 512 0 l 1,3,-1
 45 0 l 1,0,-1
92 45 m 1,4,-1
 467 45 l 1,5,-1
 467 885 l 1,6,-1
 92 885 l 1,7,-1
 92 45 l 1,4,-1
EndSplineSet
EndChar

StartChar: exclam
Encoding: 33 33 5
Width: 583
GlyphClass: 2
Flags: W
LayerCount: 2
Fore
SplineSet
414 463 m 1,0,-1
 389 250 l 1,1,-1
 342 250 l 1,2,-1
 317 463 l 2,3,4
 305 571 305 571 305 573 c 2,5,-1
 303 1067 l 1,6,-1
 426 1067 l 1,7,-1
 426 573 l 1,8,9
 414 463 l 1,0,-1
303 0 m 1,10,-1
 303 137 l 1,11,-1
 426 137 l 1,12,-1
 426 0 l 1,13,-1
 303 0 l 1,10,-1
EndSplineSet
EndChar

StartChar: quotedbl
Encoding: 34 34 6
Width: 768
GlyphClass: 2
Flags: W
LayerCount: 2
Fore
SplineSet
653 862 m 2,0,-1
 633 762 l 1,1,-1
 588 762 l 1,2,-1
 567 862 l 2,3,4
 549 946 549 946 549 958 c 2,5,-1
 549 1120 l 1,6,-1
 672 1120 l 1,7,-1
 672 958 l 1,8,9
 668 934 668 934 653 862 c 2,0,-1
406 862 m 2,10,-1
 385 762 l 1,11,-1
 342 762 l 1,12,-1
 322 862 l 1,13,14
 303 946 303 946 301 958 c 1,15,-1
 301 1120 l 1,16,-1
 426 1120 l 1,17,-1
 426 958 l 1,18,19
 422 934 422 934 406 862 c 2,10,-1
EndSplineSet
EndChar

StartChar: numbersign
Encoding: 35 35 7
Width: 788
GlyphClass: 2
Flags: W
LayerCount: 2
Fore
SplineSet
684 645 m 1,0,-1
 633 369 l 1,1,-1
 793 369 l 1,2,-1
 793 285 l 1,3,-1
 618 285 l 1,4,-1
 561 -29 l 1,5,-1
 465 -29 l 1,6,-1
 522 285 l 1,7,-1
 317 285 l 1,8,-1
 258 -29 l 1,9,-1
 164 -29 l 1,10,-1
 221 285 l 1,11,-1
 68 285 l 1,12,-1
 68 369 l 1,13,-1
 238 369 l 1,14,-1
 287 645 l 1,15,-1
 123 645 l 1,16,-1
 123 729 l 1,17,-1
 303 729 l 1,18,-1
 356 1020 l 1,19,-1
 453 1020 l 1,20,-1
 397 729 l 1,21,-1
 604 729 l 1,22,-1
 657 1020 l 1,23,-1
 754 1020 l 1,24,-1
 698 729 l 1,25,-1
 842 729 l 1,26,-1
 842 645 l 1,27,-1
 684 645 l 1,0,-1
383 645 m 1,28,-1
 332 369 l 1,29,-1
 539 369 l 1,30,-1
 588 645 l 1,31,-1
 383 645 l 1,28,-1
EndSplineSet
EndChar

StartChar: dollar
Encoding: 36 36 8
Width: 813
GlyphClass: 2
Flags: W
LayerCount: 2
Fore
SplineSet
489 -33 m 1,0,-1
 489 -184 l 1,1,-1
 420 -184 l 1,2,-1
 420 -33 l 1,3,4
 178 -16 178 -16 121 158 c 0,5,6
 104 209 104 209 104 293 c 1,7,-1
 205 293 l 1,8,9
 215 178 215 178 252 129 c 0,10,11
 299 66 299 66 420 51 c 1,12,-1
 420 473 l 1,13,14
 268 518 268 518 209 565 c 0,15,16
 123 633 123 633 123 760 c 0,17,18
 123 1012 123 1012 420 1049 c 1,19,-1
 420 1128 l 1,20,-1
 489 1128 l 1,21,-1
 489 1049 l 1,22,23
 623 1038 623 1038 700.5 967.5 c 128,-1,24
 778 897 778 897 780 774 c 1,25,-1
 680 774 l 1,26,27
 676 854 676 854 627 907.5 c 128,-1,28
 578 961 578 961 489 963 c 1,29,-1
 489 575 l 1,30,-1
 616 541 l 1,31,32
 813 483 813 483 813 283 c 0,33,34
 813 -10 813 -10 489 -33 c 1,0,-1
420 963 m 1,35,36
 225 936 225 936 225 774 c 0,37,38
 225 633 225 633 420 582 c 1,39,-1
 420 963 l 1,35,36
489 465 m 1,40,-1
 489 51 l 1,41,42
 709 76 709 76 709 264 c 0,43,44
 709 354 709 354 641 401 c 1,45,46
 598 432 598 432 489 465 c 1,40,-1
EndSplineSet
EndChar

StartChar: percent
Encoding: 37 37 9
Width: 1259
GlyphClass: 2
Flags: W
LayerCount: 2
Fore
SplineSet
1014 -29 m 0,0,1
 911 -29 911 -29 840.5 43 c 128,-1,2
 770 115 770 115 770 217 c 0,3,4
 770 317 770 317 841.5 389 c 128,-1,5
 913 461 913 461 1014 461 c 0,6,7
 1118 461 1118 461 1187.5 390 c 128,-1,8
 1257 319 1257 319 1257 215 c 0,9,10
 1257 115 1257 115 1185.5 43 c 128,-1,11
 1114 -29 1114 -29 1014 -29 c 0,0,1
442 -29 m 1,12,-1
 365 -29 l 1,13,-1
 942 1038 l 1,14,-1
 1018 1038 l 1,15,-1
 442 -29 l 1,12,-1
369 512 m 0,16,17
 266 512 266 512 195.5 582.5 c 128,-1,18
 125 653 125 653 125 758 c 0,19,20
 125 860 125 860 195.5 930.5 c 128,-1,21
 266 1001 266 1001 369 1001 c 0,22,23
 471 1001 471 1001 541.5 929.5 c 128,-1,24
 612 858 612 858 612 754 c 0,25,26
 612 655 612 655 540.5 583.5 c 128,-1,27
 469 512 469 512 369 512 c 0,16,17
1014 377 m 0,28,29
 946 377 946 377 900 331 c 128,-1,30
 854 285 854 285 854 217 c 0,31,32
 854 150 854 150 900 103.5 c 128,-1,33
 946 57 946 57 1014 57 c 0,34,35
 1079 57 1079 57 1126.5 103.5 c 128,-1,36
 1174 150 1174 150 1174 215 c 0,37,38
 1174 283 1174 283 1127.5 330 c 128,-1,39
 1081 377 1081 377 1014 377 c 0,28,29
369 918 m 0,40,41
 301 918 301 918 255 870.5 c 128,-1,42
 209 823 209 823 209 758 c 0,43,44
 209 690 209 690 255 644 c 128,-1,45
 301 598 301 598 369 598 c 0,46,47
 436 598 436 598 482 644 c 128,-1,48
 528 690 528 690 528 756 c 0,49,50
 528 823 528 823 482 870.5 c 128,-1,51
 436 918 436 918 369 918 c 0,40,41
EndSplineSet
EndChar

StartChar: ampersand
Encoding: 38 38 10
Width: 937
GlyphClass: 2
Flags: W
LayerCount: 2
Fore
SplineSet
805 0 m 1,0,-1
 709 121 l 1,1,2
 549 -33 549 -33 393 -33 c 0,3,4
 260 -33 260 -33 178 44 c 128,-1,5
 96 121 96 121 96 254 c 0,6,7
 96 362 96 362 168 440 c 0,8,9
 217 494 217 494 344 567 c 1,10,11
 217 725 217 725 217 813 c 0,12,13
 217 911 217 911 293 977 c 0,14,15
 362 1038 362 1038 465 1038 c 0,16,17
 567 1038 567 1038 632.5 976.5 c 128,-1,18
 698 915 698 915 698 813 c 0,19,20
 698 727 698 727 637 662 c 0,21,22
 592 614 592 614 487 557 c 1,23,-1
 702 295 l 1,24,25
 754 387 754 387 756 479 c 1,26,-1
 858 479 l 1,27,28
 854 346 854 346 768 215 c 1,29,-1
 942 0 l 1,30,-1
 805 0 l 1,0,-1
461 952 m 0,31,32
 322 952 322 952 322 815 c 0,33,34
 322 750 322 750 393 668 c 0,35,36
 406 653 406 653 434 621 c 1,37,38
 600 725 600 725 600 817 c 0,39,40
 600 877 600 877 560 914.5 c 128,-1,41
 520 952 520 952 461 952 c 0,31,32
397 506 m 1,42,43
 203 383 203 383 203 264 c 0,44,45
 203 180 203 180 263.5 121.5 c 128,-1,46
 324 63 324 63 410 63 c 0,47,48
 530 63 530 63 647 195 c 1,49,-1
 397 506 l 1,42,43
EndSplineSet
EndChar

StartChar: quotesingle
Encoding: 39 39 11
Width: 569
GlyphClass: 2
Flags: W
LayerCount: 2
Fore
SplineSet
418 868 m 2,0,-1
 395 768 l 1,1,-1
 346 768 l 1,2,-1
 324 868 l 1,3,4
 303 952 303 952 301 965 c 1,5,-1
 301 1126 l 1,6,-1
 440 1126 l 1,7,-1
 440 965 l 1,8,9
 434 940 434 940 418 868 c 2,0,-1
EndSplineSet
EndChar

StartChar: parenleft
Encoding: 40 40 12
Width: 491
GlyphClass: 2
Flags: W
LayerCount: 2
Fore
SplineSet
518 -311 m 1,0,1
 270 2 270 2 270 379 c 0,2,3
 270 754 270 754 518 1067 c 1,4,-1
 581 1067 l 1,5,6
 376 743 376 743 376 379 c 0,7,8
 376 12 376 12 581 -311 c 1,9,-1
 518 -311 l 1,0,1
EndSplineSet
EndChar

StartChar: parenright
Encoding: 41 41 13
Width: 782
GlyphClass: 2
Flags: W
LayerCount: 2
Fore
SplineSet
332 -311 m 1,0,-1
 268 -311 l 1,1,2
 473 14 473 14 473 377 c 0,3,4
 473 743 473 743 268 1067 c 1,5,-1
 332 1067 l 1,6,7
 580 754 580 754 580 377 c 0,8,9
 580 2 580 2 332 -311 c 1,0,-1
EndSplineSet
EndChar

StartChar: asterisk
Encoding: 42 42 14
Width: 567
GlyphClass: 2
Flags: W
LayerCount: 2
Fore
SplineSet
391 834 m 1,0,-1
 502 694 l 1,1,-1
 440 649 l 1,2,-1
 342 797 l 1,3,-1
 244 649 l 1,4,-1
 184 692 l 1,5,-1
 291 834 l 1,6,-1
 123 881 l 1,7,-1
 145 952 l 1,8,-1
 311 891 l 1,9,-1
 303 1067 l 1,10,-1
 381 1067 l 1,11,-1
 373 891 l 1,12,-1
 539 952 l 1,13,-1
 561 881 l 1,14,-1
 391 834 l 1,0,-1
EndSplineSet
EndChar

StartChar: plus
Encoding: 43 43 15
Width: 813
GlyphClass: 2
Flags: W
LayerCount: 2
Fore
SplineSet
512 297 m 1,0,-1
 512 -14 l 1,1,-1
 426 -14 l 1,2,-1
 426 297 l 1,3,-1
 115 297 l 1,4,-1
 115 383 l 1,5,-1
 426 383 l 1,6,-1
 426 694 l 1,7,-1
 512 694 l 1,8,-1
 512 383 l 1,9,-1
 823 383 l 1,10,-1
 823 297 l 1,11,-1
 512 297 l 1,0,-1
EndSplineSet
EndChar

StartChar: comma
Encoding: 44 44 16
Width: 356
GlyphClass: 2
Flags: W
LayerCount: 2
Fore
SplineSet
127 -215 m 1,0,-1
 127 -176 l 1,1,2
 197 -170 197 -170 217 -113 c 0,3,4
 225 -90 225 -90 227 -57 c 0,5,6
 227 -49 227 -49 227 12 c 1,7,-1
 127 12 l 1,8,-1
 127 152 l 1,9,-1
 281 152 l 1,10,-1
 281 -23 l 2,11,12
 281 -209 281 -209 127 -215 c 1,0,-1
EndSplineSet
EndChar

StartChar: hyphen
Encoding: 45 45 17
Width: 485
GlyphClass: 2
Flags: W
LayerCount: 2
Fore
SplineSet
109 352 m 1,0,-1
 109 457 l 1,1,-1
 457 457 l 1,2,-1
 457 352 l 1,3,-1
 109 352 l 1,0,-1
EndSplineSet
EndChar

StartChar: period
Encoding: 46 46 18
Width: 405
GlyphClass: 2
Flags: W
LayerCount: 2
Fore
SplineSet
127 0 m 1,0,-1
 127 152 l 1,1,-1
 281 152 l 1,2,-1
 281 0 l 1,3,-1
 127 0 l 1,0,-1
EndSplineSet
EndChar

StartChar: slash
Encoding: 47 47 19
Width: 478
GlyphClass: 2
Flags: W
LayerCount: 2
Fore
SplineSet
188 -29 m 1,0,-1
 544 1067 l 1,1,-1
 430 1067 l 1,2,-1
 74 -29 l 1,3,-1
 188 -29 l 1,0,-1
EndSplineSet
EndChar

StartChar: zero
Encoding: 48 48 20
Width: 802
GlyphClass: 2
Flags: W
LayerCount: 2
Fore
SplineSet
465 -16 m 0,0,1
 125 -16 125 -16 125 510 c 0,2,3
 125 1038 125 1038 465 1038 c 0,4,5
 803 1038 803 1038 803 502 c 0,6,7
 803 -16 803 -16 465 -16 c 0,0,1
465 942 m 0,8,9
 242 942 242 942 242 510 c 0,10,11
 242 72 242 72 461 72 c 0,12,13
 686 72 686 72 686 514 c 0,14,15
 686 942 686 942 465 942 c 0,8,9
EndSplineSet
EndChar

StartChar: one
Encoding: 49 49 21
Width: 468
GlyphClass: 2
Flags: W
LayerCount: 2
Fore
SplineSet
350 0 m 1,0,-1
 350 733 l 1,1,-1
 109 733 l 1,2,-1
 109 809 l 1,3,4
 260 827 260 827 309 862 c 1,5,6
 352 895 352 895 395 1018 c 1,7,-1
 467 1018 l 1,8,-1
 467 0 l 1,9,-1
 350 0 l 1,0,-1
EndSplineSet
EndChar

StartChar: two
Encoding: 50 50 22
Width: 794
GlyphClass: 2
Flags: W
LayerCount: 2
Fore
SplineSet
338 291 m 0,0,1
 242 217 242 217 227 111 c 1,2,-1
 791 111 l 1,3,-1
 791 0 l 1,4,-1
 100 0 l 1,5,6
 111 180 111 180 182 276 c 1,7,8
 244 356 244 356 393 440 c 2,9,-1
 532 518 l 2,10,11
 682 602 682 602 682 735 c 0,12,13
 682 827 682 827 618.5 884.5 c 128,-1,14
 555 942 555 942 461 942 c 0,15,16
 258 942 258 942 236 690 c 1,17,-1
 123 690 l 1,18,19
 137 1038 137 1038 465 1038 c 0,20,21
 610 1038 610 1038 700 961 c 0,22,23
 797 877 797 877 797 737 c 0,24,25
 797 616 797 616 717 530 c 1,26,27
 662 473 662 473 532 403 c 1,28,29
 381 324 381 324 338 291 c 0,0,1
EndSplineSet
EndChar

StartChar: three
Encoding: 51 51 23
Width: 772
GlyphClass: 2
Flags: W
LayerCount: 2
Fore
SplineSet
444 -16 m 0,0,1
 133 -16 133 -16 102 301 c 1,2,-1
 217 301 l 1,3,4
 233 80 233 80 449 80 c 0,5,6
 680 80 680 80 680 297 c 0,7,8
 680 496 680 496 461 496 c 0,9,10
 449 496 449 496 424 494 c 1,11,12
 399 494 399 494 387 494 c 1,13,-1
 387 586 l 1,14,15
 555 590 555 590 604 637 c 1,16,17
 649 676 649 676 649 758 c 0,18,19
 649 944 649 944 451 944 c 0,20,21
 250 944 250 944 238 721 c 1,22,-1
 125 721 l 1,23,24
 135 1038 135 1038 449 1038 c 0,25,26
 592 1038 592 1038 676 971 c 1,27,28
 764 897 764 897 764 762 c 0,29,30
 764 610 764 610 598 545 c 1,31,32
 707 510 707 510 752 451.5 c 128,-1,33
 797 393 797 393 797 299 c 0,34,35
 797 150 797 150 699.5 67 c 128,-1,36
 602 -16 602 -16 444 -16 c 0,0,1
EndSplineSet
EndChar

StartChar: four
Encoding: 52 52 24
Width: 813
GlyphClass: 2
Flags: W
LayerCount: 2
Fore
SplineSet
674 233 m 1,0,-1
 674 0 l 1,1,-1
 559 0 l 1,2,-1
 559 233 l 1,3,-1
 111 233 l 1,4,-1
 111 358 l 1,5,-1
 590 1018 l 1,6,-1
 674 1018 l 1,7,-1
 674 332 l 1,8,-1
 831 332 l 1,9,-1
 831 233 l 1,10,-1
 674 233 l 1,0,-1
559 834 m 1,11,-1
 199 332 l 1,12,-1
 559 332 l 1,13,-1
 559 834 l 1,11,-1
EndSplineSet
EndChar

StartChar: five
Encoding: 53 53 25
Width: 790
GlyphClass: 2
Flags: W
LayerCount: 2
Fore
SplineSet
436 -20 m 0,0,1
 156 -20 156 -20 94 246 c 1,2,-1
 207 246 l 1,3,4
 258 74 258 74 434 74 c 0,5,6
 551 74 551 74 613.5 140.5 c 128,-1,7
 676 207 676 207 676 319 c 0,8,9
 676 432 676 432 613.5 502.5 c 128,-1,10
 551 573 551 573 434 573 c 256,11,12
 317 573 317 573 233 479 c 1,13,-1
 127 479 l 1,14,-1
 205 1018 l 1,15,-1
 737 1018 l 1,16,-1
 737 911 l 1,17,-1
 295 911 l 1,18,-1
 248 596 l 1,19,20
 352 670 352 670 457 670 c 0,21,22
 610 670 610 670 701.5 577.5 c 128,-1,23
 793 485 793 485 793 338 c 0,24,25
 793 180 793 180 695.5 80 c 128,-1,26
 598 -20 598 -20 436 -20 c 0,0,1
EndSplineSet
EndChar

StartChar: six
Encoding: 54 54 26
Width: 800
GlyphClass: 2
Flags: W
LayerCount: 2
Fore
SplineSet
473 -16 m 0,0,1
 123 -16 123 -16 123 481 c 0,2,3
 123 1038 123 1038 498 1038 c 0,4,5
 743 1038 743 1038 791 786 c 1,6,-1
 676 786 l 1,7,8
 639 942 639 942 487 942 c 0,9,10
 240 942 240 942 240 510 c 1,11,12
 342 645 342 645 496 645 c 0,13,14
 639 645 639 645 726 555 c 128,-1,15
 813 465 813 465 813 326 c 0,16,17
 813 176 813 176 719 80 c 128,-1,18
 625 -16 625 -16 473 -16 c 0,0,1
479 549 m 0,19,20
 375 549 375 549 311.5 485.5 c 128,-1,21
 248 422 248 422 248 322 c 0,22,23
 248 221 248 221 309.5 150.5 c 128,-1,24
 371 80 371 80 475 80 c 0,25,26
 575 80 575 80 639 150 c 1,27,28
 696 215 696 215 696 315 c 0,29,30
 696 418 696 418 641 483.5 c 128,-1,31
 586 549 586 549 479 549 c 0,19,20
EndSplineSet
EndChar

StartChar: seven
Encoding: 55 55 27
Width: 761
GlyphClass: 2
Flags: W
LayerCount: 2
Fore
SplineSet
330 -4 m 1,0,-1
 209 -4 l 1,1,2
 270 256 270 256 377 469 c 1,3,4
 471 659 471 659 651 909 c 1,5,-1
 68 909 l 1,6,-1
 68 1018 l 1,7,-1
 762 1018 l 1,8,-1
 762 922 l 1,9,10
 414 469 414 469 330 -4 c 1,0,-1
EndSplineSet
EndChar

StartChar: eight
Encoding: 56 56 28
Width: 761
GlyphClass: 2
Flags: W
LayerCount: 2
Fore
SplineSet
436 -16 m 0,0,1
 285 -16 285 -16 188 66 c 1,2,3
 86 154 86 154 86 297 c 0,4,5
 86 465 86 465 279 553 c 1,6,7
 197 604 197 604 164 647 c 0,8,9
 125 698 125 698 125 770 c 0,10,11
 125 893 125 893 217 969 c 1,12,13
 305 1038 305 1038 436 1038 c 256,14,15
 567 1038 567 1038 656 966.5 c 128,-1,16
 745 895 745 895 745 770 c 0,17,18
 745 696 745 696 709.5 649 c 128,-1,19
 674 602 674 602 590 553 c 1,20,21
 784 465 784 465 784 295 c 0,22,23
 784 154 784 154 684 69 c 128,-1,24
 584 -16 584 -16 436 -16 c 0,0,1
436 942 m 256,25,26
 350 942 350 942 296 897 c 128,-1,27
 242 852 242 852 242 768 c 0,28,29
 242 688 242 688 297 642 c 128,-1,30
 352 596 352 596 436 596 c 0,31,32
 518 596 518 596 574.5 641 c 128,-1,33
 631 686 631 686 631 768 c 256,34,35
 631 850 631 850 576.5 896 c 128,-1,36
 522 942 522 942 436 942 c 256,25,26
436 506 m 0,37,38
 334 506 334 506 268.5 449.5 c 128,-1,39
 203 393 203 393 203 293 c 0,40,41
 203 197 203 197 267.5 138.5 c 128,-1,42
 332 80 332 80 432 80 c 0,43,44
 535 80 535 80 601.5 137.5 c 128,-1,45
 668 195 668 195 668 293 c 0,46,47
 668 393 668 393 603.5 449.5 c 128,-1,48
 539 506 539 506 436 506 c 0,37,38
EndSplineSet
EndChar

StartChar: nine
Encoding: 57 57 29
Width: 786
GlyphClass: 2
Flags: W
LayerCount: 2
Fore
SplineSet
788 541 m 0,0,1
 788 -16 788 -16 416 -16 c 0,2,3
 172 -16 172 -16 127 236 c 1,4,-1
 240 236 l 1,5,6
 276 80 276 80 426 80 c 0,7,8
 672 80 672 80 672 506 c 1,9,10
 551 377 551 377 416 377 c 0,11,12
 274 377 274 377 188 468 c 128,-1,13
 102 559 102 559 102 696 c 0,14,15
 102 846 102 846 196.5 942 c 128,-1,16
 291 1038 291 1038 440 1038 c 0,17,18
 788 1038 788 1038 788 541 c 0,0,1
664 700 m 0,19,20
 664 801 664 801 603.5 872.5 c 128,-1,21
 543 944 543 944 438 944 c 0,22,23
 338 944 338 944 277.5 874.5 c 128,-1,24
 217 805 217 805 217 707 c 0,25,26
 217 602 217 602 270 541 c 0,27,28
 328 473 328 473 434 473 c 0,29,30
 537 473 537 473 600.5 536.5 c 128,-1,31
 664 600 664 600 664 700 c 0,19,20
EndSplineSet
EndChar

StartChar: colon
Encoding: 58 58 30
Width: 344
GlyphClass: 2
Flags: W
LayerCount: 2
Fore
SplineSet
147 610 m 1,0,-1
 147 748 l 1,1,-1
 299 748 l 1,2,-1
 299 610 l 1,3,-1
 147 610 l 1,0,-1
147 20 m 1,4,-1
 147 158 l 1,5,-1
 299 158 l 1,6,-1
 299 20 l 1,7,-1
 147 20 l 1,4,-1
EndSplineSet
EndChar

StartChar: semicolon
Encoding: 59 59 31
Width: 395
GlyphClass: 2
Flags: W
LayerCount: 2
Fore
SplineSet
162 549 m 1,0,-1
 162 686 l 1,1,-1
 315 686 l 1,2,-1
 315 549 l 1,3,-1
 162 549 l 1,0,-1
162 -215 m 1,4,-1
 162 -176 l 1,5,6
 231 -170 231 -170 252 -115 c 1,7,8
 258 -94 258 -94 260 -61 c 0,9,10
 260 -55 260 -55 260 4 c 1,11,-1
 162 4 l 1,12,-1
 162 141 l 1,13,-1
 315 141 l 1,14,-1
 315 -29 l 2,15,16
 315 -209 315 -209 162 -215 c 1,4,-1
EndSplineSet
EndChar

StartChar: less
Encoding: 60 60 32
Width: 800
GlyphClass: 2
Flags: W
LayerCount: 2
Fore
SplineSet
86 295 m 1,0,-1
 86 387 l 1,1,-1
 803 690 l 1,2,-1
 803 592 l 1,3,-1
 195 342 l 1,4,-1
 803 90 l 1,5,-1
 803 -8 l 1,6,-1
 86 295 l 1,0,-1
EndSplineSet
EndChar

StartChar: equal
Encoding: 61 61 33
Width: 831
GlyphClass: 2
Flags: W
LayerCount: 2
Fore
SplineSet
115 428 m 1,0,-1
 115 516 l 1,1,-1
 823 516 l 1,2,-1
 823 428 l 1,3,-1
 115 428 l 1,0,-1
115 162 m 1,4,-1
 115 252 l 1,5,-1
 823 252 l 1,6,-1
 823 162 l 1,7,-1
 115 162 l 1,4,-1
EndSplineSet
EndChar

StartChar: greater
Encoding: 62 62 34
Width: 827
GlyphClass: 2
Flags: W
LayerCount: 2
Fore
SplineSet
115 -8 m 1,0,-1
 115 90 l 1,1,-1
 721 338 l 1,2,-1
 115 592 l 1,3,-1
 115 690 l 1,4,-1
 829 387 l 1,5,-1
 829 295 l 1,6,-1
 115 -8 l 1,0,-1
EndSplineSet
EndChar

StartChar: question
Encoding: 63 63 35
Width: 813
GlyphClass: 2
Flags: W
LayerCount: 2
Fore
SplineSet
520 473 m 1,0,1
 475 418 475 418 475 356 c 2,2,-1
 475 297 l 1,3,-1
 358 297 l 1,4,-1
 358 369 l 2,5,6
 358 461 358 461 453 551 c 2,7,-1
 555 649 l 2,8,9
 629 721 629 721 629 809 c 0,10,11
 629 895 629 895 571.5 941 c 128,-1,12
 514 987 514 987 426 987 c 0,13,14
 225 987 225 987 221 756 c 1,15,-1
 113 756 l 1,16,17
 117 1085 117 1085 434 1085 c 0,18,19
 571 1085 571 1085 658 1013.5 c 128,-1,20
 745 942 745 942 745 809 c 0,21,22
 745 698 745 698 668 616 c 1,23,24
 520 473 l 1,0,1
358 0 m 1,25,-1
 358 135 l 1,26,-1
 475 135 l 1,27,-1
 475 0 l 1,28,-1
 358 0 l 1,25,-1
EndSplineSet
EndChar

StartChar: at
Encoding: 64 64 36
Width: 1466
GlyphClass: 2
Flags: W
LayerCount: 2
Fore
SplineSet
1346 217 m 1,0,1
 1235 88 1235 88 1075 88 c 0,2,3
 940 88 940 88 918 213 c 1,4,5
 811 94 811 94 702 94 c 0,6,7
 598 94 598 94 533.5 172 c 128,-1,8
 469 250 469 250 469 358 c 0,9,10
 469 510 469 510 579.5 635 c 128,-1,11
 690 760 690 760 842 760 c 0,12,13
 961 760 961 760 1024 614 c 1,14,-1
 1061 729 l 1,15,-1
 1165 729 l 1,16,-1
 1036 326 l 2,17,18
 1018 268 1018 268 1018 248 c 0,19,20
 1018 213 1018 213 1043.5 192.5 c 128,-1,21
 1069 172 1069 172 1102 172 c 0,22,23
 1200 172 1200 172 1282 285 c 1,24,25
 1360 389 1360 389 1360 524 c 0,26,27
 1360 719 1360 719 1196 858 c 0,28,29
 1038 991 1038 991 844 989 c 1,30,-1
 827 989 l 1,31,32
 588 987 588 987 412 813 c 128,-1,33
 236 639 236 639 236 399 c 0,34,35
 236 186 236 186 396.5 36.5 c 128,-1,36
 557 -113 557 -113 801 -113 c 0,37,38
 918 -113 918 -113 1081 -68 c 1,39,-1
 1116 -150 l 1,40,41
 956 -209 956 -209 795 -209 c 0,42,43
 528 -209 528 -209 338 -51 c 1,44,45
 127 121 127 121 127 377 c 0,46,47
 127 670 127 670 340 877.5 c 128,-1,48
 553 1085 553 1085 848 1085 c 0,49,50
 1090 1085 1090 1085 1270 938 c 0,51,52
 1470 774 1470 774 1470 543 c 0,53,54
 1470 365 1470 365 1346 217 c 1,0,1
831 684 m 0,55,56
 731 684 731 684 653 573 c 1,57,58
 584 477 584 477 584 356 c 0,59,60
 584 283 584 283 625 231 c 1,61,62
 668 172 668 172 739 172 c 0,63,64
 846 172 846 172 920 311 c 1,65,66
 981 428 981 428 981 541 c 0,67,68
 981 604 981 604 938 644 c 128,-1,69
 895 684 895 684 831 684 c 0,55,56
EndSplineSet
EndChar

StartChar: A
Encoding: 65 65 37
Width: 1030
GlyphClass: 2
Flags: W
LayerCount: 2
Fore
SplineSet
899 0 m 1,0,-1
 786 326 l 1,1,-1
 354 326 l 1,2,-1
 240 0 l 1,3,-1
 111 0 l 1,4,-1
 492 1067 l 1,5,-1
 657 1067 l 1,6,-1
 1034 0 l 1,7,-1
 899 0 l 1,0,-1
573 956 m 1,8,-1
 381 424 l 1,9,-1
 754 424 l 1,10,-1
 573 956 l 1,8,-1
EndSplineSet
EndChar

StartChar: B
Encoding: 66 66 38
Width: 921
GlyphClass: 2
Flags: W
LayerCount: 2
Fore
SplineSet
608 0 m 2,0,-1
 123 0 l 1,1,-1
 123 1067 l 1,2,-1
 559 1067 l 2,3,4
 784 1067 784 1067 850 909 c 0,5,6
 872 858 872 858 872 801 c 0,7,8
 872 641 872 641 707 563 c 1,9,10
 920 481 920 481 920 301 c 0,11,12
 920 162 920 162 835 81 c 128,-1,13
 750 0 750 0 608 0 c 2,0,-1
737 846 m 0,14,15
 692 965 692 965 524 965 c 2,16,-1
 244 965 l 1,17,-1
 244 600 l 1,18,-1
 524 600 l 2,19,20
 618 600 618 600 680 641 c 0,21,22
 752 688 752 688 752 782 c 0,23,24
 752 809 752 809 737 846 c 0,14,15
594 496 m 2,25,-1
 244 496 l 1,26,-1
 244 104 l 1,27,-1
 594 104 l 2,28,29
 688 104 688 104 744.5 154.5 c 128,-1,30
 801 205 801 205 801 299 c 0,31,32
 801 496 801 496 594 496 c 2,25,-1
EndSplineSet
EndChar

StartChar: C
Encoding: 67 67 39
Width: 1015
GlyphClass: 2
Flags: W
LayerCount: 2
Fore
SplineSet
608 -20 m 0,0,1
 309 -20 309 -20 188 236 c 0,2,3
 127 365 127 365 127 528 c 0,4,5
 127 770 127 770 246 922 c 1,6,7
 377 1085 377 1085 614 1085 c 0,8,9
 954 1085 954 1085 1020 754 c 1,10,-1
 899 754 l 1,11,12
 846 983 846 983 598 983 c 0,13,14
 416 983 416 983 324 838 c 0,15,16
 248 717 248 717 248 530 c 0,17,18
 248 274 248 274 391 156 c 1,19,20
 483 82 483 82 610 82 c 0,21,22
 868 82 868 82 920 387 c 1,23,-1
 1044 387 l 1,24,25
 991 -20 991 -20 608 -20 c 0,0,1
EndSplineSet
EndChar

StartChar: D
Encoding: 68 68 40
Width: 968
GlyphClass: 2
Flags: W
LayerCount: 2
Fore
SplineSet
803 88 m 0,0,1
 694 0 694 0 537 0 c 2,2,-1
 127 0 l 1,3,-1
 127 1067 l 1,4,-1
 537 1067 l 2,5,6
 758 1067 758 1067 872 907 c 0,7,8
 973 764 973 764 973 535 c 0,9,10
 973 227 973 227 803 88 c 0,0,1
514 965 m 2,11,-1
 246 965 l 1,12,-1
 246 104 l 1,13,-1
 514 104 l 2,14,15
 852 104 852 104 852 532 c 0,16,17
 852 965 852 965 514 965 c 2,11,-1
EndSplineSet
EndChar

StartChar: E
Encoding: 69 69 41
Width: 868
GlyphClass: 2
Flags: W
LayerCount: 2
Fore
SplineSet
125 0 m 1,0,-1
 125 1067 l 1,1,-1
 864 1067 l 1,2,-1
 864 965 l 1,3,-1
 246 965 l 1,4,-1
 246 598 l 1,5,-1
 842 598 l 1,6,-1
 842 496 l 1,7,-1
 246 496 l 1,8,-1
 246 104 l 1,9,-1
 891 104 l 1,10,-1
 891 0 l 1,11,-1
 125 0 l 1,0,-1
EndSplineSet
EndChar

StartChar: F
Encoding: 70 70 42
Width: 817
GlyphClass: 2
Flags: W
LayerCount: 2
Fore
SplineSet
246 965 m 1,0,-1
 246 598 l 1,1,-1
 770 598 l 1,2,-1
 770 496 l 1,3,-1
 246 496 l 1,4,-1
 246 0 l 1,5,-1
 125 0 l 1,6,-1
 125 1067 l 1,7,-1
 842 1067 l 1,8,-1
 842 965 l 1,9,-1
 246 965 l 1,0,-1
EndSplineSet
EndChar

StartChar: G
Encoding: 71 71 43
Width: 1091
GlyphClass: 2
Flags: W
LayerCount: 2
Fore
SplineSet
1024 12 m 1,0,-1
 987 164 l 1,1,2
 823 -16 823 -16 610 -16 c 0,3,4
 383 -16 383 -16 248 150 c 1,5,6
 121 301 121 301 121 532 c 0,7,8
 121 741 121 741 227 891 c 0,9,10
 365 1085 365 1085 635 1085 c 0,11,12
 1012 1085 1012 1085 1079 762 c 1,13,-1
 956 762 l 1,14,15
 930 870 930 870 838 930 c 1,16,17
 752 983 752 983 633 983 c 0,18,19
 444 983 444 983 338 850 c 1,20,21
 242 727 242 727 242 539 c 0,22,23
 242 344 242 344 340 221 c 1,24,25
 446 86 446 86 641 86 c 0,26,27
 793 86 793 86 892 180 c 128,-1,28
 991 274 991 274 991 424 c 2,29,-1
 991 463 l 1,30,-1
 662 463 l 1,31,-1
 662 563 l 1,32,-1
 1096 563 l 1,33,-1
 1096 12 l 1,34,-1
 1024 12 l 1,0,-1
EndSplineSet
EndChar

StartChar: H
Encoding: 72 72 44
Width: 946
GlyphClass: 2
Flags: W
LayerCount: 2
Fore
SplineSet
827 0 m 1,0,-1
 827 496 l 1,1,-1
 246 496 l 1,2,-1
 246 0 l 1,3,-1
 125 0 l 1,4,-1
 125 1067 l 1,5,-1
 246 1067 l 1,6,-1
 246 598 l 1,7,-1
 827 598 l 1,8,-1
 827 1067 l 1,9,-1
 946 1067 l 1,10,-1
 946 0 l 1,11,-1
 827 0 l 1,0,-1
EndSplineSet
EndChar

StartChar: I
Encoding: 73 73 45
Width: 286
GlyphClass: 2
Flags: W
LayerCount: 2
Fore
SplineSet
141 0 m 1,0,-1
 141 1067 l 1,1,-1
 279 1067 l 1,2,-1
 279 0 l 1,3,-1
 141 0 l 1,0,-1
EndSplineSet
EndChar

StartChar: J
Encoding: 74 74 46
Width: 722
GlyphClass: 2
Flags: W
LayerCount: 2
Fore
SplineSet
424 -20 m 0,0,1
 289 -20 289 -20 208 51.5 c 128,-1,2
 127 123 127 123 127 254 c 2,3,-1
 127 340 l 1,4,-1
 252 340 l 1,5,-1
 252 279 l 2,6,7
 252 76 252 76 426 76 c 0,8,9
 604 76 604 76 604 322 c 2,10,-1
 604 1067 l 1,11,-1
 727 1067 l 1,12,-1
 727 272 l 2,13,14
 727 135 727 135 646 57.5 c 128,-1,15
 565 -20 565 -20 424 -20 c 0,0,1
EndSplineSet
EndChar

StartChar: K
Encoding: 75 75 47
Width: 931
GlyphClass: 2
Flags: W
LayerCount: 2
Fore
SplineSet
823 0 m 1,0,-1
 434 563 l 1,1,-1
 246 375 l 1,2,-1
 246 0 l 1,3,-1
 125 0 l 1,4,-1
 125 1067 l 1,5,-1
 246 1067 l 1,6,-1
 246 504 l 1,7,-1
 803 1067 l 1,8,-1
 956 1067 l 1,9,-1
 522 635 l 1,10,-1
 965 0 l 1,11,-1
 823 0 l 1,0,-1
EndSplineSet
EndChar

StartChar: L
Encoding: 76 76 48
Width: 780
GlyphClass: 2
Flags: W
LayerCount: 2
Fore
SplineSet
125 0 m 1,0,-1
 125 1067 l 1,1,-1
 246 1067 l 1,2,-1
 246 104 l 1,3,-1
 788 104 l 1,4,-1
 788 0 l 1,5,-1
 125 0 l 1,0,-1
EndSplineSet
EndChar

StartChar: M
Encoding: 77 77 49
Width: 1128
GlyphClass: 2
Flags: W
LayerCount: 2
Fore
SplineSet
1018 0 m 1,0,-1
 1018 958 l 1,1,-1
 696 0 l 1,2,-1
 563 0 l 1,3,-1
 240 958 l 1,4,-1
 240 0 l 1,5,-1
 127 0 l 1,6,-1
 127 1067 l 1,7,-1
 303 1067 l 1,8,-1
 631 100 l 1,9,-1
 954 1067 l 1,10,-1
 1130 1067 l 1,11,-1
 1130 0 l 1,12,-1
 1018 0 l 1,0,-1
EndSplineSet
EndChar

StartChar: N
Encoding: 78 78 50
Width: 960
GlyphClass: 2
Flags: W
LayerCount: 2
Fore
SplineSet
819 0 m 1,0,-1
 240 903 l 1,1,-1
 240 0 l 1,2,-1
 127 0 l 1,3,-1
 127 1067 l 1,4,-1
 264 1067 l 1,5,-1
 850 158 l 1,6,-1
 850 1067 l 1,7,-1
 963 1067 l 1,8,-1
 963 0 l 1,9,-1
 819 0 l 1,0,-1
EndSplineSet
EndChar

StartChar: O
Encoding: 79 79 51
Width: 1148
GlyphClass: 2
Flags: W
LayerCount: 2
Fore
SplineSet
641 -20 m 0,0,1
 401 -20 401 -20 262 139 c 1,2,3
 127 291 127 291 127 532 c 0,4,5
 127 772 127 772 260 926 c 1,6,7
 401 1085 401 1085 639 1085 c 0,8,9
 883 1085 883 1085 1022 924 c 0,10,11
 1155 770 1155 770 1155 524 c 0,12,13
 1155 289 1155 289 1018 137 c 1,14,15
 874 -20 874 -20 641 -20 c 0,0,1
639 983 m 0,16,17
 451 983 451 983 344 846 c 1,18,19
 246 723 246 723 246 532 c 0,20,21
 246 342 246 342 344 219 c 0,22,23
 453 82 453 82 641 82 c 0,24,25
 825 82 825 82 934 217 c 0,26,27
 1034 340 1034 340 1034 526 c 0,28,29
 1034 721 1034 721 938 846 c 1,30,31
 831 983 831 983 639 983 c 0,16,17
EndSplineSet
EndChar

StartChar: P
Encoding: 80 80 52
Width: 892
GlyphClass: 2
Flags: W
LayerCount: 2
Fore
SplineSet
598 461 m 2,0,-1
 246 461 l 1,1,-1
 246 0 l 1,2,-1
 125 0 l 1,3,-1
 125 1067 l 1,4,-1
 567 1067 l 2,5,6
 895 1067 895 1067 895 758 c 0,7,8
 895 623 895 623 815 542 c 128,-1,9
 735 461 735 461 598 461 c 2,0,-1
547 965 m 2,10,-1
 246 965 l 1,11,-1
 246 563 l 1,12,-1
 547 563 l 2,13,14
 645 563 645 563 706.5 614.5 c 128,-1,15
 768 666 768 666 768 764 c 256,16,17
 768 862 768 862 707.5 913.5 c 128,-1,18
 647 965 647 965 547 965 c 2,10,-1
EndSplineSet
EndChar

StartChar: Q
Encoding: 81 81 53
Width: 1136
GlyphClass: 2
Flags: W
LayerCount: 2
Fore
SplineSet
995 117 m 1,0,-1
 1137 2 l 1,1,-1
 1079 -68 l 1,2,-1
 924 57 l 1,3,4
 793 -18 793 -18 639 -18 c 0,5,6
 399 -18 399 -18 261 137.5 c 128,-1,7
 123 293 123 293 123 532 c 0,8,9
 123 774 123 774 258 926 c 1,10,11
 397 1085 397 1085 639 1085 c 0,12,13
 877 1085 877 1085 1018 926 c 1,14,15
 1155 774 1155 774 1155 537 c 0,16,17
 1155 287 1155 287 995 117 c 1,0,-1
639 983 m 256,18,19
 449 983 449 983 342 848 c 0,20,21
 244 723 244 723 244 532 c 0,22,23
 244 342 244 342 340 219 c 0,24,25
 446 82 446 82 637 82 c 0,26,27
 729 82 729 82 834 131 c 1,28,-1
 719 225 l 1,29,-1
 776 293 l 1,30,-1
 907 186 l 1,31,32
 1034 326 1034 326 1034 535 c 0,33,34
 1034 725 1034 725 936 848 c 0,35,36
 829 983 829 983 639 983 c 256,18,19
EndSplineSet
EndChar

StartChar: R
Encoding: 82 82 54
Width: 956
GlyphClass: 2
Flags: W
LayerCount: 2
Fore
SplineSet
831 0 m 1,0,1
 807 55 807 55 805 137 c 0,2,3
 803 207 803 207 803 276 c 1,4,5
 793 467 793 467 614 467 c 2,6,-1
 246 467 l 1,7,-1
 246 0 l 1,8,-1
 125 0 l 1,9,-1
 125 1067 l 1,10,-1
 618 1067 l 2,11,12
 942 1067 942 1067 942 786 c 0,13,14
 942 692 942 692 899 633.5 c 128,-1,15
 856 575 856 575 758 526 c 1,16,17
 854 485 854 485 891 418 c 0,18,19
 918 369 918 369 920 285 c 1,20,21
 920 147 920 147 922 141 c 1,22,23
 932 57 932 57 983 20 c 1,24,-1
 983 0 l 1,25,-1
 831 0 l 1,0,1
592 965 m 2,26,-1
 246 965 l 1,27,-1
 246 571 l 1,28,-1
 592 571 l 2,29,30
 815 571 815 571 815 766 c 0,31,32
 815 965 815 965 592 965 c 2,26,-1
EndSplineSet
EndChar

StartChar: S
Encoding: 83 83 55
Width: 915
GlyphClass: 2
Flags: W
LayerCount: 2
Fore
SplineSet
512 -16 m 0,0,1
 322 -16 322 -16 213 70 c 0,2,3
 96 162 96 162 90 340 c 1,4,-1
 205 340 l 1,5,6
 209 86 209 86 522 86 c 0,7,8
 809 86 809 86 809 289 c 0,9,10
 809 416 809 416 602 471 c 1,11,-1
 332 541 l 1,12,13
 123 594 123 594 123 780 c 0,14,15
 123 934 123 934 238 1014 c 1,16,17
 338 1085 338 1085 502 1085 c 0,18,19
 674 1085 674 1085 776 1012 c 0,20,21
 889 930 889 930 893 772 c 1,22,-1
 780 772 l 1,23,24
 772 989 772 989 498 989 c 0,25,26
 397 989 397 989 328 948 c 0,27,28
 244 897 244 897 244 801 c 0,29,30
 244 682 244 682 430 633 c 2,31,-1
 705 561 l 2,32,33
 930 502 930 502 930 301 c 0,34,35
 930 141 930 141 801 57 c 0,36,37
 688 -16 688 -16 512 -16 c 0,0,1
EndSplineSet
EndChar

StartChar: T
Encoding: 84 84 56
Width: 892
GlyphClass: 2
Flags: W
LayerCount: 2
Fore
SplineSet
571 965 m 1,0,-1
 571 0 l 1,1,-1
 451 0 l 1,2,-1
 451 965 l 1,3,-1
 92 965 l 1,4,-1
 92 1067 l 1,5,-1
 930 1067 l 1,6,-1
 930 965 l 1,7,-1
 571 965 l 1,0,-1
EndSplineSet
EndChar

StartChar: U
Encoding: 85 85 57
Width: 942
GlyphClass: 2
Flags: W
LayerCount: 2
Fore
SplineSet
532 -25 m 0,0,1
 352 -25 352 -25 244 57 c 1,2,3
 125 150 125 150 125 319 c 2,4,-1
 125 1067 l 1,5,-1
 246 1067 l 1,6,-1
 246 319 l 2,7,8
 246 78 246 78 532 78 c 0,9,10
 659 78 659 78 735 135 c 1,11,12
 823 199 823 199 823 319 c 2,13,-1
 823 1067 l 1,14,-1
 944 1067 l 1,15,-1
 944 319 l 2,16,17
 944 152 944 152 821 59 c 0,18,19
 711 -25 711 -25 532 -25 c 0,0,1
EndSplineSet
EndChar

StartChar: V
Encoding: 86 86 58
Width: 956
GlyphClass: 2
Flags: W
LayerCount: 2
Fore
SplineSet
616 0 m 1,0,-1
 479 0 l 1,1,-1
 94 1067 l 1,2,-1
 225 1067 l 1,3,-1
 551 129 l 1,4,-1
 860 1067 l 1,5,-1
 987 1067 l 1,6,-1
 616 0 l 1,0,-1
EndSplineSet
EndChar

StartChar: W
Encoding: 87 87 59
Width: 1380
GlyphClass: 2
Flags: W
LayerCount: 2
Fore
SplineSet
1141 0 m 1,0,-1
 1004 0 l 1,1,-1
 748 918 l 1,2,-1
 498 0 l 1,3,-1
 360 0 l 1,4,-1
 88 1067 l 1,5,-1
 223 1067 l 1,6,-1
 434 156 l 1,7,-1
 682 1067 l 1,8,-1
 815 1067 l 1,9,-1
 1071 156 l 1,10,-1
 1276 1067 l 1,11,-1
 1411 1067 l 1,12,-1
 1141 0 l 1,0,-1
EndSplineSet
EndChar

StartChar: X
Encoding: 88 88 60
Width: 974
GlyphClass: 2
Flags: W
LayerCount: 2
Fore
SplineSet
850 0 m 1,0,-1
 549 461 l 1,1,-1
 244 0 l 1,2,-1
 98 0 l 1,3,-1
 477 549 l 1,4,-1
 121 1067 l 1,5,-1
 268 1067 l 1,6,-1
 553 633 l 1,7,-1
 838 1067 l 1,8,-1
 981 1067 l 1,9,-1
 621 549 l 1,10,-1
 999 0 l 1,11,-1
 850 0 l 1,0,-1
EndSplineSet
EndChar

StartChar: Y
Encoding: 89 89 61
Width: 1009
GlyphClass: 2
Flags: W
LayerCount: 2
Fore
SplineSet
627 420 m 1,0,-1
 627 0 l 1,1,-1
 506 0 l 1,2,-1
 506 420 l 1,3,-1
 94 1067 l 1,4,-1
 244 1067 l 1,5,-1
 569 530 l 1,6,-1
 885 1067 l 1,7,-1
 1028 1067 l 1,8,-1
 627 420 l 1,0,-1
EndSplineSet
EndChar

StartChar: Z
Encoding: 90 90 62
Width: 892
GlyphClass: 2
Flags: W
LayerCount: 2
Fore
SplineSet
86 0 m 1,0,-1
 86 111 l 1,1,-1
 752 965 l 1,2,-1
 129 965 l 1,3,-1
 129 1067 l 1,4,-1
 895 1067 l 1,5,-1
 895 954 l 1,6,-1
 233 104 l 1,7,-1
 899 104 l 1,8,-1
 899 0 l 1,9,-1
 86 0 l 1,0,-1
EndSplineSet
EndChar

StartChar: bracketleft
Encoding: 91 91 63
Width: 405
GlyphClass: 2
Flags: W
LayerCount: 2
Fore
SplineSet
127 -311 m 1,0,-1
 127 1067 l 1,1,-1
 399 1067 l 1,2,-1
 399 979 l 1,3,-1
 238 979 l 1,4,-1
 238 -223 l 1,5,-1
 399 -223 l 1,6,-1
 399 -311 l 1,7,-1
 127 -311 l 1,0,-1
EndSplineSet
EndChar

StartChar: backslash
Encoding: 92 92 64
Width: 478
GlyphClass: 2
Flags: W
LayerCount: 2
Fore
SplineSet
430 -29 m 1,0,-1
 74 1067 l 1,1,-1
 188 1067 l 1,2,-1
 544 -29 l 1,3,-1
 430 -29 l 1,0,-1
EndSplineSet
EndChar

StartChar: bracketright
Encoding: 93 93 65
Width: 387
GlyphClass: 2
Flags: W
LayerCount: 2
Fore
SplineSet
74 -311 m 1,0,-1
 74 -223 l 1,1,-1
 236 -223 l 1,2,-1
 236 979 l 1,3,-1
 74 979 l 1,4,-1
 74 1067 l 1,5,-1
 346 1067 l 1,6,-1
 346 -311 l 1,7,-1
 74 -311 l 1,0,-1
EndSplineSet
EndChar

StartChar: asciicircum
Encoding: 94 94 66
Width: 612
GlyphClass: 2
Flags: W
LayerCount: 2
Fore
SplineSet
559 512 m 1,0,-1
 367 983 l 1,1,-1
 178 512 l 1,2,-1
 94 512 l 1,3,-1
 317 1069 l 1,4,-1
 416 1069 l 1,5,-1
 643 512 l 1,6,-1
 559 512 l 1,0,-1
EndSplineSet
EndChar

StartChar: underscore
Encoding: 95 95 67
Width: 823
GlyphClass: 2
Flags: W
LayerCount: 2
Fore
SplineSet
35 -258 m 1,0,-1
 35 -184 l 1,1,-1
 913 -184 l 1,2,-1
 913 -258 l 1,3,-1
 35 -258 l 1,0,-1
EndSplineSet
EndChar

StartChar: grave
Encoding: 96 96 68
Width: 434
GlyphClass: 2
Flags: W
LayerCount: 2
Fore
SplineSet
389 870 m 1,0,-1
 178 1087 l 1,1,-1
 324 1087 l 1,2,-1
 461 870 l 1,3,-1
 389 870 l 1,0,-1
EndSplineSet
EndChar

StartChar: a
Encoding: 97 97 69
Width: 817
GlyphClass: 2
Flags: W
LayerCount: 2
Fore
SplineSet
760 -25 m 0,0,1
 651 -25 651 -25 635 100 c 1,2,3
 489 -25 489 -25 356 -25 c 0,4,5
 242 -25 242 -25 172 31.5 c 128,-1,6
 102 88 102 88 102 197 c 0,7,8
 102 334 102 334 217 387 c 0,9,10
 254 403 254 403 483 440 c 0,11,12
 539 449 539 449 565 457 c 1,13,14
 616 475 616 475 629 504 c 1,15,16
 633 518 633 518 633 569 c 0,17,18
 633 694 633 694 444 694 c 0,19,20
 268 694 268 694 248 557 c 1,21,-1
 139 557 l 1,22,23
 154 788 154 788 449 788 c 0,24,25
 741 788 741 788 741 588 c 2,26,-1
 741 131 l 2,27,28
 741 61 741 61 819 61 c 0,29,30
 827 61 827 61 838 61 c 1,31,-1
 838 -12 l 1,32,33
 791 -25 791 -25 760 -25 c 0,0,1
633 399 m 1,34,35
 588 379 588 379 514 367 c 0,36,37
 469 360 469 360 381 344 c 1,38,39
 217 307 217 307 217 199 c 0,40,41
 217 66 217 66 383 66 c 0,42,43
 524 66 524 66 596 154 c 0,44,45
 633 199 633 199 633 246 c 2,46,-1
 633 399 l 1,34,35
EndSplineSet
EndChar

StartChar: b
Encoding: 98 98 70
Width: 813
GlyphClass: 2
Flags: W
LayerCount: 2
Fore
SplineSet
682 49 m 1,0,1
 596 -20 596 -20 481 -20 c 0,2,3
 326 -20 326 -20 221 133 c 1,4,-1
 221 14 l 1,5,-1
 129 14 l 1,6,-1
 129 1067 l 1,7,-1
 233 1067 l 1,8,-1
 233 639 l 1,9,10
 334 788 334 788 487 788 c 0,11,12
 653 788 653 788 739 668 c 0,13,14
 815 563 815 563 815 393 c 0,15,16
 815 160 815 160 682 49 c 1,0,1
463 692 m 0,17,18
 346 692 346 692 285 588 c 1,19,20
 233 504 233 504 233 383 c 0,21,22
 233 195 233 195 342 117 c 1,23,24
 395 76 395 76 463 76 c 0,25,26
 584 76 584 76 649 174 c 1,27,28
 702 258 702 258 702 379 c 0,29,30
 702 504 702 504 651 588 c 1,31,32
 586 692 586 692 463 692 c 0,17,18
EndSplineSet
EndChar

StartChar: c
Encoding: 99 99 71
Width: 763
GlyphClass: 2
Flags: W
LayerCount: 2
Fore
SplineSet
465 -25 m 0,0,1
 295 -25 295 -25 205 96 c 1,2,3
 123 203 123 203 123 375 c 0,4,5
 123 608 123 608 258 719 c 1,6,7
 346 788 346 788 467 788 c 0,8,9
 741 788 741 788 770 524 c 1,10,-1
 662 524 l 1,11,12
 635 694 635 694 465 694 c 0,13,14
 340 694 340 694 281 588 c 1,15,16
 236 504 236 504 236 375 c 0,17,18
 236 250 236 250 285 170 c 0,19,20
 344 72 344 72 469 72 c 0,21,22
 635 72 635 72 672 258 c 1,23,-1
 780 258 l 1,24,25
 766 125 766 125 684 50 c 128,-1,26
 602 -25 602 -25 465 -25 c 0,0,1
EndSplineSet
EndChar

StartChar: d
Encoding: 100 100 72
Width: 811
GlyphClass: 2
Flags: W
LayerCount: 2
Fore
SplineSet
719 14 m 1,0,-1
 719 135 l 1,1,2
 608 -20 608 -20 457 -20 c 0,3,4
 289 -20 289 -20 201 106 c 0,5,6
 125 215 125 215 125 391 c 0,7,8
 125 559 125 559 203 666 c 0,9,10
 291 788 291 788 453 788 c 0,11,12
 610 788 610 788 705 647 c 1,13,-1
 705 1067 l 1,14,-1
 811 1067 l 1,15,-1
 811 14 l 1,16,-1
 719 14 l 1,0,-1
475 692 m 256,17,18
 354 692 354 692 289 590 c 0,19,20
 236 506 236 506 236 383 c 256,21,22
 236 260 236 260 289 176 c 1,23,24
 354 76 354 76 475 76 c 0,25,26
 594 76 594 76 655 178 c 0,27,28
 705 260 705 260 705 381 c 0,29,30
 705 504 705 504 657 588 c 1,31,32
 596 692 596 692 475 692 c 256,17,18
EndSplineSet
EndChar

StartChar: e
Encoding: 101 101 73
Width: 813
GlyphClass: 2
Flags: W
LayerCount: 2
Fore
SplineSet
231 358 m 1,0,1
 233 233 233 233 291 160 c 1,2,3
 354 74 354 74 475 74 c 0,4,5
 635 74 635 74 690 229 c 1,6,-1
 801 229 l 1,7,8
 745 -20 745 -20 471 -20 c 0,9,10
 297 -20 297 -20 203 98 c 0,11,12
 119 205 119 205 119 381 c 0,13,14
 119 555 119 555 205 666 c 0,15,16
 299 788 299 788 473 788 c 0,17,18
 709 788 709 788 788 592 c 1,19,20
 817 516 817 516 819 358 c 1,21,-1
 231 358 l 1,0,1
473 694 m 0,22,23
 365 694 365 694 304.5 623.5 c 128,-1,24
 244 553 244 553 233 440 c 1,25,-1
 698 440 l 1,26,27
 702 451 702 451 702 459 c 0,28,29
 702 555 702 555 637.5 624.5 c 128,-1,30
 573 694 573 694 473 694 c 0,22,23
EndSplineSet
EndChar

StartChar: f
Encoding: 102 102 74
Width: 454
GlyphClass: 2
Flags: W
LayerCount: 2
Fore
SplineSet
324 680 m 1,0,-1
 324 0 l 1,1,-1
 215 0 l 1,2,-1
 215 680 l 1,3,-1
 106 680 l 1,4,-1
 106 762 l 1,5,-1
 215 762 l 1,6,-1
 215 903 l 2,7,8
 215 1028 215 1028 322 1063 c 1,9,10
 354 1071 354 1071 395 1071 c 0,11,12
 426 1071 426 1071 457 1067 c 1,13,-1
 457 981 l 1,14,15
 436 981 436 981 422 981 c 0,16,17
 324 981 324 981 324 893 c 2,18,-1
 324 762 l 1,19,-1
 457 762 l 1,20,-1
 457 680 l 1,21,-1
 324 680 l 1,0,-1
EndSplineSet
EndChar

StartChar: g
Encoding: 103 103 75
Width: 792
GlyphClass: 2
Flags: W
LayerCount: 2
Fore
SplineSet
453 -301 m 0,0,1
 178 -301 178 -301 150 -88 c 1,2,-1
 258 -88 l 1,3,4
 287 -217 287 -217 444 -217 c 0,5,6
 604 -217 604 -217 653 -115 c 0,7,8
 686 -47 686 -47 686 141 c 1,9,10
 571 -16 571 -16 438 -16 c 0,11,12
 287 -16 287 -16 199 111 c 0,13,14
 123 221 123 221 123 379 c 0,15,16
 123 600 123 600 248 713 c 0,17,18
 332 788 332 788 449 788 c 0,19,20
 592 788 592 788 698 635 c 1,21,-1
 698 768 l 1,22,-1
 797 768 l 1,23,-1
 797 135 l 2,24,25
 797 -82 797 -82 735 -178 c 0,26,27
 657 -301 657 -301 453 -301 c 0,0,1
463 694 m 0,28,29
 342 694 342 694 283 592 c 1,30,31
 233 510 233 510 233 387 c 0,32,33
 233 262 233 262 283 180 c 1,34,35
 342 78 342 78 463 78 c 0,36,37
 582 78 582 78 641 180 c 1,38,39
 686 260 686 260 686 383 c 0,40,41
 686 694 686 694 463 694 c 0,28,29
EndSplineSet
EndChar

StartChar: h
Encoding: 104 104 76
Width: 729
GlyphClass: 2
Flags: W
LayerCount: 2
Fore
SplineSet
627 0 m 1,0,-1
 627 532 l 2,1,2
 627 608 627 608 578.5 651 c 128,-1,3
 530 694 530 694 453 694 c 0,4,5
 342 694 342 694 281 608 c 0,6,7
 229 535 229 535 229 422 c 2,8,-1
 229 0 l 1,9,-1
 123 0 l 1,10,-1
 123 1067 l 1,11,-1
 229 1067 l 1,12,-1
 229 637 l 1,13,14
 344 784 344 784 492 784 c 0,15,16
 600 784 600 784 665.5 733 c 128,-1,17
 731 682 731 682 731 582 c 2,18,-1
 731 0 l 1,19,-1
 627 0 l 1,0,-1
EndSplineSet
EndChar

StartChar: i
Encoding: 105 105 77
Width: 243
GlyphClass: 2
Flags: W
LayerCount: 2
Fore
SplineSet
121 930 m 1,0,-1
 121 1067 l 1,1,-1
 244 1067 l 1,2,-1
 244 930 l 1,3,-1
 121 930 l 1,0,-1
123 0 m 1,4,-1
 123 762 l 1,5,-1
 244 762 l 1,6,-1
 244 0 l 1,7,-1
 123 0 l 1,4,-1
EndSplineSet
EndChar

StartChar: j
Encoding: 106 106 78
Width: 278
GlyphClass: 2
Flags: W
LayerCount: 2
Fore
SplineSet
170 930 m 1,0,-1
 170 1067 l 1,1,-1
 281 1067 l 1,2,-1
 281 930 l 1,3,-1
 170 930 l 1,0,-1
82 -319 m 0,4,5
 51 -319 51 -319 31 -315 c 1,6,-1
 31 -229 l 1,7,8
 45 -229 45 -229 53 -229 c 0,9,10
 170 -229 170 -229 170 -119 c 2,11,-1
 170 764 l 1,12,-1
 281 764 l 1,13,-1
 281 -166 l 2,14,15
 281 -319 281 -319 82 -319 c 0,4,5
EndSplineSet
EndChar

StartChar: k
Encoding: 107 107 79
Width: 733
GlyphClass: 2
Flags: W
LayerCount: 2
Fore
SplineSet
633 0 m 1,0,-1
 362 428 l 1,1,-1
 229 299 l 1,2,-1
 229 0 l 1,3,-1
 123 0 l 1,4,-1
 123 1067 l 1,5,-1
 229 1067 l 1,6,-1
 229 418 l 1,7,-1
 578 762 l 1,8,-1
 713 762 l 1,9,-1
 449 504 l 1,10,-1
 766 0 l 1,11,-1
 633 0 l 1,0,-1
EndSplineSet
EndChar

StartChar: l
Encoding: 108 108 80
Width: 243
GlyphClass: 2
Flags: W
LayerCount: 2
Fore
SplineSet
125 0 m 1,0,-1
 125 1067 l 1,1,-1
 248 1067 l 1,2,-1
 248 0 l 1,3,-1
 125 0 l 1,0,-1
EndSplineSet
EndChar

StartChar: m
Encoding: 109 109 81
Width: 1138
GlyphClass: 2
Flags: W
LayerCount: 2
Fore
SplineSet
1032 0 m 1,0,-1
 1032 532 l 2,1,2
 1032 698 1032 698 879 698 c 0,3,4
 793 698 793 698 738.5 633.5 c 128,-1,5
 684 569 684 569 684 483 c 2,6,-1
 684 0 l 1,7,-1
 578 0 l 1,8,-1
 578 532 l 2,9,10
 578 698 578 698 424 698 c 0,11,12
 340 698 340 698 285.5 633.5 c 128,-1,13
 231 569 231 569 231 483 c 2,14,-1
 231 0 l 1,15,-1
 125 0 l 1,16,-1
 125 766 l 1,17,-1
 221 766 l 1,18,-1
 221 635 l 1,19,20
 330 788 330 788 471 788 c 0,21,22
 614 788 614 788 680 662 c 1,23,24
 784 788 784 788 922 788 c 0,25,26
 1139 788 1139 788 1139 580 c 2,27,-1
 1139 0 l 1,28,-1
 1032 0 l 1,0,-1
EndSplineSet
EndChar

StartChar: n
Encoding: 110 110 82
Width: 733
GlyphClass: 2
Flags: W
LayerCount: 2
Fore
SplineSet
627 0 m 1,0,-1
 627 535 l 2,1,2
 627 612 627 612 579.5 655 c 128,-1,3
 532 698 532 698 455 698 c 0,4,5
 344 698 344 698 283 612 c 0,6,7
 231 537 231 537 231 424 c 2,8,-1
 231 0 l 1,9,-1
 123 0 l 1,10,-1
 123 766 l 1,11,-1
 221 766 l 1,12,-1
 221 612 l 1,13,14
 334 788 334 788 492 788 c 0,15,16
 598 788 598 788 664 739 c 1,17,18
 733 684 733 684 733 584 c 2,19,-1
 733 0 l 1,20,-1
 627 0 l 1,0,-1
EndSplineSet
EndChar

StartChar: o
Encoding: 111 111 83
Width: 813
GlyphClass: 2
Flags: W
LayerCount: 2
Fore
SplineSet
465 -20 m 0,0,1
 291 -20 291 -20 201 98 c 1,2,3
 119 203 119 203 119 385 c 0,4,5
 119 563 119 563 201 670 c 0,6,7
 291 788 291 788 463 788 c 0,8,9
 641 788 641 788 731 670 c 1,10,11
 811 563 811 563 811 379 c 0,12,13
 811 203 811 203 729 96 c 1,14,15
 637 -20 637 -20 465 -20 c 0,0,1
465 694 m 0,16,17
 342 694 342 694 281 594 c 0,18,19
 231 512 231 512 231 385 c 256,20,21
 231 258 231 258 281 176 c 0,22,23
 342 74 342 74 465 74 c 0,24,25
 586 74 586 74 649 174 c 0,26,27
 700 256 700 256 700 381 c 0,28,29
 700 694 700 694 465 694 c 0,16,17
EndSplineSet
EndChar

StartChar: p
Encoding: 112 112 84
Width: 804
GlyphClass: 2
Flags: W
LayerCount: 2
Fore
SplineSet
483 -16 m 0,0,1
 342 -16 342 -16 233 115 c 1,2,-1
 233 -301 l 1,3,-1
 125 -301 l 1,4,-1
 125 768 l 1,5,-1
 221 768 l 1,6,-1
 221 629 l 1,7,8
 326 788 326 788 481 788 c 0,9,10
 649 788 649 788 735 664 c 1,11,12
 809 553 809 553 809 379 c 0,13,14
 809 213 809 213 731 106 c 1,15,16
 645 -16 645 -16 483 -16 c 0,0,1
461 694 m 0,17,18
 344 694 344 694 283 590 c 0,19,20
 233 506 233 506 233 387 c 0,21,22
 233 199 233 199 340 121 c 1,23,24
 393 80 393 80 461 80 c 0,25,26
 580 80 580 80 643 180 c 1,27,28
 698 262 698 262 698 383 c 0,29,30
 698 506 698 506 647 590 c 0,31,32
 584 694 584 694 461 694 c 0,17,18
EndSplineSet
EndChar

StartChar: q
Encoding: 113 113 85
Width: 804
GlyphClass: 2
Flags: W
LayerCount: 2
Fore
SplineSet
700 -301 m 1,0,-1
 700 127 l 1,1,2
 600 -16 600 -16 449 -16 c 0,3,4
 283 -16 283 -16 197 102 c 0,5,6
 121 207 121 207 121 379 c 0,7,8
 121 610 121 610 254 719 c 0,9,10
 338 788 338 788 453 788 c 0,11,12
 610 788 610 788 715 645 c 1,13,-1
 715 768 l 1,14,-1
 807 768 l 1,15,-1
 807 -301 l 1,16,-1
 700 -301 l 1,0,-1
590 657 m 0,17,18
 537 694 537 694 471 694 c 0,19,20
 350 694 350 694 287 592 c 1,21,22
 231 508 231 508 231 387 c 0,23,24
 231 264 231 264 285 180 c 0,25,26
 350 80 350 80 471 80 c 0,27,28
 590 80 590 80 651 180 c 0,29,30
 700 262 700 262 700 383 c 0,31,32
 700 580 700 580 590 657 c 0,17,18
EndSplineSet
EndChar

StartChar: r
Encoding: 114 114 86
Width: 485
GlyphClass: 2
Flags: W
LayerCount: 2
Fore
SplineSet
233 399 m 2,0,-1
 233 0 l 1,1,-1
 123 0 l 1,2,-1
 123 766 l 1,3,-1
 223 766 l 1,4,-1
 223 600 l 1,5,6
 344 788 344 788 453 788 c 0,7,8
 469 788 469 788 494 786 c 1,9,-1
 494 676 l 1,10,11
 352 672 352 672 292.5 605.5 c 128,-1,12
 233 539 233 539 233 399 c 2,0,-1
EndSplineSet
EndChar

StartChar: s
Encoding: 115 115 87
Width: 729
GlyphClass: 2
Flags: W
LayerCount: 2
Fore
SplineSet
420 -20 m 0,0,1
 121 -20 121 -20 113 225 c 1,2,-1
 227 225 l 1,3,4
 252 74 252 74 430 74 c 0,5,6
 502 74 502 74 555 100 c 1,7,8
 623 135 623 135 623 205 c 0,9,10
 623 291 623 291 494 322 c 1,11,12
 330 360 330 360 301 371 c 0,13,14
 176 414 176 414 147 479 c 1,15,16
 133 514 133 514 133 563 c 0,17,18
 133 676 133 676 223 735 c 0,19,20
 303 788 303 788 426 788 c 0,21,22
 698 788 698 788 705 571 c 1,23,-1
 590 571 l 1,24,25
 580 694 580 694 422 694 c 0,26,27
 246 694 246 694 246 569 c 0,28,29
 246 485 246 485 408 446 c 1,30,31
 584 406 584 406 623 387 c 0,32,33
 735 332 735 332 735 215 c 0,34,35
 735 96 735 96 637 33 c 1,36,37
 551 -20 551 -20 420 -20 c 0,0,1
EndSplineSet
EndChar

StartChar: t
Encoding: 116 116 88
Width: 452
GlyphClass: 2
Flags: W
LayerCount: 2
Fore
SplineSet
356 -33 m 0,0,1
 211 -33 211 -33 211 80 c 2,2,-1
 211 680 l 1,3,-1
 100 680 l 1,4,-1
 100 764 l 1,5,-1
 211 764 l 1,6,-1
 211 979 l 1,7,-1
 319 979 l 1,8,-1
 319 764 l 1,9,-1
 453 764 l 1,10,-1
 453 680 l 1,11,-1
 319 680 l 1,12,-1
 319 135 l 2,13,14
 319 57 319 57 399 57 c 0,15,16
 432 57 432 57 453 59 c 1,17,-1
 453 -25 l 1,18,19
 397 -33 397 -33 356 -33 c 0,0,1
EndSplineSet
EndChar

StartChar: u
Encoding: 117 117 89
Width: 733
GlyphClass: 2
Flags: W
LayerCount: 2
Fore
SplineSet
641 -2 m 1,0,-1
 641 141 l 1,1,2
 522 -20 522 -20 367 -20 c 0,3,4
 260 -20 260 -20 195 29 c 0,5,6
 123 82 123 82 123 180 c 2,7,-1
 123 768 l 1,8,-1
 229 768 l 1,9,-1
 229 229 l 2,10,11
 229 154 229 154 277.5 111 c 128,-1,12
 326 68 326 68 403 68 c 0,13,14
 516 68 516 68 575 154 c 1,15,16
 629 225 629 225 629 338 c 2,17,-1
 629 768 l 1,18,-1
 735 768 l 1,19,-1
 735 -2 l 1,20,-1
 641 -2 l 1,0,-1
EndSplineSet
EndChar

StartChar: v
Encoding: 118 118 90
Width: 753
GlyphClass: 2
Flags: W
LayerCount: 2
Fore
SplineSet
494 0 m 1,0,-1
 371 0 l 1,1,-1
 100 768 l 1,2,-1
 221 768 l 1,3,-1
 438 111 l 1,4,-1
 668 768 l 1,5,-1
 788 768 l 1,6,-1
 494 0 l 1,0,-1
EndSplineSet
EndChar

StartChar: w
Encoding: 119 119 91
Width: 1073
GlyphClass: 2
Flags: W
LayerCount: 2
Fore
SplineSet
883 0 m 1,0,-1
 756 0 l 1,1,-1
 590 645 l 1,2,-1
 432 0 l 1,3,-1
 307 0 l 1,4,-1
 86 768 l 1,5,-1
 203 768 l 1,6,-1
 371 127 l 1,7,-1
 526 768 l 1,8,-1
 664 768 l 1,9,-1
 825 127 l 1,10,-1
 987 768 l 1,11,-1
 1108 768 l 1,12,-1
 883 0 l 1,0,-1
EndSplineSet
EndChar

StartChar: x
Encoding: 120 120 92
Width: 729
GlyphClass: 2
Flags: W
LayerCount: 2
Fore
SplineSet
623 0 m 1,0,-1
 420 309 l 1,1,-1
 215 0 l 1,2,-1
 94 0 l 1,3,-1
 367 391 l 1,4,-1
 111 768 l 1,5,-1
 229 768 l 1,6,-1
 424 475 l 1,7,-1
 621 768 l 1,8,-1
 737 768 l 1,9,-1
 479 397 l 1,10,-1
 745 0 l 1,11,-1
 623 0 l 1,0,-1
EndSplineSet
EndChar

StartChar: y
Encoding: 121 121 93
Width: 729
GlyphClass: 2
Flags: W
LayerCount: 2
Fore
SplineSet
414 -164 m 2,0,1
 356 -319 356 -319 219 -319 c 0,2,3
 178 -319 178 -319 143 -303 c 1,4,-1
 143 -209 l 1,5,6
 176 -215 176 -215 201 -215 c 0,7,8
 279 -215 279 -215 311 -133 c 2,9,-1
 360 -6 l 1,10,-1
 96 768 l 1,11,-1
 211 768 l 1,12,-1
 418 139 l 1,13,-1
 643 768 l 1,14,-1
 760 768 l 1,15,-1
 414 -164 l 2,0,1
EndSplineSet
EndChar

StartChar: z
Encoding: 122 122 94
Width: 729
GlyphClass: 2
Flags: W
LayerCount: 2
Fore
SplineSet
117 0 m 1,0,-1
 117 100 l 1,1,-1
 600 676 l 1,2,-1
 150 676 l 1,3,-1
 150 768 l 1,4,-1
 719 768 l 1,5,-1
 719 670 l 1,6,-1
 240 90 l 1,7,-1
 741 90 l 1,8,-1
 741 0 l 1,9,-1
 117 0 l 1,0,-1
EndSplineSet
EndChar

StartChar: braceleft
Encoding: 123 123 95
Width: 458
GlyphClass: 2
Flags: W
LayerCount: 2
Fore
SplineSet
395 -311 m 2,0,1
 238 -311 238 -311 238 -125 c 2,2,-1
 238 123 l 2,3,4
 238 266 238 266 178 307 c 1,5,6
 156 326 156 326 117 334 c 1,7,-1
 117 422 l 1,8,9
 197 440 197 440 221 508 c 1,10,11
 238 553 238 553 238 635 c 2,12,-1
 238 883 l 2,13,14
 238 1067 238 1067 395 1067 c 2,15,-1
 457 1067 l 1,16,-1
 457 989 l 1,17,18
 389 989 389 989 362.5 968.5 c 128,-1,19
 336 948 336 948 336 881 c 2,20,-1
 336 612 l 2,21,22
 336 520 336 520 311 471 c 1,23,24
 279 412 279 412 195 379 c 1,25,26
 336 317 336 317 336 145 c 2,27,-1
 336 -123 l 2,28,29
 336 -193 336 -193 367 -215 c 0,30,31
 391 -231 391 -231 457 -233 c 1,32,-1
 457 -311 l 1,33,-1
 395 -311 l 2,0,1
EndSplineSet
EndChar

StartChar: bar
Encoding: 124 124 96
Width: 317
GlyphClass: 2
Flags: W
LayerCount: 2
Fore
SplineSet
147 -311 m 1,0,-1
 147 1067 l 1,1,-1
 233 1067 l 1,2,-1
 233 -311 l 1,3,-1
 147 -311 l 1,0,-1
EndSplineSet
EndChar

StartChar: braceright
Encoding: 125 125 97
Width: 436
GlyphClass: 2
Flags: W
LayerCount: 2
Fore
SplineSet
283 123 m 2,0,-1
 283 -125 l 2,1,2
 283 -311 283 -311 123 -311 c 2,3,-1
 59 -311 l 1,4,-1
 59 -233 l 1,5,6
 129 -231 129 -231 152 -215 c 0,7,8
 182 -193 182 -193 182 -123 c 2,9,-1
 182 145 l 2,10,11
 182 317 182 317 324 377 c 1,12,13
 182 440 182 440 182 612 c 2,14,-1
 182 881 l 2,15,16
 182 948 182 948 154.5 968.5 c 128,-1,17
 127 989 127 989 59 989 c 1,18,-1
 59 1067 l 1,19,-1
 123 1067 l 2,20,21
 283 1067 283 1067 283 883 c 2,22,-1
 283 635 l 2,23,24
 283 492 283 492 342 449 c 0,25,26
 367 430 367 430 399 422 c 1,27,-1
 399 334 l 1,28,29
 326 317 326 317 299 252 c 1,30,31
 283 209 283 209 283 123 c 2,0,-1
EndSplineSet
EndChar

StartChar: asciitilde
Encoding: 126 126 98
Width: 784
GlyphClass: 2
Flags: W
LayerCount: 2
Fore
SplineSet
608 653 m 0,0,1
 547 653 547 653 471 702 c 1,2,3
 412 745 412 745 350 788 c 1,4,5
 305 815 305 815 272 815 c 0,6,7
 195 815 195 815 184 692 c 1,8,-1
 123 692 l 1,9,10
 137 901 137 901 276 901 c 0,11,12
 313 901 313 901 352 877 c 2,13,-1
 528 768 l 2,14,15
 573 739 573 739 608 739 c 0,16,17
 692 739 692 739 694 858 c 1,18,-1
 756 858 l 1,19,-1
 756 844 l 2,20,21
 756 762 756 762 721 711 c 0,22,23
 680 653 680 653 608 653 c 0,0,1
EndSplineSet
EndChar

StartChar: uni0D02
Encoding: 3330 3330 100
Width: 567
GlyphClass: 2
Flags: W
LayerCount: 2
Fore
SplineSet
590 225 m 0,0,1
 590 125 590 125 518 53.5 c 128,-1,2
 446 -18 446 -18 346 -18 c 256,3,4
 246 -18 246 -18 174 53.5 c 128,-1,5
 102 125 102 125 102 225 c 0,6,7
 102 326 102 326 174 397.5 c 128,-1,8
 246 469 246 469 346 469 c 256,9,10
 446 469 446 469 518 397.5 c 128,-1,11
 590 326 590 326 590 225 c 0,0,1
487 225 m 0,12,13
 487 285 487 285 445 326 c 128,-1,14
 403 367 403 367 346 367 c 0,15,16
 287 367 287 367 246 326 c 128,-1,17
 205 285 205 285 205 225 c 0,18,19
 205 166 205 166 246 125 c 128,-1,20
 287 84 287 84 346 84 c 0,21,22
 403 84 403 84 445 125 c 128,-1,23
 487 166 487 166 487 225 c 0,12,13
EndSplineSet
EndChar

StartChar: uni0D03
Encoding: 3331 3331 101
Width: 376
GlyphClass: 2
Flags: W
LayerCount: 2
Fore
SplineSet
385 596 m 256,0,1
 385 539 385 539 344 499 c 128,-1,2
 303 459 303 459 248 459 c 0,3,4
 190 459 190 459 149.5 499 c 128,-1,5
 109 539 109 539 109 596 c 256,6,7
 109 653 109 653 149.5 694 c 128,-1,8
 190 735 190 735 248 735 c 0,9,10
 303 735 303 735 344 694 c 128,-1,11
 385 653 385 653 385 596 c 256,0,1
299 596 m 256,12,13
 299 649 299 649 248 649 c 0,14,15
 195 649 195 649 195 596 c 256,16,17
 195 543 195 543 248 543 c 0,18,19
 299 543 299 543 299 596 c 256,12,13
385 170 m 0,20,21
 385 115 385 115 344 74 c 128,-1,22
 303 33 303 33 248 33 c 0,23,24
 190 33 190 33 149.5 74 c 128,-1,25
 109 115 109 115 109 170 c 0,26,27
 109 227 109 227 149.5 268 c 128,-1,28
 190 309 190 309 248 309 c 0,29,30
 303 309 303 309 344 268 c 128,-1,31
 385 227 385 227 385 170 c 0,20,21
299 170 m 0,32,33
 299 223 299 223 248 223 c 0,34,35
 195 223 195 223 195 170 c 0,36,37
 195 119 195 119 248 119 c 0,38,39
 299 119 299 119 299 170 c 0,32,33
EndSplineSet
EndChar

StartChar: uni0D05
Encoding: 3333 3333 102
Width: 1916
GlyphClass: 2
Flags: W
LayerCount: 2
Fore
SplineSet
1917 319 m 0,0,1
 1917 182 1917 182 1849 88 c 0,2,3
 1772 -18 1772 -18 1640 -18 c 0,4,5
 1516 -18 1516 -18 1440 70 c 1,6,7
 1366 152 1366 152 1366 279 c 0,8,9
 1366 403 1366 403 1443 496.5 c 128,-1,10
 1520 590 1520 590 1642 590 c 0,11,12
 1679 590 1679 590 1714 580 c 1,13,14
 1624 686 1624 686 1473 686 c 0,15,16
 1374 686 1374 686 1308.5 629.5 c 128,-1,17
 1243 573 1243 573 1243 477 c 2,18,-1
 1243 0 l 1,19,-1
 1130 0 l 1,20,-1
 1130 475 l 2,21,22
 1130 580 1130 580 1053 637 c 0,23,24
 983 688 983 688 879 684 c 1,25,-1
 856 684 l 1,26,27
 893 664 893 664 922.5 612.5 c 128,-1,28
 952 561 952 561 952 512 c 0,29,30
 952 393 952 393 846 362 c 1,31,32
 897 348 897 348 930 299 c 128,-1,33
 963 250 963 250 963 190 c 0,34,35
 963 98 963 98 893 40 c 128,-1,36
 823 -18 823 -18 727 -18 c 0,37,38
 582 -18 582 -18 496 92 c 0,39,40
 416 195 416 195 416 346 c 0,41,42
 416 551 416 551 584 684 c 1,43,44
 565 684 565 684 541 684 c 0,45,46
 403 684 403 684 315 588 c 128,-1,47
 227 492 227 492 227 352 c 0,48,49
 227 152 227 152 385 53 c 1,50,-1
 311 -20 l 1,51,52
 125 111 125 111 125 354 c 0,53,54
 125 530 125 530 251 657 c 128,-1,55
 377 784 377 784 555 784 c 0,56,57
 659 784 659 784 717 752 c 1,58,59
 776 784 776 784 883 784 c 0,60,61
 1110 784 1110 784 1190 668 c 1,62,63
 1260 784 1260 784 1483 784 c 0,64,65
 1667 784 1667 784 1792 644 c 128,-1,66
 1917 504 1917 504 1917 319 c 0,0,1
1815 285 m 0,67,68
 1815 379 1815 379 1776 461 c 1,69,70
 1724 494 1724 494 1645 494 c 0,71,72
 1563 494 1563 494 1515.5 431.5 c 128,-1,73
 1468 369 1468 369 1468 287 c 0,74,75
 1468 203 1468 203 1517.5 140.5 c 128,-1,76
 1567 78 1567 78 1649 78 c 0,77,78
 1729 78 1729 78 1774 143 c 0,79,80
 1815 203 1815 203 1815 285 c 0,67,68
850 199 m 0,81,82
 850 307 850 307 702 307 c 2,83,-1
 643 307 l 1,84,-1
 643 393 l 1,85,-1
 702 393 l 2,86,87
 760 393 760 393 800 424 c 128,-1,88
 840 455 840 455 840 512 c 0,89,90
 840 594 840 594 717 651 c 1,91,92
 516 555 516 555 516 344 c 0,93,94
 516 242 516 242 563 170 c 1,95,96
 618 88 618 88 715 88 c 0,97,98
 764 88 764 88 807 119 c 128,-1,99
 850 150 850 150 850 199 c 0,81,82
EndSplineSet
EndChar

StartChar: uni0D06
Encoding: 3334 3334 103
Width: 2142
GlyphClass: 2
Flags: W
LayerCount: 2
Fore
SplineSet
2144 170 m 0,0,1
 2144 -37 2144 -37 2024.5 -178 c 128,-1,2
 1905 -319 1905 -319 1718 -319 c 0,3,4
 1610 -319 1610 -319 1507 -252 c 1,5,-1
 1548 -166 l 1,6,7
 1628 -227 1628 -227 1716 -227 c 0,8,9
 1862 -227 1862 -227 1958 -109 c 0,10,11
 2050 4 2050 4 2050 164 c 0,12,13
 2050 281 2050 281 2001 371 c 1,14,15
 1946 469 1946 469 1849 498 c 1,16,17
 1888 424 1888 424 1888 319 c 0,18,19
 1888 176 1888 176 1829 88 c 0,20,21
 1761 -14 1761 -14 1628 -14 c 0,22,23
 1507 -14 1507 -14 1442.5 63.5 c 128,-1,24
 1378 141 1378 141 1378 272 c 0,25,26
 1378 414 1378 414 1460 508 c 128,-1,27
 1542 602 1542 602 1675 602 c 1,28,29
 1599 684 1599 684 1473 684 c 0,30,31
 1372 684 1372 684 1311 633 c 1,32,33
 1243 578 1243 578 1243 477 c 2,34,-1
 1243 0 l 1,35,-1
 1130 0 l 1,36,-1
 1130 475 l 2,37,38
 1130 578 1130 578 1065.5 631 c 128,-1,39
 1001 684 1001 684 899 684 c 0,40,41
 868 684 868 684 866 684 c 1,42,43
 952 612 952 612 952 512 c 0,44,45
 952 393 952 393 846 362 c 1,46,47
 899 348 899 348 931 299 c 128,-1,48
 963 250 963 250 963 190 c 0,49,50
 963 96 963 96 896 41 c 128,-1,51
 829 -14 829 -14 731 -14 c 0,52,53
 578 -14 578 -14 492 92 c 1,54,55
 416 188 416 188 416 346 c 0,56,57
 416 545 416 545 580 684 c 1,58,-1
 541 684 l 2,59,60
 406 684 406 684 314.5 586.5 c 128,-1,61
 223 489 223 489 223 352 c 0,62,63
 223 152 223 152 385 51 c 1,64,-1
 311 -20 l 1,65,66
 125 109 125 109 125 354 c 0,67,68
 125 530 125 530 250 658 c 128,-1,69
 375 786 375 786 551 786 c 0,70,71
 664 786 664 786 723 752 c 1,72,73
 782 786 782 786 883 786 c 0,74,75
 1094 786 1094 786 1190 668 c 1,76,77
 1276 786 1276 786 1468 786 c 0,78,79
 1698 786 1698 786 1802 604 c 1,80,81
 1964 586 1964 586 2054 468 c 128,-1,82
 2144 350 2144 350 2144 170 c 0,0,1
1788 295 m 0,83,84
 1788 424 1788 424 1737 510 c 1,85,86
 1718 512 1718 512 1700 512 c 0,87,88
 1599 512 1599 512 1539 444.5 c 128,-1,89
 1479 377 1479 377 1479 270 c 0,90,91
 1479 190 1479 190 1516 139 c 1,92,93
 1554 82 1554 82 1628 82 c 0,94,95
 1788 82 1788 82 1788 295 c 0,83,84
850 199 m 0,96,97
 850 270 850 270 776 293 c 1,98,99
 735 307 735 307 643 307 c 1,100,-1
 643 393 l 1,101,102
 840 393 840 393 840 512 c 0,103,104
 840 559 840 559 797 600 c 1,105,106
 762 635 762 635 723 647 c 1,107,108
 639 627 639 627 577.5 535.5 c 128,-1,109
 516 444 516 444 516 344 c 256,110,111
 516 244 516 244 563 172 c 0,112,113
 618 88 618 88 715 88 c 0,114,115
 764 88 764 88 807 119 c 128,-1,116
 850 150 850 150 850 199 c 0,96,97
EndSplineSet
EndChar

StartChar: uni0D07
Encoding: 3335 3335 104
Width: 1378
GlyphClass: 2
Flags: W
LayerCount: 2
Fore
SplineSet
1382 391 m 0,0,1
 1382 223 1382 223 1259.5 111.5 c 128,-1,2
 1137 0 1137 0 965 0 c 2,3,-1
 387 0 l 2,4,5
 336 0 336 0 301 -25 c 1,6,7
 258 -51 258 -51 258 -102 c 0,8,9
 258 -152 258 -152 299 -180 c 0,10,11
 334 -205 334 -205 385 -205 c 2,12,-1
 1366 -205 l 1,13,-1
 1366 -305 l 1,14,-1
 369 -305 l 2,15,16
 274 -305 274 -305 210.5 -250 c 128,-1,17
 147 -195 147 -195 147 -102 c 0,18,19
 147 -8 147 -8 210.5 43 c 128,-1,20
 274 94 274 94 369 94 c 2,21,-1
 940 94 l 2,22,23
 1071 94 1071 94 1166.5 178 c 128,-1,24
 1262 262 1262 262 1262 387 c 0,25,26
 1262 520 1262 520 1194 602 c 128,-1,27
 1126 684 1126 684 1014 684 c 0,28,29
 940 684 940 684 895 620.5 c 128,-1,30
 850 557 850 557 850 473 c 2,31,-1
 850 160 l 1,32,-1
 727 160 l 1,33,-1
 727 473 l 2,34,35
 727 565 727 565 647 627 c 0,36,37
 575 684 575 684 487 684 c 0,38,39
 383 684 383 684 311.5 634 c 128,-1,40
 240 584 240 584 229 489 c 0,41,42
 236 543 236 543 291 569 c 1,43,44
 336 592 336 592 391 592 c 0,45,46
 477 592 477 592 530.5 526.5 c 128,-1,47
 584 461 584 461 584 367 c 0,48,49
 584 266 584 266 518.5 204.5 c 128,-1,50
 453 143 453 143 358 143 c 0,51,52
 244 143 244 143 180 229 c 0,53,54
 123 307 123 307 123 432 c 0,55,56
 123 598 123 598 224.5 691 c 128,-1,57
 326 784 326 784 496 784 c 0,58,59
 702 784 702 784 786 655 c 1,60,61
 848 784 848 784 1020 784 c 256,62,63
 1192 784 1192 784 1290 674 c 1,64,65
 1382 567 1382 567 1382 391 c 0,0,1
479 360 m 0,66,67
 479 420 479 420 448.5 459 c 128,-1,68
 418 498 418 498 365 498 c 0,69,70
 315 498 315 498 278.5 462 c 128,-1,71
 242 426 242 426 242 375 c 0,72,73
 242 319 242 319 273.5 280.5 c 128,-1,74
 305 242 305 242 356 242 c 0,75,76
 410 242 410 242 444.5 273.5 c 128,-1,77
 479 305 479 305 479 360 c 0,66,67
EndSplineSet
EndChar

StartChar: uni0D08
Encoding: 3336 3336 105
Width: 2430
GlyphClass: 2
Flags: W
LayerCount: 2
Fore
SplineSet
2433 397 m 0,0,1
 2433 238 2433 238 2357 127 c 0,2,3
 2257 -18 2257 -18 2052 -18 c 0,4,5
 1909 -18 1909 -18 1827 63 c 0,6,7
 1757 131 1757 131 1757 217 c 1,8,-1
 1868 217 l 1,9,10
 1896 84 1896 84 2046 84 c 0,11,12
 2312 84 2312 84 2312 393 c 0,13,14
 2312 674 2312 674 2118 674 c 0,15,16
 2062 674 2062 674 2021 635 c 128,-1,17
 1980 596 1980 596 1980 535 c 2,18,-1
 1980 397 l 1,19,-1
 1858 395 l 1,20,-1
 1858 520 l 2,21,22
 1858 674 1858 674 1731 674 c 0,23,24
 1655 674 1655 674 1622 627 c 128,-1,25
 1589 580 1589 580 1589 467 c 0,26,27
 1589 449 1589 449 1593 379 c 1,28,-1
 1489 379 l 1,29,30
 1479 459 1479 459 1479 481 c 0,31,32
 1479 784 1479 784 1751 784 c 0,33,34
 1866 784 1866 784 1921 690 c 1,35,36
 1958 741 1958 741 1999 762 c 0,37,38
 2048 786 2048 786 2140 786 c 0,39,40
 2267 786 2267 786 2350 682 c 128,-1,41
 2433 578 2433 578 2433 397 c 0,0,1
1382 391 m 0,42,43
 1382 223 1382 223 1259.5 111.5 c 128,-1,44
 1137 0 1137 0 965 0 c 2,45,-1
 387 0 l 2,46,47
 336 0 336 0 301 -25 c 1,48,49
 258 -51 258 -51 258 -102 c 0,50,51
 258 -152 258 -152 299 -180 c 0,52,53
 334 -205 334 -205 385 -205 c 2,54,-1
 1366 -205 l 1,55,-1
 1366 -305 l 1,56,-1
 369 -305 l 2,57,58
 274 -305 274 -305 210.5 -250 c 128,-1,59
 147 -195 147 -195 147 -102 c 0,60,61
 147 -8 147 -8 210.5 43 c 128,-1,62
 274 94 274 94 369 94 c 2,63,-1
 940 94 l 2,64,65
 1071 94 1071 94 1166.5 178 c 128,-1,66
 1262 262 1262 262 1262 387 c 0,67,68
 1262 520 1262 520 1194 602 c 128,-1,69
 1126 684 1126 684 1014 684 c 0,70,71
 940 684 940 684 895 620.5 c 128,-1,72
 850 557 850 557 850 473 c 2,73,-1
 850 160 l 1,74,-1
 727 160 l 1,75,-1
 727 473 l 2,76,77
 727 565 727 565 647 627 c 0,78,79
 575 684 575 684 487 684 c 0,80,81
 383 684 383 684 311.5 634 c 128,-1,82
 240 584 240 584 229 489 c 0,83,84
 236 543 236 543 291 569 c 1,85,86
 336 592 336 592 391 592 c 0,87,88
 477 592 477 592 530.5 526.5 c 128,-1,89
 584 461 584 461 584 367 c 0,90,91
 584 266 584 266 518.5 204.5 c 128,-1,92
 453 143 453 143 358 143 c 0,93,94
 244 143 244 143 180 229 c 0,95,96
 123 307 123 307 123 432 c 0,97,98
 123 598 123 598 224.5 691 c 128,-1,99
 326 784 326 784 496 784 c 0,100,101
 702 784 702 784 786 655 c 1,102,103
 848 784 848 784 1020 784 c 256,104,105
 1192 784 1192 784 1290 674 c 1,106,107
 1382 567 1382 567 1382 391 c 0,42,43
479 360 m 0,108,109
 479 420 479 420 448.5 459 c 128,-1,110
 418 498 418 498 365 498 c 0,111,112
 315 498 315 498 278.5 462 c 128,-1,113
 242 426 242 426 242 375 c 0,114,115
 242 319 242 319 273.5 280.5 c 128,-1,116
 305 242 305 242 356 242 c 0,117,118
 410 242 410 242 444.5 273.5 c 128,-1,119
 479 305 479 305 479 360 c 0,108,109
EndSplineSet
EndChar

StartChar: uni0D09
Encoding: 3337 3337 106
Width: 1013
GlyphClass: 2
Flags: W
LayerCount: 2
Fore
SplineSet
1014 371 m 0,0,1
 1014 2 1014 2 618 2 c 2,2,-1
 383 2 l 2,3,4
 264 2 264 2 264 -96 c 0,5,6
 264 -145 264 -145 300 -173 c 128,-1,7
 336 -201 336 -201 383 -201 c 2,8,-1
 997 -201 l 1,9,-1
 997 -303 l 1,10,-1
 365 -303 l 2,11,12
 272 -303 272 -303 207.5 -245.5 c 128,-1,13
 143 -188 143 -188 143 -96 c 0,14,15
 143 -6 143 -6 206.5 44 c 128,-1,16
 270 94 270 94 365 94 c 2,17,-1
 594 94 l 2,18,19
 893 94 893 94 893 373 c 0,20,21
 893 528 893 528 782 612 c 1,22,23
 686 682 686 682 537 682 c 0,24,25
 440 682 440 682 365 643 c 1,26,27
 274 598 274 598 248 512 c 1,28,29
 293 586 293 586 393 586 c 0,30,31
 483 586 483 586 543.5 525.5 c 128,-1,32
 604 465 604 465 604 369 c 0,33,34
 604 266 604 266 536.5 205.5 c 128,-1,35
 469 145 469 145 371 145 c 0,36,37
 260 145 260 145 193.5 219 c 128,-1,38
 127 293 127 293 127 410 c 0,39,40
 127 590 127 590 250 690 c 1,41,42
 365 786 365 786 555 786 c 0,43,44
 750 786 750 786 872 688 c 1,45,46
 1014 578 1014 578 1014 371 c 0,0,1
483 369 m 0,47,48
 483 426 483 426 451.5 462 c 128,-1,49
 420 498 420 498 367 498 c 0,50,51
 313 498 313 498 278.5 462 c 128,-1,52
 244 426 244 426 244 371 c 0,53,54
 244 315 244 315 278.5 278.5 c 128,-1,55
 313 242 313 242 367 242 c 0,56,57
 418 242 418 242 450.5 277.5 c 128,-1,58
 483 313 483 313 483 369 c 0,47,48
EndSplineSet
EndChar

StartChar: uni0D0A
Encoding: 3338 3338 107
Width: 2074
GlyphClass: 2
Flags: W
LayerCount: 2
Fore
SplineSet
2075 397 m 0,0,1
 2075 238 2075 238 1999 127 c 1,2,3
 1898 -18 1898 -18 1694 -18 c 0,4,5
 1550 -18 1550 -18 1468 63 c 0,6,7
 1399 131 1399 131 1399 217 c 1,8,-1
 1509 217 l 1,9,10
 1538 84 1538 84 1688 84 c 0,11,12
 1954 84 1954 84 1954 393 c 0,13,14
 1954 674 1954 674 1759 674 c 0,15,16
 1704 674 1704 674 1663 635 c 128,-1,17
 1622 596 1622 596 1622 535 c 2,18,-1
 1622 397 l 1,19,-1
 1499 395 l 1,20,-1
 1499 520 l 2,21,22
 1499 674 1499 674 1372 674 c 0,23,24
 1296 674 1296 674 1263.5 627 c 128,-1,25
 1231 580 1231 580 1231 467 c 0,26,27
 1231 449 1231 449 1235 379 c 1,28,-1
 1130 379 l 1,29,30
 1120 459 1120 459 1120 481 c 0,31,32
 1120 784 1120 784 1393 784 c 0,33,34
 1507 784 1507 784 1563 690 c 1,35,36
 1599 741 1599 741 1640 762 c 1,37,38
 1690 786 1690 786 1782 786 c 0,39,40
 1909 786 1909 786 1992 682 c 128,-1,41
 2075 578 2075 578 2075 397 c 0,0,1
1014 371 m 0,42,43
 1014 0 1014 0 618 0 c 2,44,-1
 383 0 l 2,45,46
 264 0 264 0 264 -96 c 0,47,48
 264 -145 264 -145 300 -173 c 128,-1,49
 336 -201 336 -201 383 -201 c 2,50,-1
 997 -201 l 1,51,-1
 997 -303 l 1,52,-1
 365 -303 l 2,53,54
 272 -303 272 -303 207.5 -245.5 c 128,-1,55
 143 -188 143 -188 143 -96 c 0,56,57
 143 -6 143 -6 206.5 44 c 128,-1,58
 270 94 270 94 365 94 c 2,59,-1
 594 94 l 2,60,61
 893 94 893 94 893 373 c 0,62,63
 893 528 893 528 782 612 c 1,64,65
 686 682 686 682 537 682 c 0,66,67
 440 682 440 682 365 643 c 1,68,69
 274 598 274 598 248 512 c 1,70,71
 293 586 293 586 393 586 c 0,72,73
 483 586 483 586 543.5 525.5 c 128,-1,74
 604 465 604 465 604 369 c 0,75,76
 604 266 604 266 536.5 205.5 c 128,-1,77
 469 145 469 145 371 145 c 0,78,79
 260 145 260 145 193.5 219 c 128,-1,80
 127 293 127 293 127 410 c 0,81,82
 127 590 127 590 250 690 c 1,83,84
 365 786 365 786 555 786 c 0,85,86
 750 786 750 786 872 688 c 1,87,88
 1014 578 1014 578 1014 371 c 0,42,43
483 369 m 0,89,90
 483 426 483 426 451.5 462 c 128,-1,91
 420 498 420 498 367 498 c 0,92,93
 313 498 313 498 278.5 462 c 128,-1,94
 244 426 244 426 244 371 c 0,95,96
 244 315 244 315 278.5 278.5 c 128,-1,97
 313 242 313 242 367 242 c 0,98,99
 418 242 418 242 450.5 277.5 c 128,-1,100
 483 313 483 313 483 369 c 0,89,90
EndSplineSet
EndChar

StartChar: uni0D0B
Encoding: 3339 3339 108
Width: 1214
GlyphClass: 2
Flags: W
LayerCount: 2
Fore
SplineSet
1219 479 m 0,0,1
 1219 358 1219 358 1159 266 c 1,2,3
 1098 168 1098 168 997 156 c 1,4,-1
 997 145 l 1,5,6
 1192 111 1192 111 1192 -61 c 0,7,8
 1192 -207 1192 -207 1010 -274 c 1,9,10
 874 -326 874 -326 668 -326 c 0,11,12
 461 -326 461 -326 330 -274 c 1,13,14
 158 -209 158 -209 158 -61 c 0,15,16
 158 111 158 111 348 145 c 1,17,-1
 348 152 l 1,18,19
 233 174 233 174 176 270 c 1,20,21
 123 356 123 356 123 481 c 0,22,23
 123 610 123 610 186 692 c 1,24,25
 256 786 256 786 387 786 c 0,26,27
 483 786 483 786 546.5 721.5 c 128,-1,28
 610 657 610 657 610 557 c 0,29,30
 610 461 610 461 549.5 396.5 c 128,-1,31
 489 332 489 332 397 332 c 0,32,33
 342 332 342 332 293 364.5 c 128,-1,34
 244 397 244 397 227 451 c 1,35,36
 227 195 227 195 668 195 c 0,37,38
 1114 195 1114 195 1114 451 c 1,39,40
 1100 395 1100 395 1049.5 363.5 c 128,-1,41
 999 332 999 332 942 332 c 0,42,43
 852 332 852 332 793.5 398.5 c 128,-1,44
 735 465 735 465 735 559 c 0,45,46
 735 659 735 659 797.5 722.5 c 128,-1,47
 860 786 860 786 958 786 c 0,48,49
 1081 786 1081 786 1153 690 c 1,50,51
 1219 606 1219 606 1219 479 c 0,0,1
1077 561 m 256,52,53
 1077 612 1077 612 1044.5 647 c 128,-1,54
 1012 682 1012 682 954 682 c 0,55,56
 899 682 899 682 865 647 c 128,-1,57
 831 612 831 612 831 563 c 0,58,59
 831 512 831 512 866 472 c 128,-1,60
 901 432 901 432 954 432 c 0,61,62
 1012 432 1012 432 1044.5 471 c 128,-1,63
 1077 510 1077 510 1077 561 c 256,52,53
504 561 m 256,64,65
 504 612 504 612 472 647 c 128,-1,66
 440 682 440 682 383 682 c 0,67,68
 328 682 328 682 293 647 c 128,-1,69
 258 612 258 612 258 563 c 0,70,71
 258 512 258 512 293 472 c 128,-1,72
 328 432 328 432 383 432 c 256,73,74
 438 432 438 432 471 471 c 128,-1,75
 504 510 504 510 504 561 c 256,64,65
1073 -61 m 0,76,77
 1073 86 1073 86 668 86 c 0,78,79
 274 86 274 86 274 -61 c 0,80,81
 274 -215 274 -215 668 -215 c 0,82,83
 807 -215 807 -215 911 -190 c 0,84,85
 1073 -152 1073 -152 1073 -61 c 0,76,77
EndSplineSet
EndChar

StartChar: l1
Encoding: 3340 3340 109
Width: 1708
GlyphClass: 2
Flags: W
LayerCount: 2
Fore
SplineSet
1491 328 m 0,0,1
 1491 182 1491 182 1423 90 c 1,2,3
 1348 -14 1348 -14 1206 -14 c 0,4,5
 1094 -14 1094 -14 1024 51.5 c 128,-1,6
 954 117 954 117 954 229 c 0,7,8
 954 338 954 338 1022 412.5 c 128,-1,9
 1090 487 1090 487 1192 487 c 0,10,11
 1251 487 1251 487 1308.5 459.5 c 128,-1,12
 1366 432 1366 432 1384 383 c 1,13,14
 1376 506 1376 506 1288 594 c 128,-1,15
 1200 682 1200 682 1069 682 c 0,16,17
 981 682 981 682 922.5 632 c 128,-1,18
 864 582 864 582 864 494 c 2,19,-1
 864 0 l 1,20,-1
 752 0 l 1,21,-1
 752 494 l 2,22,23
 752 582 752 582 693.5 632 c 128,-1,24
 635 682 635 682 547 682 c 0,25,26
 416 682 416 682 328 594 c 128,-1,27
 240 506 240 506 231 383 c 1,28,29
 250 432 250 432 307.5 459.5 c 128,-1,30
 365 487 365 487 424 487 c 0,31,32
 526 487 526 487 594 412.5 c 128,-1,33
 662 338 662 338 662 229 c 0,34,35
 662 117 662 117 592 51.5 c 128,-1,36
 522 -14 522 -14 410 -14 c 0,37,38
 268 -14 268 -14 193 90 c 1,39,40
 125 182 125 182 125 328 c 0,41,42
 125 512 125 512 233 645 c 0,43,44
 350 788 350 788 530 786 c 1,45,46
 717 786 717 786 807 670 c 1,47,48
 899 786 899 786 1085 786 c 1,49,50
 1266 788 1266 788 1382 645 c 0,51,52
 1491 512 1491 512 1491 328 c 0,0,1
1356 227 m 0,53,54
 1356 287 1356 287 1312 330 c 128,-1,55
 1268 373 1268 373 1210 373 c 0,56,57
 1153 373 1153 373 1112 329 c 128,-1,58
 1071 285 1071 285 1071 225 c 0,59,60
 1071 166 1071 166 1111 126 c 128,-1,61
 1151 86 1151 86 1210 86 c 0,62,63
 1270 86 1270 86 1313 127 c 128,-1,64
 1356 168 1356 168 1356 227 c 0,53,54
545 225 m 0,65,66
 545 285 545 285 504 329 c 128,-1,67
 463 373 463 373 406 373 c 0,68,69
 348 373 348 373 304 330 c 128,-1,70
 260 287 260 287 260 227 c 0,71,72
 260 168 260 168 303 127 c 128,-1,73
 346 86 346 86 406 86 c 0,74,75
 465 86 465 86 505 126 c 128,-1,76
 545 166 545 166 545 225 c 0,65,66
EndSplineSet
EndChar

StartChar: uni0D0E
Encoding: 3342 3342 110
Width: 1695
GlyphClass: 2
Flags: W
LayerCount: 2
Fore
SplineSet
1694 201 m 0,0,1
 1694 -115 1694 -115 1501 -311 c 1,2,-1
 1427 -240 l 1,3,4
 1513 -139 1513 -139 1548 -35 c 1,5,6
 1581 59 1581 59 1581 201 c 0,7,8
 1581 684 1581 684 1288 684 c 0,9,10
 1141 684 1141 684 1062 556 c 128,-1,11
 983 428 983 428 983 190 c 0,12,13
 983 104 983 104 985 92 c 1,14,-1
 1217 92 l 1,15,-1
 1217 524 l 1,16,-1
 1331 524 l 1,17,-1
 1331 -63 l 2,18,19
 1331 -160 1331 -160 1274 -229 c 0,20,21
 1210 -307 1210 -307 1114 -307 c 0,22,23
 1004 -307 1004 -307 938 -201 c 1,24,25
 887 -121 887 -121 870 0 c 1,26,-1
 522 0 l 1,27,-1
 522 59 l 1,28,29
 629 109 629 109 629 238 c 0,30,31
 629 317 629 317 569.5 372.5 c 128,-1,32
 510 428 510 428 426 428 c 0,33,34
 344 428 344 428 283.5 375 c 128,-1,35
 223 322 223 322 223 242 c 0,36,37
 223 102 223 102 348 59 c 1,38,-1
 281 -6 l 1,39,40
 125 72 125 72 125 242 c 0,41,42
 125 367 125 367 207 446.5 c 128,-1,43
 289 526 289 526 428 526 c 256,44,45
 567 526 567 526 650 446.5 c 128,-1,46
 733 367 733 367 733 242 c 0,47,48
 733 143 733 143 688 92 c 1,49,-1
 868 92 l 1,50,-1
 868 190 l 2,51,52
 868 459 868 459 965 614 c 0,53,54
 1073 788 1073 788 1288 788 c 0,55,56
 1694 788 1694 788 1694 201 c 0,0,1
1217 -86 m 2,57,-1
 1217 0 l 1,58,-1
 995 0 l 1,59,60
 1010 -199 1010 -199 1120 -199 c 0,61,62
 1163 -199 1163 -199 1190 -165 c 128,-1,63
 1217 -131 1217 -131 1217 -86 c 2,57,-1
EndSplineSet
EndChar

StartChar: uni0D0F
Encoding: 3343 3343 111
Width: 1734
GlyphClass: 2
Flags: W
LayerCount: 2
Fore
SplineSet
1735 -41 m 0,0,1
 1735 -303 1735 -303 1507 -303 c 0,2,3
 1485 -303 1485 -303 1423 -285 c 1,4,-1
 1423 -168 l 1,5,6
 1454 -195 1454 -195 1493 -195 c 0,7,8
 1630 -195 1630 -195 1630 -41 c 0,9,10
 1630 29 1630 29 1590 79 c 128,-1,11
 1550 129 1550 129 1479 129 c 2,12,-1
 1434 129 l 1,13,-1
 1434 244 l 1,14,-1
 1479 244 l 2,15,16
 1538 244 1538 244 1585 313 c 1,17,18
 1630 377 1630 377 1630 440 c 0,19,20
 1630 557 1630 557 1542 623 c 1,21,22
 1460 682 1460 682 1329 682 c 0,23,24
 1147 682 1147 682 1055 518 c 1,25,26
 979 385 979 385 979 190 c 0,27,28
 979 86 979 86 977 92 c 1,29,-1
 1219 92 l 1,30,-1
 1219 524 l 1,31,-1
 1329 524 l 1,32,-1
 1329 -80 l 2,33,34
 1329 -178 1329 -178 1266.5 -245.5 c 128,-1,35
 1204 -313 1204 -313 1116 -313 c 0,36,37
 913 -313 913 -313 874 0 c 1,38,-1
 522 0 l 1,39,-1
 522 66 l 1,40,41
 629 115 629 115 629 238 c 0,42,43
 629 317 629 317 567.5 372.5 c 128,-1,44
 506 428 506 428 426 428 c 0,45,46
 344 428 344 428 283.5 375 c 128,-1,47
 223 322 223 322 223 242 c 0,48,49
 223 106 223 106 346 61 c 1,50,-1
 274 -14 l 1,51,52
 125 68 125 68 125 242 c 0,53,54
 125 362 125 362 215 444 c 128,-1,55
 305 526 305 526 428 526 c 0,56,57
 549 526 549 526 640 444 c 128,-1,58
 731 362 731 362 731 242 c 0,59,60
 731 143 731 143 688 92 c 1,61,-1
 870 92 l 1,62,-1
 870 190 l 2,63,64
 870 432 870 432 975 594 c 1,65,66
 1098 786 1098 786 1331 786 c 0,67,68
 1516 786 1516 786 1625.5 693 c 128,-1,69
 1735 600 1735 600 1735 436 c 0,70,71
 1735 367 1735 367 1708 299 c 1,72,73
 1677 225 1677 225 1628 195 c 1,74,75
 1735 119 1735 119 1735 -41 c 0,0,1
1217 -90 m 2,76,-1
 1217 0 l 1,77,-1
 989 0 l 1,78,79
 1006 -203 1006 -203 1116 -203 c 0,80,81
 1159 -203 1159 -203 1188 -169 c 128,-1,82
 1217 -135 1217 -135 1217 -90 c 2,76,-1
EndSplineSet
EndChar

StartChar: uni0D10
Encoding: 3344 3344 112
Width: 2674
GlyphClass: 2
Flags: W
LayerCount: 2
Fore
SplineSet
2677 201 m 0,0,1
 2677 -115 2677 -115 2484 -311 c 1,2,-1
 2410 -240 l 1,3,4
 2497 -139 2497 -139 2531 -35 c 1,5,6
 2564 59 2564 59 2564 201 c 0,7,8
 2564 684 2564 684 2271 684 c 0,9,10
 2124 684 2124 684 2045 556 c 128,-1,11
 1966 428 1966 428 1966 190 c 0,12,13
 1966 104 1966 104 1968 92 c 1,14,-1
 2200 92 l 1,15,-1
 2200 524 l 1,16,-1
 2314 524 l 1,17,-1
 2314 -63 l 2,18,19
 2314 -160 2314 -160 2257 -229 c 0,20,21
 2193 -307 2193 -307 2097 -307 c 0,22,23
 1987 -307 1987 -307 1921 -201 c 1,24,25
 1870 -121 1870 -121 1853 0 c 1,26,-1
 1505 0 l 1,27,-1
 1505 59 l 1,28,29
 1612 109 1612 109 1612 238 c 0,30,31
 1612 317 1612 317 1552.5 372.5 c 128,-1,32
 1493 428 1493 428 1409 428 c 0,33,34
 1327 428 1327 428 1266.5 375 c 128,-1,35
 1206 322 1206 322 1206 242 c 0,36,37
 1206 102 1206 102 1331 59 c 1,38,-1
 1264 -6 l 1,39,40
 1108 72 1108 72 1108 242 c 0,41,42
 1108 367 1108 367 1190 446.5 c 128,-1,43
 1272 526 1272 526 1411 526 c 256,44,45
 1550 526 1550 526 1633 446.5 c 128,-1,46
 1716 367 1716 367 1716 242 c 0,47,48
 1716 143 1716 143 1671 92 c 1,49,-1
 1851 92 l 1,50,-1
 1851 190 l 2,51,52
 1851 459 1851 459 1948 614 c 0,53,54
 2056 788 2056 788 2271 788 c 0,55,56
 2677 788 2677 788 2677 201 c 0,0,1
2200 -86 m 2,57,-1
 2200 0 l 1,58,-1
 1978 0 l 1,59,60
 1993 -199 1993 -199 2103 -199 c 0,61,62
 2146 -199 2146 -199 2173 -165 c 128,-1,63
 2200 -131 2200 -131 2200 -86 c 2,57,-1
1006 356 m 0,64,65
 1006 104 1006 104 770 -14 c 1,66,-1
 711 68 l 1,67,68
 889 158 889 158 889 356 c 0,69,70
 889 496 889 496 801 590 c 128,-1,71
 713 684 713 684 565 684 c 0,72,73
 420 684 420 684 330 594 c 128,-1,74
 240 504 240 504 231 365 c 1,75,76
 248 416 248 416 309 444 c 1,77,78
 362 471 362 471 424 471 c 0,79,80
 530 471 530 471 602 401.5 c 128,-1,81
 674 332 674 332 674 229 c 0,82,83
 674 121 674 121 600 53.5 c 128,-1,84
 526 -14 526 -14 410 -14 c 0,85,86
 264 -14 264 -14 188 94 c 1,87,88
 125 186 125 186 125 328 c 0,89,90
 125 522 125 522 245 653 c 128,-1,91
 365 784 365 784 569 784 c 0,92,93
 766 784 766 784 886 662.5 c 128,-1,94
 1006 541 1006 541 1006 356 c 0,64,65
545 225 m 0,95,96
 545 285 545 285 506 329 c 128,-1,97
 467 373 467 373 406 373 c 0,98,99
 344 373 344 373 302 330 c 128,-1,100
 260 287 260 287 260 227 c 0,101,102
 260 170 260 170 302 128 c 128,-1,103
 344 86 344 86 406 86 c 0,104,105
 467 86 467 86 506 127 c 128,-1,106
 545 168 545 168 545 225 c 0,95,96
EndSplineSet
EndChar

StartChar: uni0D12
Encoding: 3346 3346 113
Width: 999
GlyphClass: 2
Flags: W
LayerCount: 2
Fore
SplineSet
1006 184 m 0,0,1
 1006 90 1006 90 947.5 36 c 128,-1,2
 889 -18 889 -18 793 -18 c 0,3,4
 739 -18 739 -18 686 -2 c 1,5,-1
 686 102 l 1,6,7
 725 76 725 76 774 76 c 0,8,9
 895 76 895 76 895 190 c 0,10,11
 895 244 895 244 861 283 c 128,-1,12
 827 322 827 322 776 322 c 2,13,-1
 688 322 l 1,14,-1
 688 434 l 1,15,-1
 766 434 l 2,16,17
 815 434 815 434 853 460.5 c 128,-1,18
 891 487 891 487 891 535 c 0,19,20
 891 682 891 682 596 682 c 0,21,22
 438 682 438 682 338 606 c 128,-1,23
 238 530 238 530 231 393 c 1,24,25
 287 461 287 461 383 461 c 0,26,27
 483 461 483 461 544.5 394.5 c 128,-1,28
 606 328 606 328 606 225 c 0,29,30
 606 123 606 123 539.5 52.5 c 128,-1,31
 473 -18 473 -18 369 -18 c 0,32,33
 248 -18 248 -18 178 94 c 1,34,35
 121 190 121 190 121 322 c 0,36,37
 121 551 121 551 252 669.5 c 128,-1,38
 383 788 383 788 621 788 c 0,39,40
 872 788 872 788 965 651 c 1,41,42
 1001 596 1001 596 1001 535 c 0,43,44
 1001 418 1001 418 903 381 c 1,45,46
 1006 338 1006 338 1006 184 c 0,0,1
494 221 m 0,47,48
 494 283 494 283 463 324 c 1,49,50
 426 371 426 371 369 371 c 0,51,52
 309 371 309 371 275.5 330 c 128,-1,53
 242 289 242 289 242 229 c 0,54,55
 242 166 242 166 277.5 121 c 128,-1,56
 313 76 313 76 373 76 c 0,57,58
 430 76 430 76 462 120 c 128,-1,59
 494 164 494 164 494 221 c 0,47,48
EndSplineSet
EndChar

StartChar: uni0D13
Encoding: 3347 3347 114
Width: 1679
GlyphClass: 2
Flags: W
LayerCount: 2
Fore
SplineSet
1683 395 m 0,0,1
 1683 217 1683 217 1616 109 c 1,2,3
 1534 -18 1534 -18 1376 -18 c 0,4,5
 1249 -18 1249 -18 1178 55 c 1,6,7
 1100 137 1100 137 1100 289 c 1,8,-1
 1210 289 l 1,9,10
 1206 209 1206 209 1254.5 147.5 c 128,-1,11
 1303 86 1303 86 1376 86 c 0,12,13
 1569 86 1569 86 1569 395 c 0,14,15
 1569 684 1569 684 1386 684 c 0,16,17
 1303 684 1303 684 1255.5 627.5 c 128,-1,18
 1208 571 1208 571 1208 489 c 1,19,-1
 1098 489 l 1,20,21
 1100 616 1100 616 1171 696 c 1,22,23
 1247 784 1247 784 1380 784 c 0,24,25
 1534 784 1534 784 1614 666 c 1,26,27
 1683 561 1683 561 1683 395 c 0,0,1
1006 184 m 0,28,29
 1006 90 1006 90 947.5 36 c 128,-1,30
 889 -18 889 -18 793 -18 c 0,31,32
 739 -18 739 -18 686 -2 c 1,33,-1
 686 102 l 1,34,35
 711 86 711 86 774 86 c 0,36,37
 895 86 895 86 895 190 c 0,38,39
 895 244 895 244 861 283 c 128,-1,40
 827 322 827 322 776 322 c 2,41,-1
 688 322 l 1,42,-1
 688 434 l 1,43,-1
 766 434 l 2,44,45
 815 434 815 434 853 460.5 c 128,-1,46
 891 487 891 487 891 535 c 0,47,48
 891 682 891 682 596 682 c 0,49,50
 440 682 440 682 335.5 600 c 128,-1,51
 231 518 231 518 225 383 c 1,52,53
 289 461 289 461 383 461 c 0,54,55
 483 461 483 461 544.5 394.5 c 128,-1,56
 606 328 606 328 606 225 c 0,57,58
 606 123 606 123 541.5 52.5 c 128,-1,59
 477 -18 477 -18 375 -18 c 0,60,61
 252 -18 252 -18 182 94 c 0,62,63
 121 193 121 193 121 322 c 0,64,65
 121 551 121 551 252 669.5 c 128,-1,66
 383 788 383 788 621 788 c 0,67,68
 872 788 872 788 965 651 c 1,69,70
 1001 596 1001 596 1001 535 c 0,71,72
 1001 418 1001 418 903 381 c 1,73,74
 1006 338 1006 338 1006 184 c 0,28,29
494 221 m 0,75,76
 494 283 494 283 463 324 c 1,77,78
 426 371 426 371 369 371 c 0,79,80
 309 371 309 371 275.5 330 c 128,-1,81
 242 289 242 289 242 229 c 0,82,83
 242 166 242 166 277.5 121 c 128,-1,84
 313 76 313 76 373 76 c 0,85,86
 430 76 430 76 462 120 c 128,-1,87
 494 164 494 164 494 221 c 0,75,76
EndSplineSet
EndChar

StartChar: uni0D14
Encoding: 3348 3348 115
Width: 2058
GlyphClass: 2
Flags: W
LayerCount: 2
Fore
SplineSet
2056 397 m 0,0,1
 2056 238 2056 238 1980 127 c 0,2,3
 1880 -18 1880 -18 1675 -18 c 0,4,5
 1532 -18 1532 -18 1450 63 c 0,6,7
 1380 131 1380 131 1380 217 c 1,8,-1
 1491 217 l 1,9,10
 1520 84 1520 84 1669 84 c 0,11,12
 1935 84 1935 84 1935 393 c 0,13,14
 1935 674 1935 674 1741 674 c 0,15,16
 1686 674 1686 674 1645 635 c 128,-1,17
 1604 596 1604 596 1604 535 c 2,18,-1
 1604 397 l 1,19,-1
 1481 395 l 1,20,-1
 1481 520 l 2,21,22
 1481 674 1481 674 1354 674 c 0,23,24
 1278 674 1278 674 1245 627 c 128,-1,25
 1212 580 1212 580 1212 467 c 0,26,27
 1212 449 1212 449 1217 379 c 1,28,-1
 1112 379 l 1,29,30
 1102 459 1102 459 1102 481 c 0,31,32
 1102 784 1102 784 1374 784 c 0,33,34
 1489 784 1489 784 1544 690 c 1,35,36
 1581 741 1581 741 1622 762 c 0,37,38
 1671 786 1671 786 1763 786 c 0,39,40
 1890 786 1890 786 1973 682 c 128,-1,41
 2056 578 2056 578 2056 397 c 0,0,1
1006 184 m 0,42,43
 1006 90 1006 90 947.5 36 c 128,-1,44
 889 -18 889 -18 793 -18 c 0,45,46
 739 -18 739 -18 686 -2 c 1,47,-1
 686 102 l 1,48,49
 725 76 725 76 774 76 c 0,50,51
 895 76 895 76 895 190 c 0,52,53
 895 244 895 244 861 283 c 128,-1,54
 827 322 827 322 776 322 c 2,55,-1
 688 322 l 1,56,-1
 688 434 l 1,57,-1
 766 434 l 2,58,59
 815 434 815 434 853 460.5 c 128,-1,60
 891 487 891 487 891 535 c 0,61,62
 891 682 891 682 596 682 c 0,63,64
 440 682 440 682 335.5 600 c 128,-1,65
 231 518 231 518 225 383 c 1,66,67
 289 461 289 461 383 461 c 0,68,69
 483 461 483 461 544.5 394.5 c 128,-1,70
 606 328 606 328 606 225 c 0,71,72
 606 123 606 123 541.5 52.5 c 128,-1,73
 477 -18 477 -18 375 -18 c 0,74,75
 252 -18 252 -18 182 94 c 0,76,77
 121 193 121 193 121 322 c 0,78,79
 121 551 121 551 252 669.5 c 128,-1,80
 383 788 383 788 621 788 c 0,81,82
 872 788 872 788 965 651 c 1,83,84
 1001 596 1001 596 1001 535 c 0,85,86
 1001 418 1001 418 903 381 c 1,87,88
 1006 338 1006 338 1006 184 c 0,42,43
494 221 m 0,89,90
 494 283 494 283 463 324 c 1,91,92
 426 371 426 371 369 371 c 0,93,94
 309 371 309 371 275.5 330 c 128,-1,95
 242 289 242 289 242 229 c 0,96,97
 242 166 242 166 277.5 121 c 128,-1,98
 313 76 313 76 373 76 c 0,99,100
 430 76 430 76 462 120 c 128,-1,101
 494 164 494 164 494 221 c 0,89,90
EndSplineSet
EndChar

StartChar: k1
Encoding: 3349 3349 116
Width: 1341
GlyphClass: 2
Flags: W
LayerCount: 2
Fore
SplineSet
1343 236 m 0,0,1
 1343 119 1343 119 1283 49.5 c 128,-1,2
 1223 -20 1223 -20 1110 -20 c 0,3,4
 1063 -20 1063 -20 1026 -6 c 1,5,-1
 1026 98 l 1,6,7
 1059 78 1059 78 1094 78 c 0,8,9
 1231 78 1231 78 1231 233 c 0,10,11
 1231 365 1231 365 1069 365 c 2,12,-1
 1008 365 l 1,13,-1
 1008 330 l 2,14,15
 1008 -20 1008 -20 733 -20 c 0,16,17
 565 -20 565 -20 512 94 c 1,18,19
 475 -20 475 -20 340 -20 c 0,20,21
 233 -20 233 -20 176 57 c 0,22,23
 125 127 125 127 125 229 c 0,24,25
 125 336 125 336 197.5 401.5 c 128,-1,26
 270 467 270 467 375 467 c 2,27,-1
 453 467 l 1,28,-1
 453 502 l 2,29,30
 453 623 453 623 531.5 704.5 c 128,-1,31
 610 786 610 786 739 786 c 0,32,33
 858 786 858 786 933 703.5 c 128,-1,34
 1008 621 1008 621 1008 502 c 2,35,-1
 1008 467 l 1,36,-1
 1085 467 l 2,37,38
 1194 467 1194 467 1266 410 c 1,39,40
 1343 346 1343 346 1343 236 c 0,0,1
895 467 m 1,41,-1
 895 498 l 2,42,43
 895 573 895 573 848 628.5 c 128,-1,44
 801 684 801 684 727 684 c 256,45,46
 653 684 653 684 607 627.5 c 128,-1,47
 561 571 561 571 561 494 c 2,48,-1
 561 467 l 1,49,-1
 895 467 l 1,41,-1
895 336 m 2,50,-1
 895 365 l 1,51,-1
 561 365 l 1,52,-1
 561 334 l 2,53,54
 561 76 561 76 729 76 c 0,55,56
 895 76 895 76 895 336 c 2,50,-1
459 209 m 1,57,-1
 453 332 l 1,58,-1
 453 365 l 1,59,-1
 399 365 l 2,60,61
 225 365 225 365 225 231 c 0,62,63
 225 172 225 172 254 129 c 0,64,65
 287 78 287 78 348 78 c 0,66,67
 397 78 397 78 430 118 c 128,-1,68
 463 158 463 158 459 209 c 1,57,-1
EndSplineSet
EndChar

StartChar: k2
Encoding: 3350 3350 117
Width: 1280
GlyphClass: 2
Flags: W
LayerCount: 2
Fore
SplineSet
1282 0 m 1,0,-1
 727 0 l 1,1,-1
 727 82 l 1,2,3
 852 162 852 162 852 352 c 0,4,5
 852 494 852 494 774 586 c 1,6,7
 692 686 692 686 553 686 c 0,8,9
 408 686 408 686 311 580 c 0,10,11
 223 483 223 483 229 365 c 1,12,13
 272 465 272 465 391 465 c 0,14,15
 492 465 492 465 553 394.5 c 128,-1,16
 614 324 614 324 614 221 c 0,17,18
 614 119 614 119 554 50.5 c 128,-1,19
 494 -18 494 -18 393 -18 c 0,20,21
 254 -18 254 -18 182 88 c 1,22,23
 123 178 123 178 123 315 c 0,24,25
 123 516 123 516 238 647 c 1,26,27
 360 784 360 784 557 784 c 0,28,29
 741 784 741 784 856 658 c 128,-1,30
 971 532 971 532 971 348 c 0,31,32
 971 182 971 182 883 92 c 1,33,-1
 1169 92 l 1,34,-1
 1169 766 l 1,35,-1
 1282 766 l 1,36,-1
 1282 0 l 1,0,-1
512 221 m 0,37,38
 512 279 512 279 478 322 c 128,-1,39
 444 365 444 365 385 365 c 0,40,41
 328 365 328 365 293 322 c 128,-1,42
 258 279 258 279 258 219 c 0,43,44
 258 162 258 162 293 119 c 128,-1,45
 328 76 328 76 385 76 c 0,46,47
 444 76 444 76 478 119 c 128,-1,48
 512 162 512 162 512 221 c 0,37,38
EndSplineSet
EndChar

StartChar: k3
Encoding: 3351 3351 118
Width: 1280
GlyphClass: 2
Flags: W
LayerCount: 2
Fore
SplineSet
1282 371 m 0,0,1
 1282 102 1282 102 1051 -18 c 1,2,-1
 977 53 l 1,3,4
 1178 141 1178 141 1178 385 c 0,5,6
 1178 506 1178 506 1120 588 c 1,7,8
 1055 682 1055 682 940 682 c 0,9,10
 766 682 766 682 766 406 c 2,11,-1
 766 293 l 2,12,13
 766 160 766 160 686 74 c 1,14,15
 602 -18 602 -18 463 -18 c 0,16,17
 305 -18 305 -18 211 104 c 0,18,19
 125 215 125 215 125 377 c 0,20,21
 125 674 125 674 358 791 c 1,22,-1
 428 721 l 1,23,24
 238 627 238 627 238 393 c 0,25,26
 238 279 238 279 295 188 c 0,27,28
 358 86 358 86 467 86 c 0,29,30
 655 86 655 86 655 346 c 1,31,-1
 653 479 l 1,32,33
 653 606 653 606 731 695 c 128,-1,34
 809 784 809 784 938 784 c 0,35,36
 1112 784 1112 784 1202 655 c 1,37,38
 1282 543 1282 543 1282 371 c 0,0,1
EndSplineSet
EndChar

StartChar: k4
Encoding: 3352 3352 119
Width: 1894
GlyphClass: 2
Flags: W
LayerCount: 2
Fore
SplineSet
1892 0 m 1,0,-1
 868 0 l 1,1,-1
 868 262 l 1,2,3
 821 260 821 260 795 260 c 0,4,5
 750 260 750 260 657 262 c 1,6,7
 567 262 567 262 522 262 c 1,8,-1
 522 319 l 1,9,10
 629 369 629 369 629 498 c 0,11,12
 629 578 629 578 568.5 631 c 128,-1,13
 508 684 508 684 426 684 c 256,14,15
 344 684 344 684 283.5 633 c 128,-1,16
 223 582 223 582 223 502 c 0,17,18
 223 387 223 387 326 338 c 1,19,-1
 279 254 l 1,20,21
 125 330 125 330 125 502 c 0,22,23
 125 623 125 623 215 704.5 c 128,-1,24
 305 786 305 786 428 786 c 0,25,26
 549 786 549 786 640 704.5 c 128,-1,27
 731 623 731 623 731 502 c 0,28,29
 731 401 731 401 688 354 c 1,30,-1
 868 354 l 1,31,-1
 868 465 l 2,32,33
 868 612 868 612 975 702 c 0,34,35
 1075 786 1075 786 1227 786 c 0,36,37
 1380 786 1380 786 1477 702 c 1,38,39
 1577 612 1577 612 1577 465 c 2,40,-1
 1577 262 l 1,41,-1
 987 262 l 1,42,-1
 987 92 l 1,43,-1
 1780 92 l 1,44,-1
 1780 766 l 1,45,-1
 1892 766 l 1,46,-1
 1892 0 l 1,0,-1
1462 354 m 1,47,-1
 1462 434 l 2,48,49
 1462 545 1462 545 1400.5 614.5 c 128,-1,50
 1339 684 1339 684 1229 684 c 0,51,52
 1118 684 1118 684 1053.5 614.5 c 128,-1,53
 989 545 989 545 989 434 c 2,54,-1
 989 354 l 1,55,-1
 1462 354 l 1,47,-1
EndSplineSet
EndChar

StartChar: ng
Encoding: 3353 3353 120
Width: 1413
GlyphClass: 2
Flags: W
LayerCount: 2
Fore
SplineSet
1411 207 m 0,0,1
 1411 106 1411 106 1337.5 44 c 128,-1,2
 1264 -18 1264 -18 1161 -18 c 0,3,4
 1075 -18 1075 -18 1001 2 c 1,5,-1
 1001 104 l 1,6,7
 1028 82 1028 82 1151 82 c 0,8,9
 1212 82 1212 82 1256 116 c 128,-1,10
 1300 150 1300 150 1300 213 c 0,11,12
 1300 338 1300 338 1143 338 c 2,13,-1
 1018 338 l 1,14,-1
 1018 438 l 1,15,-1
 1141 438 l 2,16,17
 1300 438 1300 438 1300 551 c 0,18,19
 1300 618 1300 618 1231 653 c 0,20,21
 1176 682 1176 682 1098 682 c 0,22,23
 1001 682 1001 682 932 643 c 1,24,25
 852 596 852 596 852 516 c 2,26,-1
 852 0 l 1,27,-1
 739 2 l 1,28,-1
 739 516 l 2,29,30
 739 592 739 592 668 639 c 0,31,32
 604 682 604 682 520 682 c 0,33,34
 381 682 381 682 297 578 c 1,35,36
 225 487 225 487 225 365 c 1,37,38
 260 463 260 463 395 463 c 0,39,40
 500 463 500 463 562.5 396.5 c 128,-1,41
 625 330 625 330 625 229 c 0,42,43
 625 125 625 125 556 53.5 c 128,-1,44
 487 -18 487 -18 377 -18 c 0,45,46
 244 -18 244 -18 176 98 c 0,47,48
 123 190 123 190 123 328 c 0,49,50
 123 516 123 516 219 641 c 0,51,52
 330 784 330 784 528 784 c 0,53,54
 698 784 698 784 799 674 c 1,55,56
 893 784 893 784 1096 784 c 0,57,58
 1214 784 1214 784 1305 729 c 0,59,60
 1411 666 1411 666 1411 555 c 0,61,62
 1411 500 1411 500 1382 457 c 0,63,64
 1350 408 1350 408 1298 393 c 1,65,66
 1411 356 1411 356 1411 207 c 0,0,1
508 221 m 0,67,68
 508 281 508 281 474 324 c 128,-1,69
 440 367 440 367 381 367 c 256,70,71
 322 367 322 367 286 325 c 128,-1,72
 250 283 250 283 250 225 c 0,73,74
 250 168 250 168 288 125 c 128,-1,75
 326 82 326 82 379 82 c 0,76,77
 434 82 434 82 471 124 c 128,-1,78
 508 166 508 166 508 221 c 0,67,68
EndSplineSet
EndChar

StartChar: ch1
Encoding: 3354 3354 121
Width: 1214
GlyphClass: 2
Flags: W
LayerCount: 2
Fore
SplineSet
1219 0 m 1,0,-1
 127 0 l 1,1,-1
 127 94 l 1,2,-1
 588 94 l 2,3,4
 657 94 657 94 708.5 145.5 c 128,-1,5
 760 197 760 197 760 260 c 0,6,7
 760 324 760 324 713 369 c 128,-1,8
 666 414 666 414 600 414 c 0,9,10
 535 414 535 414 486.5 369 c 128,-1,11
 438 324 438 324 438 258 c 0,12,13
 438 219 438 219 457 186 c 1,14,-1
 346 182 l 1,15,16
 336 217 336 217 334 258 c 1,17,18
 334 367 334 367 414 442.5 c 128,-1,19
 494 518 494 518 606 518 c 0,20,21
 713 518 713 518 789.5 442.5 c 128,-1,22
 866 367 866 367 866 260 c 0,23,24
 866 154 866 154 788 94 c 1,25,-1
 1106 94 l 1,26,-1
 1106 766 l 1,27,-1
 1219 766 l 1,28,-1
 1219 0 l 1,0,-1
EndSplineSet
EndChar

StartChar: ch2
Encoding: 3355 3355 122
Width: 1806
GlyphClass: 2
Flags: W
LayerCount: 2
Fore
SplineSet
1804 322 m 0,0,1
 1804 182 1804 182 1731 86 c 0,2,3
 1649 -20 1649 -20 1513 -20 c 0,4,5
 1399 -20 1399 -20 1322 69 c 128,-1,6
 1245 158 1245 158 1249 279 c 0,7,8
 1253 410 1253 410 1323 496 c 0,9,10
 1401 592 1401 592 1536 592 c 0,11,12
 1563 592 1563 592 1610 582 c 1,13,14
 1526 684 1526 684 1372 684 c 0,15,16
 1233 684 1233 684 1138.5 591 c 128,-1,17
 1044 498 1044 498 1042 358 c 1,18,19
 1036 180 1036 180 1141 94 c 0,20,21
 1159 78 1159 78 1208 70 c 1,22,-1
 1208 0 l 1,23,-1
 127 0 l 1,24,-1
 127 94 l 1,25,-1
 588 94 l 2,26,27
 657 94 657 94 710.5 144.5 c 128,-1,28
 764 195 764 195 764 260 c 0,29,30
 764 326 764 326 716 373 c 128,-1,31
 668 420 668 420 600 420 c 256,32,33
 532 420 532 420 482 373 c 128,-1,34
 432 326 432 326 432 258 c 0,35,36
 432 217 432 217 453 184 c 1,37,-1
 346 182 l 1,38,39
 334 215 334 215 334 258 c 0,40,41
 334 367 334 367 414 442.5 c 128,-1,42
 494 518 494 518 606 518 c 0,43,44
 713 518 713 518 790.5 441.5 c 128,-1,45
 868 365 868 365 862 260 c 1,46,47
 854 141 854 141 786 94 c 1,48,-1
 1008 94 l 1,49,50
 938 199 938 199 944 365 c 1,51,52
 948 543 948 543 1071 663.5 c 128,-1,53
 1194 784 1194 784 1372 784 c 0,54,55
 1554 784 1554 784 1679 647 c 128,-1,56
 1804 510 1804 510 1804 322 c 0,0,1
1700 285 m 1,57,58
 1702 373 1702 373 1661 461 c 1,59,60
 1614 494 1614 494 1530 494 c 0,61,62
 1452 494 1452 494 1401 433.5 c 128,-1,63
 1350 373 1350 373 1348 287 c 0,64,65
 1346 205 1346 205 1393 144.5 c 128,-1,66
 1440 84 1440 84 1516 84 c 0,67,68
 1593 84 1593 84 1644.5 143.5 c 128,-1,69
 1696 203 1696 203 1700 285 c 1,57,58
EndSplineSet
EndChar

StartChar: ch3
Encoding: 3356 3356 123
Width: 1177
GlyphClass: 2
Flags: W
LayerCount: 2
Fore
SplineSet
1184 174 m 0,0,1
 1184 92 1184 92 1126.5 36 c 128,-1,2
 1069 -20 1069 -20 987 -20 c 0,3,4
 920 -20 920 -20 866.5 15.5 c 128,-1,5
 813 51 813 51 799 106 c 1,6,7
 690 -20 690 -20 428 -20 c 0,8,9
 289 -20 289 -20 231 2 c 0,10,11
 135 37 135 37 135 145 c 0,12,13
 135 332 135 332 485 332 c 2,14,-1
 793 332 l 2,15,16
 905 332 905 332 981 375 c 1,17,18
 1071 424 1071 424 1071 520 c 0,19,20
 1071 596 1071 596 1026 641 c 128,-1,21
 981 686 981 686 905 686 c 0,22,23
 743 686 743 686 743 532 c 2,24,-1
 743 367 l 1,25,-1
 631 367 l 1,26,-1
 631 524 l 2,27,28
 631 686 631 686 424 686 c 0,29,30
 291 686 291 686 260 635 c 1,31,32
 289 651 289 651 311 651 c 0,33,34
 377 651 377 651 415 606 c 128,-1,35
 453 561 453 561 453 494 c 0,36,37
 453 426 453 426 405.5 379 c 128,-1,38
 358 332 358 332 289 332 c 0,39,40
 125 332 125 332 125 518 c 0,41,42
 125 649 125 649 215 719 c 0,43,44
 297 784 297 784 430 784 c 0,45,46
 608 784 608 784 684 678 c 1,47,48
 748 784 748 784 924 784 c 0,49,50
 1047 784 1047 784 1114.5 708.5 c 128,-1,51
 1182 633 1182 633 1182 510 c 0,52,53
 1182 395 1182 395 1096 328 c 1,54,55
 1184 268 1184 268 1184 174 c 0,0,1
1085 174 m 0,56,57
 1085 262 1085 262 987 262 c 0,58,59
 887 262 887 262 887 174 c 0,60,61
 887 133 887 133 916.5 105.5 c 128,-1,62
 946 78 946 78 987 78 c 256,63,64
 1028 78 1028 78 1056.5 105.5 c 128,-1,65
 1085 133 1085 133 1085 174 c 0,56,57
367 500 m 0,66,67
 367 535 367 535 345.5 559.5 c 128,-1,68
 324 584 324 584 289 584 c 0,69,70
 256 584 256 584 232.5 560.5 c 128,-1,71
 209 537 209 537 209 502 c 0,72,73
 209 418 209 418 287 418 c 0,74,75
 367 418 367 418 367 500 c 0,66,67
793 240 m 1,76,-1
 563 240 l 2,77,78
 240 240 240 240 240 150 c 0,79,80
 240 78 240 78 442 78 c 0,81,82
 713 78 713 78 793 240 c 1,76,-1
EndSplineSet
EndChar

StartChar: ch4
Encoding: 3357 3357 124
Width: 2160
GlyphClass: 2
Flags: W
LayerCount: 2
Fore
SplineSet
2163 379 m 0,0,1
 2163 213 2163 213 2085 104 c 0,2,3
 1999 -16 1999 -16 1845 -16 c 0,4,5
 1722 -16 1722 -16 1655 90 c 1,6,7
 1628 43 1628 43 1573 12.5 c 128,-1,8
 1518 -18 1518 -18 1458 -18 c 0,9,10
 1323 -18 1323 -18 1225.5 61.5 c 128,-1,11
 1128 141 1128 141 1128 266 c 2,12,-1
 1128 426 l 2,13,14
 1128 535 1128 535 1047.5 609.5 c 128,-1,15
 967 684 967 684 860 684 c 0,16,17
 817 684 817 684 772 670 c 1,18,19
 848 604 848 604 895 496 c 1,20,21
 936 397 936 397 936 315 c 0,22,23
 936 193 936 193 864 92 c 0,24,25
 786 -18 786 -18 674 -18 c 0,26,27
 563 -18 563 -18 485 84 c 1,28,29
 414 180 414 180 414 315 c 0,30,31
 414 530 414 530 586 666 c 1,32,33
 539 684 539 684 492 684 c 0,34,35
 379 684 379 684 306 589 c 128,-1,36
 233 494 233 494 233 365 c 0,37,38
 233 160 233 160 381 51 c 1,39,-1
 311 -20 l 1,40,41
 125 109 125 109 125 375 c 0,42,43
 125 528 125 528 217 645 c 1,44,45
 330 786 330 786 528 786 c 0,46,47
 612 786 612 786 680 733 c 1,48,49
 748 786 748 786 881 786 c 0,50,51
 1030 786 1030 786 1132.5 699 c 128,-1,52
 1235 612 1235 612 1235 475 c 2,53,-1
 1235 307 l 2,54,55
 1235 213 1235 213 1296.5 148.5 c 128,-1,56
 1358 84 1358 84 1456 84 c 0,57,58
 1520 84 1520 84 1559 145 c 1,59,60
 1593 201 1593 201 1593 279 c 2,61,-1
 1593 772 l 1,62,-1
 1706 772 l 1,63,-1
 1706 279 l 2,64,65
 1706 205 1706 205 1739 150 c 1,66,67
 1776 84 1776 84 1837 84 c 0,68,69
 2058 84 2058 84 2058 373 c 0,70,71
 2058 618 2058 618 1880 717 c 1,72,-1
 1952 788 l 1,73,74
 2163 659 2163 659 2163 379 c 0,0,1
813 315 m 0,75,76
 813 487 813 487 674 616 c 1,77,78
 526 508 526 508 526 315 c 0,79,80
 526 215 526 215 566 146.5 c 128,-1,81
 606 78 606 78 674 78 c 0,82,83
 741 78 741 78 780 158 c 0,84,85
 813 225 813 225 813 315 c 0,75,76
EndSplineSet
EndChar

StartChar: nj
Encoding: 3358 3358 125
Width: 1886
GlyphClass: 2
Flags: W
LayerCount: 2
Fore
SplineSet
1890 375 m 0,0,1
 1890 109 1890 109 1694 -20 c 1,2,-1
 1630 45 l 1,3,4
 1782 150 1782 150 1782 365 c 0,5,6
 1782 492 1782 492 1693 588 c 128,-1,7
 1604 684 1604 684 1479 684 c 0,8,9
 1430 684 1430 684 1384 668 c 1,10,11
 1464 604 1464 604 1513 494 c 0,12,13
 1556 397 1556 397 1556 315 c 0,14,15
 1556 186 1556 186 1491 92 c 0,16,17
 1415 -18 1415 -18 1282 -18 c 0,18,19
 1153 -18 1153 -18 1079 80 c 0,20,21
 1010 170 1010 170 1012 305 c 0,22,23
 1016 526 1016 526 1184 664 c 1,24,25
 1133 684 1133 684 1092 684 c 0,26,27
 1012 684 1012 684 950 645 c 1,28,29
 879 598 879 598 879 514 c 2,30,-1
 879 -4 l 1,31,-1
 752 -4 l 1,32,-1
 752 514 l 2,33,34
 752 592 752 592 674 641 c 0,35,36
 606 684 606 684 520 684 c 0,37,38
 393 684 393 684 307 578 c 1,39,40
 233 485 233 485 225 365 c 1,41,42
 262 463 262 463 397 463 c 0,43,44
 500 463 500 463 562.5 396.5 c 128,-1,45
 625 330 625 330 625 229 c 0,46,47
 625 125 625 125 558.5 53.5 c 128,-1,48
 492 -18 492 -18 385 -18 c 0,49,50
 254 -18 254 -18 182 98 c 1,51,52
 123 195 123 195 123 328 c 0,53,54
 123 518 123 518 225 645 c 0,55,56
 338 784 338 784 528 784 c 0,57,58
 717 784 717 784 817 674 c 1,59,60
 911 784 911 784 1112 784 c 0,61,62
 1194 784 1194 784 1282 731 c 1,63,64
 1376 784 1376 784 1497 784 c 0,65,66
 1679 784 1679 784 1790 651 c 0,67,68
 1890 530 1890 530 1890 375 c 0,0,1
1440 315 m 0,69,70
 1440 477 1440 477 1282 616 c 1,71,72
 1118 500 1118 500 1118 315 c 0,73,74
 1118 215 1118 215 1162 146.5 c 128,-1,75
 1206 78 1206 78 1282 78 c 256,76,77
 1358 78 1358 78 1401 158 c 1,78,79
 1440 225 1440 225 1440 315 c 0,69,70
512 225 m 0,80,81
 512 285 512 285 477 328 c 128,-1,82
 442 371 442 371 381 371 c 0,83,84
 319 371 319 371 283.5 329 c 128,-1,85
 248 287 248 287 248 227 c 0,86,87
 248 168 248 168 283.5 124 c 128,-1,88
 319 80 319 80 381 80 c 0,89,90
 440 80 440 80 476 123 c 128,-1,91
 512 166 512 166 512 225 c 0,80,81
EndSplineSet
EndChar

StartChar: t1
Encoding: 3359 3359 126
Width: 827
GlyphClass: 2
Flags: W
LayerCount: 2
Fore
SplineSet
829 223 m 0,0,1
 829 100 829 100 725 37 c 1,2,3
 633 -20 633 -20 492 -20 c 0,4,5
 250 -20 250 -20 125 111 c 1,6,-1
 195 186 l 1,7,8
 289 82 289 82 489 82 c 0,9,10
 578 82 578 82 641 113 c 1,11,12
 717 152 717 152 717 223 c 0,13,14
 717 326 717 326 547 326 c 2,15,-1
 408 326 l 2,16,17
 281 326 281 326 203 383 c 128,-1,18
 125 440 125 440 125 543 c 0,19,20
 125 666 125 666 229 729 c 0,21,22
 322 786 322 786 465 786 c 0,23,24
 705 786 705 786 829 655 c 1,25,-1
 760 580 l 1,26,27
 664 684 664 684 465 684 c 0,28,29
 377 684 377 684 315 653 c 1,30,31
 240 614 240 614 240 543 c 0,32,33
 240 434 240 434 410 434 c 2,34,-1
 557 434 l 2,35,36
 676 434 676 434 750 385 c 1,37,38
 829 328 829 328 829 223 c 0,0,1
EndSplineSet
EndChar

StartChar: t2
Encoding: 3360 3360 127
Width: 937
GlyphClass: 2
Flags: W
LayerCount: 2
Fore
SplineSet
938 385 m 0,0,1
 938 219 938 219 819 100.5 c 128,-1,2
 700 -18 700 -18 530 -18 c 0,3,4
 362 -18 362 -18 243.5 100.5 c 128,-1,5
 125 219 125 219 125 385 c 0,6,7
 125 553 125 553 243.5 669.5 c 128,-1,8
 362 786 362 786 530 786 c 0,9,10
 700 786 700 786 819 669.5 c 128,-1,11
 938 553 938 553 938 385 c 0,0,1
834 385 m 0,12,13
 834 510 834 510 745.5 597 c 128,-1,14
 657 684 657 684 530 684 c 0,15,16
 406 684 406 684 317.5 597 c 128,-1,17
 229 510 229 510 229 385 c 0,18,19
 229 262 229 262 317.5 174 c 128,-1,20
 406 86 406 86 530 86 c 0,21,22
 657 86 657 86 745.5 174 c 128,-1,23
 834 262 834 262 834 385 c 0,12,13
EndSplineSet
EndChar

StartChar: t3
Encoding: 3361 3361 128
Width: 1814
GlyphClass: 2
Flags: W
LayerCount: 2
Fore
SplineSet
1819 383 m 0,0,1
 1819 217 1819 217 1729 104 c 0,2,3
 1632 -18 1632 -18 1470 -18 c 0,4,5
 1303 -18 1303 -18 1221 106 c 1,6,7
 1141 -18 1141 -18 981 -18 c 0,8,9
 829 -18 829 -18 740 74 c 128,-1,10
 651 166 651 166 651 303 c 2,11,-1
 651 449 l 2,12,13
 651 543 651 543 600 613.5 c 128,-1,14
 549 684 549 684 461 684 c 0,15,16
 348 684 348 684 283 586 c 1,17,18
 223 498 223 498 223 371 c 0,19,20
 223 152 223 152 408 57 c 1,21,-1
 350 -23 l 1,22,23
 123 100 123 100 123 373 c 0,24,25
 123 545 123 545 207 659 c 0,26,27
 301 786 301 786 461 786 c 0,28,29
 612 786 612 786 694 672 c 0,30,31
 766 573 766 573 766 418 c 2,32,-1
 766 299 l 2,33,34
 766 205 766 205 815 150 c 1,35,36
 870 86 870 86 973 86 c 0,37,38
 1055 86 1055 86 1107 140.5 c 128,-1,39
 1159 195 1159 195 1159 279 c 2,40,-1
 1159 772 l 1,41,-1
 1278 772 l 1,42,-1
 1278 279 l 2,43,44
 1278 201 1278 201 1336.5 143.5 c 128,-1,45
 1395 86 1395 86 1477 86 c 0,46,47
 1587 86 1587 86 1653 180 c 1,48,49
 1708 262 1708 262 1708 379 c 0,50,51
 1708 612 1708 612 1532 711 c 1,52,-1
 1589 795 l 1,53,54
 1819 672 1819 672 1819 383 c 0,0,1
EndSplineSet
EndChar

StartChar: t4
Encoding: 3362 3362 129
Width: 1867
GlyphClass: 2
Flags: W
LayerCount: 2
Fore
SplineSet
1876 442 m 0,0,1
 1876 254 1876 254 1769 123 c 1,2,3
 1655 -20 1655 -20 1470 -20 c 0,4,5
 1266 -20 1266 -20 1167 96 c 1,6,7
 1079 -18 1079 -18 932 -18 c 0,8,9
 784 -18 784 -18 706.5 69 c 128,-1,10
 629 156 629 156 629 303 c 0,11,12
 629 502 629 502 616 549 c 1,13,14
 584 686 584 686 446 686 c 0,15,16
 332 686 332 686 272 580 c 0,17,18
 223 494 223 494 223 371 c 0,19,20
 223 158 223 158 401 63 c 1,21,-1
 352 -18 l 1,22,23
 125 102 125 102 125 373 c 0,24,25
 125 545 125 545 197 655 c 1,26,27
 285 786 285 786 459 786 c 0,28,29
 651 786 651 786 707 623 c 1,30,31
 733 541 733 541 733 299 c 0,32,33
 733 209 733 209 784.5 147.5 c 128,-1,34
 836 86 836 86 924 86 c 0,35,36
 1004 86 1004 86 1057 148.5 c 128,-1,37
 1110 211 1110 211 1110 291 c 2,38,-1
 1110 766 l 1,39,-1
 1223 766 l 1,40,-1
 1223 266 l 2,41,42
 1223 178 1223 178 1311 125 c 0,43,44
 1384 82 1384 82 1479 82 c 0,45,46
 1608 82 1608 82 1686 182 c 0,47,48
 1753 268 1753 268 1763 403 c 1,49,50
 1743 356 1743 356 1691.5 327.5 c 128,-1,51
 1640 299 1640 299 1585 299 c 0,52,53
 1485 299 1485 299 1422.5 369.5 c 128,-1,54
 1360 440 1360 440 1360 541 c 0,55,56
 1360 647 1360 647 1429.5 716.5 c 128,-1,57
 1499 786 1499 786 1604 786 c 0,58,59
 1737 786 1737 786 1812 678 c 1,60,61
 1876 582 1876 582 1876 442 c 0,0,1
1741 543 m 0,62,63
 1741 602 1741 602 1700 644 c 128,-1,64
 1659 686 1659 686 1602 686 c 0,65,66
 1542 686 1542 686 1506 645 c 128,-1,67
 1470 604 1470 604 1470 545 c 0,68,69
 1470 485 1470 485 1505 444 c 1,70,71
 1542 397 1542 397 1599 397 c 0,72,73
 1659 397 1659 397 1700 440 c 128,-1,74
 1741 483 1741 483 1741 543 c 0,62,63
EndSplineSet
EndChar

StartChar: nh
Encoding: 3363 3363 130
Width: 1863
GlyphClass: 2
Flags: W
LayerCount: 2
Fore
SplineSet
1868 391 m 0,0,1
 1868 102 1868 102 1640 -20 c 1,2,-1
 1585 66 l 1,3,4
 1759 158 1759 158 1759 395 c 0,5,6
 1759 518 1759 518 1698 598 c 1,7,8
 1630 684 1630 684 1511 684 c 0,9,10
 1356 684 1356 684 1356 494 c 2,11,-1
 1356 0 l 1,12,-1
 1243 0 l 1,13,-1
 1243 494 l 2,14,15
 1243 586 1243 586 1189 636 c 128,-1,16
 1135 686 1135 686 1051 686 c 0,17,18
 969 686 969 686 916.5 637 c 128,-1,19
 864 588 864 588 864 494 c 2,20,-1
 864 0 l 1,21,-1
 743 0 l 1,22,-1
 743 494 l 2,23,24
 743 684 743 684 510 684 c 0,25,26
 389 684 389 684 310 586.5 c 128,-1,27
 231 489 231 489 223 365 c 1,28,29
 260 463 260 463 389 463 c 0,30,31
 487 463 487 463 548.5 395.5 c 128,-1,32
 610 328 610 328 610 229 c 0,33,34
 610 125 610 125 544.5 52.5 c 128,-1,35
 479 -20 479 -20 377 -20 c 0,36,37
 123 -20 123 -20 123 328 c 0,38,39
 123 522 123 522 235.5 654 c 128,-1,40
 348 786 348 786 539 786 c 0,41,42
 709 786 709 786 801 678 c 1,43,44
 883 786 883 786 1053 786 c 0,45,46
 1210 786 1210 786 1298 680 c 1,47,48
 1370 786 1370 786 1522 786 c 0,49,50
 1681 786 1681 786 1780 668 c 1,51,52
 1868 555 1868 555 1868 391 c 0,0,1
502 223 m 0,53,54
 502 283 502 283 467 327 c 128,-1,55
 432 371 432 371 375 371 c 0,56,57
 315 371 315 371 279.5 329 c 128,-1,58
 244 287 244 287 244 227 c 0,59,60
 244 168 244 168 279.5 124 c 128,-1,61
 315 80 315 80 373 80 c 0,62,63
 432 80 432 80 467 123 c 128,-1,64
 502 166 502 166 502 223 c 0,53,54
EndSplineSet
EndChar

StartChar: th1
Encoding: 3364 3364 131
Width: 1345
GlyphClass: 2
Flags: W
LayerCount: 2
Fore
SplineSet
1343 375 m 0,0,1
 1343 111 1343 111 1147 -20 c 1,2,-1
 1081 47 l 1,3,4
 1235 154 1235 154 1235 365 c 0,5,6
 1235 492 1235 492 1146 588 c 128,-1,7
 1057 684 1057 684 930 684 c 0,8,9
 901 684 901 684 848 670 c 1,10,11
 928 606 928 606 973 489 c 0,12,13
 1010 391 1010 391 1010 303 c 0,14,15
 1010 182 1010 182 936 86 c 1,16,17
 854 -18 854 -18 735 -18 c 0,18,19
 604 -18 604 -18 530 78 c 0,20,21
 461 166 461 166 461 303 c 0,22,23
 461 530 461 530 631 666 c 1,24,25
 580 684 580 684 526 684 c 0,26,27
 403 684 403 684 316 592 c 128,-1,28
 229 500 229 500 229 365 c 0,29,30
 229 152 229 152 387 45 c 1,31,-1
 319 -20 l 1,32,33
 123 109 123 109 123 375 c 0,34,35
 123 530 123 530 229 649 c 1,36,37
 352 784 352 784 565 784 c 0,38,39
 674 784 674 784 745 725 c 1,40,41
 821 784 821 784 950 784 c 0,42,43
 1133 784 1133 784 1243 651 c 0,44,45
 1343 530 1343 530 1343 375 c 0,0,1
891 303 m 0,46,47
 891 397 891 397 847 482 c 128,-1,48
 803 567 803 567 735 614 c 1,49,50
 659 563 659 563 615 477 c 128,-1,51
 571 391 571 391 571 303 c 0,52,53
 571 78 571 78 735 78 c 0,54,55
 811 78 811 78 854 152 c 0,56,57
 891 215 891 215 891 303 c 0,46,47
EndSplineSet
EndChar

StartChar: th2
Encoding: 3365 3365 132
Width: 1159
GlyphClass: 2
Flags: W
LayerCount: 2
Fore
SplineSet
1159 0 m 1,0,-1
 123 0 l 1,1,-1
 123 774 l 1,2,-1
 236 774 l 1,3,-1
 236 94 l 1,4,-1
 477 94 l 1,5,-1
 477 451 l 2,6,7
 477 590 477 590 576.5 688 c 128,-1,8
 676 786 676 786 817 786 c 0,9,10
 961 786 961 786 1060 692 c 128,-1,11
 1159 598 1159 598 1159 461 c 2,12,-1
 1159 0 l 1,0,-1
1047 94 m 1,13,-1
 1047 455 l 2,14,15
 1047 549 1047 549 979 616.5 c 128,-1,16
 911 684 911 684 817 684 c 256,17,18
 723 684 723 684 657.5 615.5 c 128,-1,19
 592 547 592 547 592 453 c 2,20,-1
 592 94 l 1,21,-1
 1047 94 l 1,13,-1
EndSplineSet
EndChar

StartChar: th3
Encoding: 3366 3366 133
Width: 868
GlyphClass: 2
Flags: W
LayerCount: 2
Fore
SplineSet
870 207 m 0,0,1
 870 106 870 106 796.5 44 c 128,-1,2
 723 -18 723 -18 618 -18 c 0,3,4
 508 -18 508 -18 461 2 c 1,5,-1
 461 104 l 1,6,7
 492 84 492 84 532 82 c 0,8,9
 516 82 516 82 610 82 c 0,10,11
 672 82 672 82 716 116 c 128,-1,12
 760 150 760 150 760 213 c 0,13,14
 760 336 760 336 602 336 c 2,15,-1
 475 336 l 1,16,-1
 475 440 l 1,17,-1
 600 440 l 2,18,19
 760 440 760 440 760 551 c 0,20,21
 760 618 760 618 690 653 c 1,22,23
 635 682 635 682 557 682 c 0,24,25
 399 682 399 682 311 580 c 1,26,27
 227 485 227 485 227 332 c 1,28,29
 225 190 225 190 307 12 c 1,30,-1
 209 -18 l 1,31,32
 123 168 123 168 125 340 c 1,33,34
 125 539 125 539 237.5 661.5 c 128,-1,35
 350 784 350 784 555 784 c 0,36,37
 680 784 680 784 768 729 c 0,38,39
 870 666 870 666 870 555 c 0,40,41
 870 502 870 502 838.5 451.5 c 128,-1,42
 807 401 807 401 762 387 c 1,43,44
 870 342 870 342 870 207 c 0,0,1
EndSplineSet
EndChar

StartChar: th4
Encoding: 3367 3367 134
Width: 1306
GlyphClass: 2
Flags: W
LayerCount: 2
Fore
SplineSet
1307 383 m 0,0,1
 1307 217 1307 217 1210 102 c 0,2,3
 1108 -18 1108 -18 942 -18 c 0,4,5
 780 -18 780 -18 711 98 c 1,6,7
 637 -20 637 -20 485 -20 c 0,8,9
 324 -20 324 -20 221 100 c 0,10,11
 125 213 125 213 125 375 c 0,12,13
 125 506 125 506 184 612 c 0,14,15
 248 729 248 729 369 786 c 1,16,-1
 422 700 l 1,17,18
 238 612 238 612 238 367 c 0,19,20
 238 248 238 248 305 170 c 0,21,22
 377 86 377 86 496 86 c 0,23,24
 565 86 565 86 608 147 c 1,25,26
 649 203 649 203 649 272 c 2,27,-1
 649 768 l 1,28,-1
 768 768 l 1,29,-1
 768 272 l 2,30,31
 768 199 768 199 818 142.5 c 128,-1,32
 868 86 868 86 944 86 c 0,33,34
 1059 86 1059 86 1128 176 c 1,35,36
 1194 258 1194 258 1194 375 c 0,37,38
 1194 614 1194 614 1008 700 c 1,39,-1
 1065 786 l 1,40,41
 1184 731 1184 731 1249 616 c 1,42,43
 1307 510 1307 510 1307 383 c 0,0,1
EndSplineSet
EndChar

StartChar: n1
Encoding: 3368 3368 135
Width: 1306
GlyphClass: 2
Flags: W
LayerCount: 2
Fore
SplineSet
1307 393 m 0,0,1
 1307 260 1307 260 1249 154 c 0,2,3
 1186 37 1186 37 1065 -20 c 1,4,-1
 1012 63 l 1,5,6
 1196 154 1196 154 1196 399 c 0,7,8
 1196 520 1196 520 1126.5 602 c 128,-1,9
 1057 684 1057 684 938 684 c 0,10,11
 866 684 866 684 824 631 c 128,-1,12
 782 578 782 578 782 504 c 2,13,-1
 782 0 l 1,14,-1
 666 0 l 1,15,-1
 666 504 l 2,16,17
 666 578 666 578 615.5 630 c 128,-1,18
 565 682 565 682 489 682 c 0,19,20
 375 682 375 682 303 592 c 1,21,22
 240 508 240 508 240 391 c 0,23,24
 240 147 240 147 432 59 c 1,25,-1
 369 -20 l 1,26,27
 250 37 250 37 184 152 c 0,28,29
 125 256 125 256 125 385 c 0,30,31
 125 551 125 551 223 664 c 1,32,33
 326 786 326 786 492 786 c 0,34,35
 651 786 651 786 723 676 c 1,36,37
 795 786 795 786 948 786 c 0,38,39
 1110 786 1110 786 1212 668 c 1,40,41
 1307 555 1307 555 1307 393 c 0,0,1
EndSplineSet
EndChar

StartChar: p1
Encoding: 3370 3370 136
Width: 1204
GlyphClass: 2
Flags: W
LayerCount: 2
Fore
SplineSet
1204 0 m 1,0,-1
 522 0 l 1,1,-1
 520 66 l 1,2,3
 625 119 625 119 623 238 c 1,4,5
 623 315 623 315 564.5 368.5 c 128,-1,6
 506 422 506 422 426 422 c 256,7,8
 346 422 346 422 286.5 369.5 c 128,-1,9
 227 317 227 317 227 242 c 0,10,11
 227 127 227 127 328 80 c 1,12,-1
 281 -6 l 1,13,14
 125 72 125 72 125 242 c 0,15,16
 125 362 125 362 215 444 c 128,-1,17
 305 526 305 526 428 526 c 0,18,19
 553 526 553 526 646 443 c 128,-1,20
 739 360 739 360 733 242 c 0,21,22
 729 156 729 156 690 92 c 1,23,-1
 1094 92 l 1,24,-1
 1094 766 l 1,25,-1
 1204 766 l 1,26,-1
 1204 0 l 1,0,-1
EndSplineSet
EndChar

StartChar: p2
Encoding: 3371 3371 137
Width: 1607
GlyphClass: 2
Flags: W
LayerCount: 2
Fore
SplineSet
1610 0 m 1,0,-1
 522 0 l 1,1,-1
 522 59 l 1,2,3
 629 115 629 115 629 238 c 0,4,5
 629 317 629 317 569.5 372.5 c 128,-1,6
 510 428 510 428 426 428 c 0,7,8
 344 428 344 428 283.5 375 c 128,-1,9
 223 322 223 322 223 242 c 1,10,11
 221 123 221 123 328 72 c 1,12,-1
 281 -6 l 1,13,14
 125 72 125 72 125 242 c 0,15,16
 125 362 125 362 215 444 c 128,-1,17
 305 526 305 526 428 526 c 0,18,19
 559 526 559 526 644 445.5 c 128,-1,20
 729 365 729 365 729 242 c 0,21,22
 729 139 729 139 688 92 c 1,23,-1
 944 92 l 1,24,-1
 944 446 l 2,25,26
 944 590 944 590 1034 687 c 128,-1,27
 1124 784 1124 784 1276 784 c 0,28,29
 1415 784 1415 784 1512.5 688 c 128,-1,30
 1610 592 1610 592 1610 455 c 2,31,-1
 1610 0 l 1,0,-1
1505 92 m 1,32,-1
 1505 449 l 2,33,34
 1505 547 1505 547 1437.5 616.5 c 128,-1,35
 1370 686 1370 686 1276 684 c 1,36,37
 1182 684 1182 684 1119.5 613.5 c 128,-1,38
 1057 543 1057 543 1057 449 c 2,39,-1
 1057 92 l 1,40,-1
 1505 92 l 1,32,-1
EndSplineSet
EndChar

StartChar: p3
Encoding: 3372 3372 138
Width: 1689
GlyphClass: 2
Flags: W
LayerCount: 2
Fore
SplineSet
1694 0 m 1,0,-1
 1096 0 l 1,1,-1
 1096 66 l 1,2,3
 1176 123 1176 123 1223 219 c 0,4,5
 1266 309 1266 309 1266 401 c 0,6,7
 1266 516 1266 516 1210 594 c 1,8,9
 1149 684 1149 684 1038 684 c 0,10,11
 963 684 963 684 920 633 c 128,-1,12
 877 582 877 582 877 504 c 2,13,-1
 877 0 l 1,14,-1
 760 0 l 1,15,-1
 760 514 l 2,16,17
 760 598 760 598 682 643 c 1,18,19
 614 684 614 684 520 684 c 0,20,21
 389 684 389 684 309 584 c 1,22,23
 240 500 240 500 221 365 c 1,24,25
 256 463 256 463 389 463 c 0,26,27
 492 463 492 463 550 395.5 c 128,-1,28
 608 328 608 328 608 225 c 0,29,30
 608 121 608 121 541.5 51.5 c 128,-1,31
 475 -18 475 -18 369 -18 c 0,32,33
 123 -18 123 -18 123 313 c 0,34,35
 123 512 123 512 227 641 c 1,36,37
 344 784 344 784 545 784 c 0,38,39
 725 784 725 784 815 682 c 1,40,41
 911 784 911 784 1026 784 c 0,42,43
 1210 784 1210 784 1300 659 c 1,44,45
 1378 555 1378 555 1378 379 c 0,46,47
 1378 213 1378 213 1278 92 c 1,48,-1
 1581 92 l 1,49,-1
 1581 766 l 1,50,-1
 1694 766 l 1,51,-1
 1694 0 l 1,0,-1
498 221 m 0,52,53
 498 283 498 283 465 325 c 128,-1,54
 432 367 432 367 373 367 c 0,55,56
 313 367 313 367 278.5 326 c 128,-1,57
 244 285 244 285 244 223 c 0,58,59
 244 164 244 164 277.5 124 c 128,-1,60
 311 84 311 84 371 84 c 0,61,62
 430 84 430 84 464 123 c 128,-1,63
 498 162 498 162 498 221 c 0,52,53
EndSplineSet
EndChar

StartChar: p4
Encoding: 3373 3373 139
Width: 901
GlyphClass: 2
Flags: W
LayerCount: 2
Fore
SplineSet
907 145 m 0,0,1
 907 37 907 37 813 2 c 1,2,3
 756 -18 756 -18 616 -18 c 0,4,5
 479 -18 479 -18 397 12 c 1,6,-1
 387 125 l 1,7,8
 473 82 473 82 637 82 c 0,9,10
 715 82 715 82 735 86 c 0,11,12
 786 98 786 98 786 145 c 0,13,14
 786 209 786 209 682 209 c 2,15,-1
 553 209 l 1,16,17
 487 207 487 207 440 252 c 128,-1,18
 393 297 393 297 393 362 c 0,19,20
 393 430 393 430 445.5 480 c 128,-1,21
 498 530 498 530 559 528 c 1,22,-1
 682 526 l 1,23,24
 743 524 743 524 762 530 c 1,25,26
 788 541 788 541 786 580 c 0,27,28
 784 639 784 639 705 666 c 0,29,30
 645 686 645 686 569 686 c 0,31,32
 403 686 403 686 315 586.5 c 128,-1,33
 227 487 227 487 229 319 c 1,34,35
 229 203 229 203 297 8 c 1,36,-1
 197 -27 l 1,37,38
 125 158 125 158 125 352 c 1,39,40
 123 555 123 555 242.5 671.5 c 128,-1,41
 362 788 362 788 571 788 c 0,42,43
 899 788 899 788 905 578 c 0,44,45
 907 510 907 510 850 461 c 128,-1,46
 793 412 793 412 709 416 c 2,47,-1
 602 422 l 1,48,49
 512 426 512 426 512 365 c 0,50,51
 512 322 512 322 547 313 c 1,52,53
 559 311 559 311 612 311 c 1,54,-1
 715 315 l 2,55,56
 791 317 791 317 849 266 c 128,-1,57
 907 215 907 215 907 145 c 0,0,1
EndSplineSet
EndChar

StartChar: m1
Encoding: 3374 3374 140
Width: 884
GlyphClass: 2
Flags: W
LayerCount: 2
Fore
SplineSet
885 0 m 1,0,-1
 123 0 l 1,1,-1
 123 354 l 2,2,3
 123 786 123 786 508 786 c 0,4,5
 885 786 885 786 885 362 c 2,6,-1
 885 0 l 1,0,-1
778 94 m 1,7,-1
 778 362 l 2,8,9
 778 653 778 653 557 686 c 1,10,11
 643 645 643 645 643 504 c 0,12,13
 643 416 643 416 588 311 c 1,14,15
 524 184 524 184 403 94 c 1,16,-1
 778 94 l 1,7,-1
524 512 m 0,17,18
 524 668 524 668 424 668 c 0,19,20
 346 668 346 668 291 596 c 0,21,22
 227 512 227 512 227 362 c 2,23,-1
 227 102 l 1,24,25
 524 291 524 291 524 512 c 0,17,18
EndSplineSet
EndChar

StartChar: y1
Encoding: 3375 3375 141
Width: 1437
GlyphClass: 2
Flags: W
LayerCount: 2
Fore
SplineSet
1440 426 m 0,0,1
 1440 238 1440 238 1325 113 c 1,2,3
 1200 -20 1200 -20 981 -23 c 1,4,5
 858 -23 858 -23 811 23 c 1,6,7
 750 -23 750 -23 621 -20 c 1,8,9
 403 -20 403 -20 265 109 c 128,-1,10
 127 238 127 238 127 446 c 0,11,12
 127 594 127 594 197.5 689 c 128,-1,13
 268 784 268 784 381 784 c 0,14,15
 520 784 520 784 584 674 c 1,16,17
 662 784 662 784 838 784 c 0,18,19
 961 784 961 784 1043.5 687 c 128,-1,20
 1126 590 1126 590 1126 461 c 1,21,22
 1130 217 1130 217 936 78 c 1,23,24
 969 72 969 72 1006 72 c 0,25,26
 1137 72 1137 72 1231 168 c 1,27,28
 1329 272 1329 272 1329 430 c 0,29,30
 1329 604 1329 604 1208 713 c 1,31,-1
 1294 784 l 1,32,33
 1440 645 1440 645 1440 426 c 0,0,1
1012 424 m 0,34,35
 1012 537 1012 537 967 606 c 1,36,37
 915 682 915 682 819 682 c 0,38,39
 721 682 721 682 668 602 c 1,40,41
 627 535 627 535 627 436 c 0,42,43
 627 219 627 219 815 121 c 1,44,45
 897 158 897 158 954.5 243 c 128,-1,46
 1012 328 1012 328 1012 424 c 0,34,35
696 80 m 1,47,48
 518 221 518 221 518 446 c 0,49,50
 518 682 518 682 381 682 c 0,51,52
 319 682 319 682 278.5 608.5 c 128,-1,53
 238 535 238 535 238 446 c 0,54,55
 238 283 238 283 344.5 178.5 c 128,-1,56
 451 74 451 74 610 72 c 1,57,58
 659 70 659 70 696 80 c 1,47,48
EndSplineSet
EndChar

StartChar: r3
Encoding: 3376 3376 142
Width: 1009
GlyphClass: 2
Flags: W
LayerCount: 2
Fore
SplineSet
1008 319 m 1,0,1
 997 182 997 182 918 88 c 0,2,3
 829 -18 829 -18 696 -18 c 0,4,5
 569 -18 569 -18 501.5 68 c 128,-1,6
 434 154 434 154 442 289 c 1,7,8
 451 422 451 422 532.5 506 c 128,-1,9
 614 590 614 590 743 590 c 0,10,11
 780 590 780 590 819 580 c 1,12,13
 737 684 737 684 582 684 c 0,14,15
 436 684 436 684 339 594 c 128,-1,16
 242 504 242 504 231 352 c 1,17,18
 221 166 221 166 369 53 c 1,19,-1
 297 -16 l 1,20,21
 113 127 113 127 127 362 c 0,22,23
 139 555 139 555 258 670.5 c 128,-1,24
 377 786 377 786 575 786 c 0,25,26
 782 786 782 786 901 653 c 128,-1,27
 1020 520 1020 520 1008 319 c 1,0,1
889 285 m 1,28,29
 895 393 895 393 866 461 c 1,30,31
 844 477 844 477 752 481 c 0,32,33
 668 485 668 485 611.5 429 c 128,-1,34
 555 373 555 373 549 297 c 0,35,36
 543 215 543 215 582 156 c 1,37,38
 625 88 625 88 705 88 c 0,39,40
 786 88 786 88 838 147 c 1,41,42
 883 203 883 203 889 285 c 1,28,29
EndSplineSet
EndChar

StartChar: rh
Encoding: 3377 3377 143
Width: 921
GlyphClass: 2
Flags: W
LayerCount: 2
Fore
SplineSet
932 365 m 0,0,1
 932 236 932 236 863.5 134.5 c 128,-1,2
 795 33 795 33 670 -18 c 1,3,-1
 625 63 l 1,4,5
 827 139 827 139 827 365 c 0,6,7
 827 498 827 498 740 590 c 128,-1,8
 653 682 653 682 524 682 c 256,9,10
 395 682 395 682 310 590 c 128,-1,11
 225 498 225 498 225 365 c 0,12,13
 225 137 225 137 430 63 c 1,14,-1
 383 -18 l 1,15,16
 258 31 258 31 191.5 133.5 c 128,-1,17
 125 236 125 236 125 365 c 0,18,19
 125 543 125 543 241.5 663.5 c 128,-1,20
 358 784 358 784 530 784 c 0,21,22
 707 784 707 784 819.5 664.5 c 128,-1,23
 932 545 932 545 932 365 c 0,0,1
EndSplineSet
EndChar

StartChar: l3
Encoding: 3378 3378 144
Width: 1202
GlyphClass: 2
Flags: W
LayerCount: 2
Fore
SplineSet
1204 0 m 1,0,-1
 125 0 l 1,1,-1
 125 465 l 2,2,3
 125 600 125 600 230.5 692 c 128,-1,4
 336 784 336 784 479 784 c 0,5,6
 639 784 639 784 736.5 695 c 128,-1,7
 834 606 834 606 834 465 c 2,8,-1
 834 246 l 1,9,-1
 240 246 l 1,10,-1
 240 94 l 1,11,-1
 1092 94 l 1,12,-1
 1092 766 l 1,13,-1
 1204 766 l 1,14,-1
 1204 0 l 1,0,-1
719 342 m 1,15,-1
 719 434 l 2,16,17
 719 541 719 541 659 610 c 0,18,19
 594 684 594 684 481 684 c 0,20,21
 377 684 377 684 309.5 616.5 c 128,-1,22
 242 549 242 549 242 434 c 2,23,-1
 242 342 l 1,24,-1
 719 342 l 1,15,-1
EndSplineSet
EndChar

StartChar: lh
Encoding: 3379 3379 145
Width: 999
GlyphClass: 2
Flags: W
LayerCount: 2
Fore
SplineSet
1006 211 m 0,0,1
 1006 127 1006 127 942 68 c 1,2,3
 872 0 872 0 758 0 c 2,4,-1
 387 0 l 2,5,6
 334 0 334 0 297 -25 c 0,7,8
 254 -53 254 -53 254 -102 c 0,9,10
 254 -147 254 -147 299 -174 c 0,11,12
 336 -197 336 -197 387 -197 c 2,13,-1
 983 -197 l 1,14,-1
 983 -293 l 1,15,-1
 369 -293 l 2,16,17
 274 -293 274 -293 210.5 -243 c 128,-1,18
 147 -193 147 -193 147 -102 c 0,19,20
 147 94 147 94 373 94 c 2,21,-1
 733 94 l 2,22,23
 889 94 889 94 889 213 c 0,24,25
 889 330 889 330 762 330 c 2,26,-1
 705 330 l 1,27,-1
 705 434 l 1,28,-1
 762 434 l 2,29,30
 885 434 885 434 885 535 c 0,31,32
 885 616 885 616 756 657 c 0,33,34
 664 686 664 686 561 686 c 0,35,36
 438 686 438 686 344 631 c 1,37,38
 242 569 242 569 219 461 c 1,39,40
 281 539 281 539 369 539 c 256,41,42
 457 539 457 539 518.5 480.5 c 128,-1,43
 580 422 580 422 580 334 c 0,44,45
 580 244 580 244 516.5 190.5 c 128,-1,46
 453 137 453 137 360 137 c 0,47,48
 244 137 244 137 180 219 c 0,49,50
 121 293 121 293 121 412 c 0,51,52
 121 600 121 600 262 700 c 0,53,54
 385 788 385 788 582 788 c 0,55,56
 735 788 735 788 850 737 c 0,57,58
 1001 670 1001 670 1001 535 c 0,59,60
 1001 424 1001 424 903 379 c 1,61,62
 1006 338 1006 338 1006 211 c 0,0,1
461 332 m 0,63,64
 461 379 461 379 431 408.5 c 128,-1,65
 401 438 401 438 354 438 c 0,66,67
 309 438 309 438 277.5 410.5 c 128,-1,68
 246 383 246 383 246 338 c 0,69,70
 246 291 246 291 278.5 261 c 128,-1,71
 311 231 311 231 358 231 c 0,72,73
 403 231 403 231 432 260 c 128,-1,74
 461 289 461 289 461 332 c 0,63,64
EndSplineSet
EndChar

StartChar: zh
Encoding: 3380 3380 146
Width: 901
GlyphClass: 2
Flags: W
LayerCount: 2
Fore
SplineSet
903 530 m 0,0,1
 903 438 903 438 831 362 c 0,2,3
 752 279 752 279 614 254 c 1,4,5
 645 174 645 174 645 160 c 0,6,7
 645 80 645 80 578.5 31 c 128,-1,8
 512 -18 512 -18 424 -18 c 0,9,10
 270 -18 270 -18 201 96 c 1,11,-1
 262 174 l 1,12,13
 328 78 328 78 414 78 c 0,14,15
 461 78 461 78 496.5 100.5 c 128,-1,16
 532 123 532 123 532 162 c 0,17,18
 532 188 532 188 512 233 c 1,19,20
 483 229 483 229 455 229 c 0,21,22
 313 229 313 229 220 317.5 c 128,-1,23
 127 406 127 406 127 530 c 1,24,25
 125 688 125 688 252 793 c 1,26,-1
 322 735 l 1,27,28
 217 672 217 672 225 526 c 0,29,30
 231 418 231 418 315 367 c 1,31,32
 383 324 383 324 469 330 c 1,33,34
 399 432 399 432 399 537 c 0,35,36
 399 637 399 637 473 711.5 c 128,-1,37
 547 786 547 786 659 786 c 0,38,39
 780 786 780 786 846 707 c 0,40,41
 903 639 903 639 903 530 c 0,0,1
797 543 m 0,42,43
 797 604 797 604 762 645 c 128,-1,44
 727 686 727 686 666 686 c 0,45,46
 596 686 596 686 555 641 c 128,-1,47
 514 596 514 596 514 535 c 0,48,49
 514 428 514 428 575 346 c 1,50,51
 797 391 797 391 797 543 c 0,42,43
EndSplineSet
EndChar

StartChar: v1
Encoding: 3381 3381 147
Width: 1234
GlyphClass: 2
Flags: W
LayerCount: 2
Fore
SplineSet
1237 0 m 1,0,-1
 637 0 l 1,1,-1
 637 82 l 1,2,3
 819 182 819 182 819 379 c 0,4,5
 819 510 819 510 733 596 c 128,-1,6
 647 682 647 682 518 682 c 0,7,8
 387 682 387 682 304 594 c 128,-1,9
 221 506 221 506 221 373 c 0,10,11
 221 147 221 147 424 72 c 1,12,-1
 375 -14 l 1,13,14
 121 92 121 92 121 375 c 0,15,16
 121 551 121 551 238.5 668.5 c 128,-1,17
 356 786 356 786 530 786 c 0,18,19
 702 786 702 786 812 671.5 c 128,-1,20
 922 557 922 557 922 381 c 0,21,22
 922 182 922 182 811 94 c 1,23,-1
 1124 94 l 1,24,-1
 1124 768 l 1,25,-1
 1237 768 l 1,26,-1
 1237 0 l 1,0,-1
EndSplineSet
EndChar

StartChar: z1
Encoding: 3382 3382 148
Width: 1419
GlyphClass: 2
Flags: W
LayerCount: 2
Fore
SplineSet
1421 319 m 0,0,1
 1421 184 1421 184 1341 86 c 1,2,3
 1253 -18 1253 -18 1114 -18 c 0,4,5
 989 -18 989 -18 918 76 c 0,6,7
 852 162 852 162 852 289 c 0,8,9
 852 414 852 414 938 502 c 128,-1,10
 1024 590 1024 590 1145 590 c 0,11,12
 1192 590 1192 590 1233 580 c 1,13,14
 1145 684 1145 684 993 684 c 0,15,16
 893 684 893 684 824.5 610.5 c 128,-1,17
 756 537 756 537 756 436 c 2,18,-1
 756 274 l 2,19,20
 756 147 756 147 682 68 c 0,21,22
 602 -18 602 -18 463 -18 c 0,23,24
 305 -18 305 -18 211 102 c 1,25,26
 125 215 125 215 125 377 c 0,27,28
 125 668 125 668 354 791 c 1,29,-1
 412 707 l 1,30,31
 238 608 238 608 238 393 c 0,32,33
 238 279 238 279 295 190 c 1,34,35
 358 86 358 86 467 86 c 0,36,37
 571 86 571 86 610 164 c 0,38,39
 637 217 637 217 637 328 c 2,40,-1
 637 463 l 2,41,42
 637 598 637 598 738.5 692 c 128,-1,43
 840 786 840 786 973 786 c 0,44,45
 1188 786 1188 786 1309 651 c 1,46,47
 1421 524 1421 524 1421 319 c 0,0,1
1305 285 m 1,48,49
 1313 401 1313 401 1284 461 c 1,50,51
 1253 481 1253 481 1153 481 c 0,52,53
 1075 481 1075 481 1020 427 c 128,-1,54
 965 373 965 373 965 297 c 0,55,56
 965 86 965 86 1122 86 c 0,57,58
 1204 86 1204 86 1253 147 c 0,59,60
 1298 203 1298 203 1305 285 c 1,48,49
EndSplineSet
EndChar

StartChar: sh
Encoding: 3383 3383 149
Width: 1546
GlyphClass: 2
Flags: W
LayerCount: 2
Fore
SplineSet
1546 0 m 1,0,-1
 522 0 l 1,1,-1
 522 59 l 1,2,3
 629 115 629 115 629 238 c 0,4,5
 629 317 629 317 569.5 372.5 c 128,-1,6
 510 428 510 428 426 428 c 0,7,8
 344 428 344 428 283.5 375 c 128,-1,9
 223 322 223 322 223 242 c 0,10,11
 223 125 223 125 326 76 c 1,12,-1
 274 -6 l 1,13,14
 125 74 125 74 125 242 c 0,15,16
 125 362 125 362 215 444 c 128,-1,17
 305 526 305 526 428 526 c 256,18,19
 551 526 551 526 642 443 c 128,-1,20
 733 360 733 360 733 242 c 0,21,22
 733 145 733 145 688 92 c 1,23,-1
 1042 92 l 1,24,-1
 1042 274 l 1,25,26
 913 293 913 293 829 356 c 0,27,28
 727 434 727 434 727 563 c 0,29,30
 727 651 727 651 790.5 717.5 c 128,-1,31
 854 784 854 784 944 784 c 0,32,33
 1161 784 1161 784 1161 553 c 2,34,-1
 1161 377 l 1,35,36
 1425 397 1425 397 1483 768 c 1,37,-1
 1546 768 l 1,38,-1
 1546 0 l 1,0,-1
1442 92 m 1,39,-1
 1442 418 l 1,40,41
 1415 371 1415 371 1329 324 c 0,42,43
 1237 274 1237 274 1161 274 c 1,44,-1
 1161 92 l 1,45,-1
 1442 92 l 1,39,-1
1042 575 m 2,46,47
 1042 623 1042 623 1007.5 654.5 c 128,-1,48
 973 686 973 686 934 686 c 0,49,50
 891 686 891 686 860 648 c 128,-1,51
 829 610 829 610 829 561 c 0,52,53
 829 489 829 489 889.5 438 c 128,-1,54
 950 387 950 387 1042 379 c 1,55,-1
 1042 575 l 2,46,47
EndSplineSet
EndChar

StartChar: s1
Encoding: 3384 3384 150
Width: 1810
GlyphClass: 2
Flags: W
LayerCount: 2
Fore
SplineSet
1812 395 m 0,0,1
 1812 215 1812 215 1741 109 c 0,2,3
 1657 -18 1657 -18 1485 -18 c 0,4,5
 1327 -18 1327 -18 1243 90 c 1,6,7
 1165 188 1165 188 1165 348 c 2,8,-1
 1165 475 l 2,9,10
 1165 682 1165 682 958 682 c 0,11,12
 788 682 788 682 788 489 c 2,13,-1
 788 -4 l 1,14,-1
 666 -4 l 1,15,-1
 666 489 l 2,16,17
 666 582 666 582 608.5 633 c 128,-1,18
 551 684 551 684 465 684 c 0,19,20
 352 684 352 684 289 590 c 1,21,22
 231 506 231 506 231 389 c 0,23,24
 231 154 231 154 412 61 c 1,25,-1
 350 -23 l 1,26,27
 123 102 123 102 123 387 c 0,28,29
 123 551 123 551 213 666 c 0,30,31
 309 788 309 788 469 788 c 0,32,33
 649 788 649 788 727 680 c 1,34,35
 801 788 801 788 950 788 c 0,36,37
 1110 788 1110 788 1201 699 c 128,-1,38
 1292 610 1292 610 1292 465 c 2,39,-1
 1292 322 l 2,40,41
 1292 219 1292 219 1339 156 c 0,42,43
 1391 86 1391 86 1487 86 c 0,44,45
 1602 86 1602 86 1659 184 c 0,46,47
 1706 264 1706 264 1706 397 c 0,48,49
 1706 625 1706 625 1507 715 c 1,50,-1
 1567 793 l 1,51,52
 1812 674 1812 674 1812 395 c 0,0,1
EndSplineSet
EndChar

StartChar: h1
Encoding: 3385 3385 151
Width: 1615
GlyphClass: 2
Flags: W
LayerCount: 2
Fore
SplineSet
1616 379 m 0,0,1
 1616 96 1616 96 1362 -10 c 1,2,-1
 1315 78 l 1,3,4
 1499 164 1499 164 1499 379 c 0,5,6
 1499 506 1499 506 1424.5 595 c 128,-1,7
 1350 684 1350 684 1231 684 c 0,8,9
 1110 684 1110 684 1030 602 c 128,-1,10
 950 520 950 520 950 391 c 0,11,12
 950 299 950 299 987 209 c 0,13,14
 1032 100 1032 100 1110 70 c 1,15,-1
 1110 2 l 1,16,-1
 520 2 l 1,17,-1
 520 61 l 1,18,19
 621 106 621 106 621 238 c 0,20,21
 621 317 621 317 563.5 371.5 c 128,-1,22
 506 426 506 426 424 426 c 0,23,24
 344 426 344 426 285.5 375 c 128,-1,25
 227 324 227 324 227 244 c 0,26,27
 227 125 227 125 326 72 c 1,28,-1
 279 -12 l 1,29,30
 125 66 125 66 125 244 c 0,31,32
 125 362 125 362 215 447 c 128,-1,33
 305 532 305 532 426 532 c 0,34,35
 559 532 559 532 642 449.5 c 128,-1,36
 725 367 725 367 725 244 c 0,37,38
 725 141 725 141 684 94 c 1,39,-1
 928 94 l 1,40,41
 836 209 836 209 836 391 c 0,42,43
 836 565 836 565 950.5 675.5 c 128,-1,44
 1065 786 1065 786 1231 786 c 0,45,46
 1393 786 1393 786 1504.5 667.5 c 128,-1,47
 1616 549 1616 549 1616 379 c 0,0,1
EndSplineSet
EndChar

StartChar: uni0D3D
Encoding: 3389 3389 152
Width: 987
GlyphClass: 2
Flags: W
LayerCount: 2
Fore
SplineSet
1042 887 m 1,0,-1
 942 844 l 1,1,2
 936 885 936 885 905 912.5 c 128,-1,3
 874 940 874 940 831 938 c 1,4,5
 739 936 739 936 721 821 c 1,6,-1
 645 365 l 1,7,-1
 778 373 l 1,8,-1
 778 264 l 1,9,-1
 627 256 l 1,10,11
 618 199 618 199 535 -344 c 0,12,13
 504 -553 504 -553 315 -553 c 0,14,15
 150 -553 150 -553 104 -395 c 1,16,-1
 205 -352 l 1,17,18
 209 -393 209 -393 240.5 -421 c 128,-1,19
 272 -449 272 -449 315 -446 c 1,20,21
 408 -444 408 -444 426 -330 c 2,22,-1
 516 250 l 1,23,-1
 408 244 l 1,24,-1
 408 352 l 1,25,-1
 535 358 l 1,26,-1
 612 836 l 2,27,28
 645 1044 645 1044 831 1044 c 0,29,30
 997 1044 997 1044 1042 887 c 1,0,-1
EndSplineSet
EndChar

StartChar: uni0D3E
Encoding: 3390 3390 153
Width: 712
GlyphClass: 2
Flags: W
LayerCount: 2
Fore
SplineSet
713 395 m 0,0,1
 713 217 713 217 645 109 c 1,2,3
 563 -18 563 -18 406 -18 c 0,4,5
 279 -18 279 -18 207 55 c 1,6,7
 129 137 129 137 129 289 c 1,8,-1
 240 289 l 1,9,10
 240 209 240 209 286 147.5 c 128,-1,11
 332 86 332 86 406 86 c 0,12,13
 598 86 598 86 598 395 c 0,14,15
 598 684 598 684 416 684 c 0,16,17
 332 684 332 684 285 627.5 c 128,-1,18
 238 571 238 571 238 489 c 1,19,-1
 127 489 l 1,20,21
 129 616 129 616 201 696 c 1,22,23
 276 784 276 784 410 784 c 0,24,25
 563 784 563 784 643 666 c 0,26,27
 713 561 713 561 713 395 c 0,0,1
EndSplineSet
EndChar

StartChar: uni0D3F
Encoding: 3391 3391 154
Width: 212
GlyphClass: 2
Flags: W
LayerCount: 2
Fore
SplineSet
217 2 m 1,0,-1
 109 2 l 1,1,-1
 109 924 l 2,2,3
 109 1038 109 1038 -2 1040 c 1,4,5
 -49 1042 -49 1042 -82 1006.5 c 128,-1,6
 -115 971 -115 971 -115 924 c 0,7,8
 -115 868 -115 868 -100 840 c 1,9,-1
 -213 840 l 1,10,11
 -221 887 -221 887 -221 926 c 0,12,13
 -221 1022 -221 1022 -162.5 1084.5 c 128,-1,14
 -104 1147 -104 1147 -2 1147 c 0,15,16
 92 1147 92 1147 154.5 1091.5 c 128,-1,17
 217 1036 217 1036 217 938 c 2,18,-1
 217 2 l 1,0,-1
EndSplineSet
EndChar

StartChar: uni0D40
Encoding: 3392 3392 155
Width: 206
GlyphClass: 2
Flags: W
LayerCount: 2
Fore
SplineSet
213 0 m 1,0,-1
 104 0 l 1,1,-1
 102 897 l 2,2,3
 102 958 102 958 71.5 999 c 128,-1,4
 41 1040 41 1040 -18 1040 c 2,5,-1
 -27 1040 l 1,6,7
 23 995 23 995 23 940 c 0,8,9
 23 883 23 883 -20 839 c 128,-1,10
 -63 795 -63 795 -123 795 c 0,11,12
 -186 795 -186 795 -231 841 c 128,-1,13
 -276 887 -276 887 -276 950 c 0,14,15
 -276 1044 -276 1044 -199 1098 c 1,16,17
 -133 1143 -133 1143 -35 1143 c 0,18,19
 211 1143 211 1143 211 905 c 2,20,-1
 213 0 l 1,0,-1
-70 948 m 0,21,22
 -70 1012 -70 1012 -123 1012 c 256,23,24
 -176 1012 -176 1012 -176 948 c 0,25,26
 -176 887 -176 887 -123 887 c 256,27,28
 -70 887 -70 887 -70 948 c 0,21,22
EndSplineSet
EndChar

StartChar: u1
Encoding: 3393 3393 156
Width: 536
GlyphClass: 2
Flags: W
LayerCount: 2
Fore
SplineSet
524 -215 m 0,0,1
 522 -305 522 -305 464 -362.5 c 128,-1,2
 406 -420 406 -420 309 -420 c 0,3,4
 223 -420 223 -420 166 -367 c 0,5,6
 102 -309 102 -309 102 -207 c 0,7,8
 102 -121 102 -121 155.5 -60.5 c 128,-1,9
 209 0 209 0 272 0 c 1,10,11
 311 119 311 119 328 360 c 1,12,13
 338 483 338 483 275.5 588.5 c 128,-1,14
 213 694 213 694 127 688 c 1,15,-1
 141 786 l 1,16,17
 270 766 270 766 350 663.5 c 128,-1,18
 430 561 430 561 430 414 c 0,19,20
 430 160 430 160 371 -4 c 1,21,22
 444 -18 444 -18 485 -77.5 c 128,-1,23
 526 -137 526 -137 524 -215 c 0,0,1
428 -213 m 0,24,25
 430 -160 430 -160 396 -121 c 128,-1,26
 362 -82 362 -82 309 -82 c 256,27,28
 256 -82 256 -82 222 -120 c 128,-1,29
 188 -158 188 -158 188 -207 c 0,30,31
 188 -258 188 -258 220 -295 c 128,-1,32
 252 -332 252 -332 307 -332 c 0,33,34
 424 -332 424 -332 428 -213 c 0,24,25
EndSplineSet
EndChar

StartChar: u2
Encoding: 3394 3394 157
Width: 536
GlyphClass: 2
Flags: W
LayerCount: 2
Fore
SplineSet
524 -215 m 0,0,1
 522 -305 522 -305 462.5 -362.5 c 128,-1,2
 403 -420 403 -420 309 -420 c 0,3,4
 223 -420 223 -420 166 -367 c 0,5,6
 102 -309 102 -309 102 -207 c 0,7,8
 102 -121 102 -121 156.5 -60.5 c 128,-1,9
 211 0 211 0 272 0 c 1,10,11
 313 121 313 121 324 360 c 0,12,13
 330 487 330 487 270.5 585.5 c 128,-1,14
 211 684 211 684 123 686 c 1,15,-1
 135 786 l 1,16,17
 258 774 258 774 342 668.5 c 128,-1,18
 426 563 426 563 426 418 c 0,19,20
 426 158 426 158 371 -4 c 1,21,22
 442 -18 442 -18 484 -77.5 c 128,-1,23
 526 -137 526 -137 524 -215 c 0,0,1
418 -156 m 1,24,25
 383 -80 383 -80 309 -80 c 0,26,27
 225 -80 225 -80 197 -162 c 1,28,29
 233 -199 233 -199 303 -199 c 0,30,31
 377 -199 377 -199 418 -156 c 1,24,25
430 -201 m 1,32,33
 403 -246 403 -246 305 -246 c 0,34,35
 211 -246 211 -246 186 -207 c 1,36,37
 184 -256 184 -256 218 -294 c 128,-1,38
 252 -332 252 -332 307 -332 c 0,39,40
 365 -332 365 -332 397.5 -295 c 128,-1,41
 430 -258 430 -258 430 -201 c 1,32,33
EndSplineSet
EndChar

StartChar: r1
Encoding: 3395 3395 158
Width: 643
GlyphClass: 2
Flags: W
LayerCount: 2
Fore
SplineSet
635 -154 m 0,0,1
 635 -299 635 -299 522 -375 c 0,2,3
 430 -438 430 -438 303 -438 c 0,4,5
 188 -438 188 -438 123 -369 c 1,6,7
 61 -305 61 -305 61 -213 c 0,8,9
 61 -117 61 -117 118.5 -59.5 c 128,-1,10
 176 -2 176 -2 266 -2 c 0,11,12
 354 -2 354 -2 407.5 -64.5 c 128,-1,13
 461 -127 461 -127 461 -205 c 0,14,15
 461 -305 461 -305 395 -348 c 1,16,17
 543 -305 543 -305 543 -156 c 0,18,19
 543 -63 543 -63 375 118 c 128,-1,20
 207 299 207 299 221 662 c 1,21,22
 219 700 219 700 227 774 c 1,23,-1
 334 774 l 1,24,25
 332 674 332 674 332 616 c 0,26,27
 332 434 332 434 362.5 339 c 128,-1,28
 393 244 393 244 487 133 c 1,29,30
 573 33 573 33 602 -20 c 0,31,32
 635 -82 635 -82 635 -154 c 0,0,1
365 -213 m 0,33,34
 365 -158 365 -158 336 -120 c 128,-1,35
 307 -82 307 -82 258 -82 c 0,36,37
 154 -82 154 -82 154 -213 c 0,38,39
 154 -266 154 -266 185.5 -305 c 128,-1,40
 217 -344 217 -344 260 -344 c 0,41,42
 365 -344 365 -344 365 -213 c 0,33,34
EndSplineSet
EndChar

StartChar: uni0D46
Encoding: 3398 3398 159
Width: 968
GlyphClass: 2
Flags: W
LayerCount: 2
Fore
SplineSet
1006 356 m 0,0,1
 1006 104 1006 104 770 -14 c 1,2,-1
 711 68 l 1,3,4
 889 158 889 158 889 356 c 0,5,6
 889 496 889 496 801 590 c 128,-1,7
 713 684 713 684 565 684 c 0,8,9
 426 684 426 684 333 593 c 128,-1,10
 240 502 240 502 231 365 c 1,11,12
 248 416 248 416 309 444 c 1,13,14
 362 471 362 471 424 471 c 0,15,16
 530 471 530 471 602 401.5 c 128,-1,17
 674 332 674 332 674 229 c 0,18,19
 674 121 674 121 600 53.5 c 128,-1,20
 526 -14 526 -14 410 -14 c 0,21,22
 264 -14 264 -14 188 94 c 1,23,24
 125 186 125 186 125 328 c 0,25,26
 125 522 125 522 245 653 c 128,-1,27
 365 784 365 784 569 784 c 0,28,29
 766 784 766 784 886 662.5 c 128,-1,30
 1006 541 1006 541 1006 356 c 0,0,1
545 225 m 0,31,32
 545 285 545 285 506 329 c 128,-1,33
 467 373 467 373 406 373 c 0,34,35
 344 373 344 373 302 330 c 128,-1,36
 260 287 260 287 260 227 c 0,37,38
 260 170 260 170 302 128 c 128,-1,39
 344 86 344 86 406 86 c 0,40,41
 467 86 467 86 506 127 c 128,-1,42
 545 168 545 168 545 225 c 0,31,32
EndSplineSet
EndChar

StartChar: uni0D47
Encoding: 3399 3399 160
Width: 706
GlyphClass: 2
Flags: W
LayerCount: 2
Fore
SplineSet
754 182 m 0,0,1
 754 84 754 84 672 27 c 1,2,3
 598 -23 598 -23 496 -23 c 0,4,5
 317 -23 317 -23 217 92 c 0,6,7
 121 201 121 201 121 381 c 0,8,9
 121 559 121 559 217 670 c 0,10,11
 319 788 319 788 496 788 c 0,12,13
 598 788 598 788 672 737 c 1,14,15
 754 678 754 678 754 578 c 0,16,17
 754 506 754 506 706.5 463 c 128,-1,18
 659 420 659 420 588 420 c 0,19,20
 516 420 516 420 467 463 c 128,-1,21
 418 506 418 506 418 575 c 0,22,23
 418 631 418 631 465 682 c 1,24,-1
 461 684 l 1,25,26
 352 682 352 682 291 582 c 1,27,28
 240 496 240 496 240 381 c 0,29,30
 240 264 240 264 291 180 c 0,31,32
 352 80 352 80 461 78 c 1,33,-1
 465 80 l 1,34,35
 418 131 418 131 418 186 c 0,36,37
 418 256 418 256 467 298 c 128,-1,38
 516 340 516 340 588 340 c 0,39,40
 659 340 659 340 706.5 297 c 128,-1,41
 754 254 754 254 754 182 c 0,0,1
649 580 m 0,42,43
 649 641 649 641 588 641 c 0,44,45
 526 641 526 641 526 580 c 0,46,47
 526 520 526 520 588 520 c 0,48,49
 649 520 649 520 649 580 c 0,42,43
649 182 m 0,50,51
 649 246 649 246 588 246 c 0,52,53
 528 246 528 246 528 182 c 0,54,55
 528 119 528 119 588 119 c 0,56,57
 649 119 649 119 649 182 c 0,50,51
EndSplineSet
EndChar

StartChar: uni0D48
Encoding: 3400 3400 161
Width: 1976
GlyphClass: 2
Flags: W
LayerCount: 2
Fore
SplineSet
1978 356 m 0,0,1
 1978 104 1978 104 1743 -14 c 1,2,-1
 1683 68 l 1,3,4
 1862 158 1862 158 1862 356 c 0,5,6
 1862 496 1862 496 1774 590 c 128,-1,7
 1686 684 1686 684 1538 684 c 0,8,9
 1399 684 1399 684 1305.5 593 c 128,-1,10
 1212 502 1212 502 1204 365 c 1,11,12
 1221 416 1221 416 1282 444 c 1,13,14
 1335 471 1335 471 1397 471 c 0,15,16
 1503 471 1503 471 1575 401.5 c 128,-1,17
 1647 332 1647 332 1647 229 c 0,18,19
 1647 121 1647 121 1573 53.5 c 128,-1,20
 1499 -14 1499 -14 1382 -14 c 0,21,22
 1237 -14 1237 -14 1161 94 c 1,23,24
 1098 186 1098 186 1098 328 c 0,25,26
 1098 522 1098 522 1217.5 653 c 128,-1,27
 1337 784 1337 784 1542 784 c 0,28,29
 1739 784 1739 784 1858.5 662.5 c 128,-1,30
 1978 541 1978 541 1978 356 c 0,0,1
1518 225 m 0,31,32
 1518 285 1518 285 1479 329 c 128,-1,33
 1440 373 1440 373 1378 373 c 0,34,35
 1317 373 1317 373 1275 330 c 128,-1,36
 1233 287 1233 287 1233 227 c 0,37,38
 1233 170 1233 170 1275 128 c 128,-1,39
 1317 86 1317 86 1378 86 c 0,40,41
 1440 86 1440 86 1479 127 c 128,-1,42
 1518 168 1518 168 1518 225 c 0,31,32
1006 356 m 0,43,44
 1006 104 1006 104 770 -14 c 1,45,-1
 711 68 l 1,46,47
 889 158 889 158 889 356 c 0,48,49
 889 496 889 496 801 590 c 128,-1,50
 713 684 713 684 565 684 c 0,51,52
 426 684 426 684 333 593 c 128,-1,53
 240 502 240 502 231 365 c 1,54,55
 248 416 248 416 309 444 c 1,56,57
 362 471 362 471 424 471 c 0,58,59
 530 471 530 471 602 401.5 c 128,-1,60
 674 332 674 332 674 229 c 0,61,62
 674 121 674 121 600 53.5 c 128,-1,63
 526 -14 526 -14 410 -14 c 0,64,65
 264 -14 264 -14 188 94 c 1,66,67
 125 186 125 186 125 328 c 0,68,69
 125 522 125 522 245 653 c 128,-1,70
 365 784 365 784 569 784 c 0,71,72
 766 784 766 784 886 662.5 c 128,-1,73
 1006 541 1006 541 1006 356 c 0,43,44
545 225 m 0,74,75
 545 285 545 285 506 329 c 128,-1,76
 467 373 467 373 406 373 c 0,77,78
 344 373 344 373 302 330 c 128,-1,79
 260 287 260 287 260 227 c 0,80,81
 260 170 260 170 302 128 c 128,-1,82
 344 86 344 86 406 86 c 0,83,84
 467 86 467 86 506 127 c 128,-1,85
 545 168 545 168 545 225 c 0,74,75
EndSplineSet
EndChar

StartChar: uni0D4A
Encoding: 3402 3402 162
Width: 2308
GlyphClass: 2
Flags: W
LayerCount: 2
Fore
SplineSet
2310 190 m 2,0,1
 2310 68 2310 68 2222 -20.5 c 128,-1,2
 2134 -109 2134 -109 2009 -109 c 2,3,-1
 465 -109 l 2,4,5
 340 -109 340 -109 252 -20.5 c 128,-1,6
 164 68 164 68 164 190 c 2,7,-1
 164 877 l 2,8,9
 164 999 164 999 252 1087.5 c 128,-1,10
 340 1176 340 1176 465 1176 c 2,11,-1
 2009 1176 l 2,12,13
 2134 1176 2134 1176 2222 1087.5 c 128,-1,14
 2310 999 2310 999 2310 877 c 2,15,-1
 2310 190 l 2,0,1
2222 283 m 2,16,-1
 2222 788 l 2,17,18
 2222 913 2222 913 2134 1001.5 c 128,-1,19
 2046 1090 2046 1090 1923 1090 c 2,20,-1
 551 1090 l 2,21,22
 428 1090 428 1090 340 1001.5 c 128,-1,23
 252 913 252 913 252 788 c 2,24,-1
 252 283 l 2,25,26
 252 160 252 160 340 72 c 128,-1,27
 428 -16 428 -16 551 -16 c 2,28,-1
 1923 -16 l 2,29,30
 2046 -16 2046 -16 2134 72 c 128,-1,31
 2222 160 2222 160 2222 283 c 2,16,-1
2091 524 m 0,32,33
 2091 135 2091 135 1819 135 c 0,34,35
 1567 135 1567 135 1569 387 c 1,36,-1
 1569 391 l 1,37,-1
 1630 391 l 1,38,39
 1647 307 1647 307 1669 279 c 0,40,41
 1700 238 1700 238 1776 238 c 0,42,43
 1882 238 1882 238 1921 336 c 0,44,45
 1946 399 1946 399 1946 526 c 0,46,47
 1946 811 1946 811 1796 811 c 0,48,49
 1702 811 1702 811 1667 752 c 1,50,51
 1642 715 1642 715 1630 610 c 1,52,-1
 1569 610 l 1,53,-1
 1569 614 l 2,54,55
 1569 754 1569 754 1616 817 c 0,56,57
 1671 891 1671 891 1804 891 c 0,58,59
 2091 891 2091 891 2091 524 c 0,32,33
1493 446 m 1,60,-1
 1317 446 l 1,61,-1
 1317 530 l 1,62,-1
 1493 530 l 1,63,-1
 1493 446 l 1,60,-1
1247 510 m 0,64,65
 1247 301 1247 301 1010 125 c 1,66,-1
 915 162 l 1,67,68
 1090 291 1090 291 1090 483 c 0,69,70
 1090 614 1090 614 995.5 707.5 c 128,-1,71
 901 801 901 801 770 801 c 0,72,73
 629 801 629 801 536.5 706.5 c 128,-1,74
 444 612 444 612 426 471 c 1,75,-1
 432 465 l 1,76,77
 518 584 518 584 633 584 c 0,78,79
 725 584 725 584 791.5 512 c 128,-1,80
 858 440 858 440 858 348 c 0,81,82
 858 250 858 250 796.5 192.5 c 128,-1,83
 735 135 735 135 637 135 c 0,84,85
 510 135 510 135 434 225 c 1,86,87
 367 311 367 311 367 442 c 0,88,89
 367 627 367 627 491.5 759 c 128,-1,90
 616 891 616 891 801 891 c 0,91,92
 973 891 973 891 1104 788 c 1,93,94
 1247 678 1247 678 1247 510 c 0,64,65
733 360 m 0,95,96
 733 420 733 420 696 462 c 128,-1,97
 659 504 659 504 600 504 c 256,98,99
 541 504 541 504 500 467 c 128,-1,100
 459 430 459 430 459 371 c 0,101,102
 459 315 459 315 501 272 c 128,-1,103
 543 229 543 229 598 229 c 0,104,105
 651 229 651 229 692 268 c 128,-1,106
 733 307 733 307 733 360 c 0,95,96
EndSplineSet
EndChar

StartChar: uni0D4B
Encoding: 3403 3403 163
Width: 2125
GlyphClass: 2
Flags: W
LayerCount: 2
Fore
SplineSet
2128 190 m 2,0,1
 2128 68 2128 68 2040 -20.5 c 128,-1,2
 1952 -109 1952 -109 1829 -109 c 2,3,-1
 465 -109 l 2,4,5
 340 -109 340 -109 252 -20.5 c 128,-1,6
 164 68 164 68 164 190 c 2,7,-1
 164 877 l 2,8,9
 164 999 164 999 252 1087.5 c 128,-1,10
 340 1176 340 1176 465 1176 c 2,11,-1
 1829 1176 l 2,12,13
 1952 1176 1952 1176 2040 1087.5 c 128,-1,14
 2128 999 2128 999 2128 877 c 2,15,-1
 2128 190 l 2,0,1
2056 258 m 2,16,-1
 2056 788 l 2,17,18
 2056 913 2056 913 1968 1001.5 c 128,-1,19
 1880 1090 1880 1090 1755 1090 c 2,20,-1
 557 1090 l 2,21,22
 434 1090 434 1090 346 1001.5 c 128,-1,23
 258 913 258 913 258 788 c 2,24,-1
 258 258 l 2,25,26
 258 135 258 135 346 47 c 128,-1,27
 434 -41 434 -41 557 -41 c 2,28,-1
 1755 -41 l 2,29,30
 1880 -41 1880 -41 1968 47 c 128,-1,31
 2056 135 2056 135 2056 258 c 2,16,-1
1888 522 m 0,32,33
 1888 133 1888 133 1616 133 c 0,34,35
 1366 133 1366 133 1366 385 c 2,36,-1
 1366 389 l 1,37,-1
 1425 389 l 1,38,39
 1442 305 1442 305 1464 276 c 1,40,41
 1497 238 1497 238 1573 238 c 0,42,43
 1743 238 1743 238 1743 524 c 0,44,45
 1743 809 1743 809 1591 809 c 0,46,47
 1499 809 1499 809 1462 752 c 1,48,49
 1442 715 1442 715 1425 608 c 1,50,-1
 1366 608 l 1,51,-1
 1366 614 l 2,52,53
 1366 752 1366 752 1413 815 c 1,54,55
 1466 891 1466 891 1602 891 c 0,56,57
 1888 891 1888 891 1888 522 c 0,32,33
1290 446 m 1,58,-1
 1112 446 l 1,59,-1
 1112 528 l 1,60,-1
 1290 528 l 1,61,-1
 1290 446 l 1,58,-1
1038 336 m 0,62,63
 1038 236 1038 236 932 180 c 1,64,65
 848 139 848 139 733 139 c 0,66,67
 559 139 559 139 466 242.5 c 128,-1,68
 373 346 373 346 373 522 c 0,69,70
 373 694 373 694 468 793.5 c 128,-1,71
 563 893 563 893 733 893 c 0,72,73
 846 893 846 893 932 852 c 1,74,75
 1038 799 1038 799 1038 698 c 0,76,77
 1038 551 1038 551 897 551 c 0,78,79
 827 551 827 551 778 587 c 128,-1,80
 729 623 729 623 729 690 c 0,81,82
 729 782 729 782 786 825 c 1,83,84
 760 838 760 838 725 838 c 0,85,86
 510 838 510 838 510 522 c 0,87,88
 510 195 510 195 725 195 c 0,89,90
 760 195 760 195 786 209 c 1,91,92
 729 242 729 242 729 336 c 0,93,94
 729 399 729 399 782 438 c 0,95,96
 829 473 829 473 897 473 c 0,97,98
 958 473 958 473 998 435 c 128,-1,99
 1038 397 1038 397 1038 336 c 0,62,63
979 694 m 0,100,101
 979 795 979 795 885 813 c 1,102,103
 827 786 827 786 827 702 c 0,104,105
 827 606 827 606 897 606 c 0,106,107
 979 606 979 606 979 694 c 0,100,101
979 340 m 0,108,109
 979 373 979 373 954.5 395.5 c 128,-1,110
 930 418 930 418 897 418 c 0,111,112
 827 418 827 418 827 330 c 0,113,114
 827 250 827 250 885 219 c 1,115,116
 979 240 979 240 979 340 c 0,108,109
EndSplineSet
EndChar

StartChar: uni0D4C
Encoding: 3404 3404 164
Width: 1015
GlyphClass: 2
Flags: W
LayerCount: 2
Fore
SplineSet
1020 397 m 0,0,1
 1020 238 1020 238 944 127 c 0,2,3
 844 -18 844 -18 639 -18 c 0,4,5
 496 -18 496 -18 414 63 c 0,6,7
 344 131 344 131 344 217 c 1,8,-1
 455 217 l 1,9,10
 483 84 483 84 633 84 c 0,11,12
 899 84 899 84 899 393 c 0,13,14
 899 674 899 674 705 674 c 0,15,16
 649 674 649 674 608 635 c 128,-1,17
 567 596 567 596 567 535 c 2,18,-1
 567 397 l 1,19,-1
 444 395 l 1,20,-1
 444 520 l 2,21,22
 444 674 444 674 317 674 c 0,23,24
 242 674 242 674 209 627 c 128,-1,25
 176 580 176 580 176 467 c 0,26,27
 176 449 176 449 180 379 c 1,28,-1
 76 379 l 1,29,30
 66 459 66 459 66 481 c 0,31,32
 66 784 66 784 338 784 c 0,33,34
 453 784 453 784 508 690 c 1,35,36
 545 741 545 741 586 762 c 0,37,38
 635 786 635 786 727 786 c 0,39,40
 854 786 854 786 937 682 c 128,-1,41
 1020 578 1020 578 1020 397 c 0,0,1
EndSplineSet
EndChar

StartChar: xx
Encoding: 3405 3405 165
Width: 10
GlyphClass: 2
Flags: W
LayerCount: 2
Fore
SplineSet
309 1020 m 0,0,1
 309 922 309 922 243.5 853 c 128,-1,2
 178 784 178 784 86 784 c 256,3,4
 -6 784 -6 784 -71.5 853 c 128,-1,5
 -137 922 -137 922 -137 1020 c 0,6,7
 -137 1038 -137 1038 -135 1049 c 1,8,-1
 -33 1049 l 1,9,10
 -35 1040 -35 1040 -35 1020 c 0,11,12
 -35 963 -35 963 1 925 c 128,-1,13
 37 887 37 887 86 887 c 256,14,15
 135 887 135 887 171 925 c 128,-1,16
 207 963 207 963 207 1020 c 0,17,18
 207 1034 207 1034 205 1049 c 1,19,-1
 307 1049 l 1,20,21
 309 1038 309 1038 309 1020 c 0,0,1
EndSplineSet
EndChar

StartChar: uni0D57
Encoding: 3415 3415 166
Width: 1015
GlyphClass: 2
Flags: W
LayerCount: 2
Fore
SplineSet
1020 397 m 0,0,1
 1020 238 1020 238 944 127 c 0,2,3
 844 -18 844 -18 639 -18 c 0,4,5
 496 -18 496 -18 414 63 c 0,6,7
 344 131 344 131 344 217 c 1,8,-1
 455 217 l 1,9,10
 483 84 483 84 633 84 c 0,11,12
 899 84 899 84 899 393 c 0,13,14
 899 674 899 674 705 674 c 0,15,16
 649 674 649 674 608 635 c 128,-1,17
 567 596 567 596 567 535 c 2,18,-1
 567 397 l 1,19,-1
 444 395 l 1,20,-1
 444 520 l 2,21,22
 444 674 444 674 317 674 c 0,23,24
 242 674 242 674 209 627 c 128,-1,25
 176 580 176 580 176 467 c 0,26,27
 176 449 176 449 180 379 c 1,28,-1
 76 379 l 1,29,30
 66 459 66 459 66 481 c 0,31,32
 66 784 66 784 338 784 c 0,33,34
 453 784 453 784 508 690 c 1,35,36
 545 741 545 741 586 762 c 0,37,38
 635 786 635 786 727 786 c 0,39,40
 854 786 854 786 937 682 c 128,-1,41
 1020 578 1020 578 1020 397 c 0,0,1
EndSplineSet
EndChar

StartChar: uni0d60
Encoding: 3424 3424 167
Width: 1214
GlyphClass: 2
Flags: W
LayerCount: 2
Fore
SplineSet
1219 479 m 0,0,1
 1219 358 1219 358 1159 266 c 1,2,3
 1098 168 1098 168 997 156 c 1,4,-1
 997 145 l 1,5,6
 1192 111 1192 111 1192 -61 c 0,7,8
 1192 -207 1192 -207 1010 -274 c 1,9,10
 874 -326 874 -326 668 -326 c 0,11,12
 461 -326 461 -326 330 -274 c 1,13,14
 158 -209 158 -209 158 -61 c 0,15,16
 158 111 158 111 348 145 c 1,17,-1
 348 152 l 1,18,19
 233 174 233 174 176 270 c 1,20,21
 123 356 123 356 123 481 c 0,22,23
 123 610 123 610 186 692 c 1,24,25
 256 786 256 786 387 786 c 0,26,27
 483 786 483 786 546.5 721.5 c 128,-1,28
 610 657 610 657 610 557 c 0,29,30
 610 461 610 461 549.5 396.5 c 128,-1,31
 489 332 489 332 397 332 c 0,32,33
 342 332 342 332 293 364.5 c 128,-1,34
 244 397 244 397 227 451 c 1,35,36
 227 195 227 195 668 195 c 0,37,38
 1114 195 1114 195 1114 451 c 1,39,40
 1100 395 1100 395 1049.5 363.5 c 128,-1,41
 999 332 999 332 942 332 c 0,42,43
 852 332 852 332 793.5 398.5 c 128,-1,44
 735 465 735 465 735 559 c 0,45,46
 735 659 735 659 797.5 722.5 c 128,-1,47
 860 786 860 786 958 786 c 0,48,49
 1081 786 1081 786 1153 690 c 1,50,51
 1219 606 1219 606 1219 479 c 0,0,1
1077 561 m 256,52,53
 1077 612 1077 612 1044.5 647 c 128,-1,54
 1012 682 1012 682 954 682 c 0,55,56
 899 682 899 682 865 647 c 128,-1,57
 831 612 831 612 831 563 c 0,58,59
 831 512 831 512 866 472 c 128,-1,60
 901 432 901 432 954 432 c 0,61,62
 1012 432 1012 432 1044.5 471 c 128,-1,63
 1077 510 1077 510 1077 561 c 256,52,53
504 561 m 256,64,65
 504 612 504 612 472 647 c 128,-1,66
 440 682 440 682 383 682 c 0,67,68
 328 682 328 682 293 647 c 128,-1,69
 258 612 258 612 258 563 c 0,70,71
 258 512 258 512 293 472 c 128,-1,72
 328 432 328 432 383 432 c 256,73,74
 438 432 438 432 471 471 c 128,-1,75
 504 510 504 510 504 561 c 256,64,65
1073 -61 m 0,76,77
 1073 86 1073 86 668 86 c 0,78,79
 274 86 274 86 274 -61 c 0,80,81
 274 -215 274 -215 668 -215 c 0,82,83
 805 -215 805 -215 911 -190 c 0,84,85
 1073 -152 1073 -152 1073 -61 c 0,76,77
936 -63 m 0,86,87
 936 -100 936 -100 898 -133 c 128,-1,88
 860 -166 860 -166 809 -166 c 1,89,-1
 776 -102 l 1,90,91
 801 -102 801 -102 824.5 -88 c 128,-1,92
 848 -74 848 -74 848 -63 c 0,93,94
 848 -27 848 -27 764 -27 c 0,95,96
 723 -27 723 -27 723 -43 c 2,97,-1
 723 -162 l 1,98,-1
 633 -162 l 1,99,-1
 633 -43 l 2,100,101
 633 -27 633 -27 584 -27 c 0,102,103
 504 -27 504 -27 504 -63 c 0,104,105
 504 -76 504 -76 525.5 -91 c 128,-1,106
 547 -106 547 -106 575 -111 c 1,107,-1
 539 -168 l 1,108,109
 414 -139 414 -139 414 -66 c 0,110,111
 414 -20 414 -20 463 7.5 c 128,-1,112
 512 35 512 35 584 35 c 0,113,114
 639 35 639 35 678 14 c 1,115,116
 715 35 715 35 768 35 c 0,117,118
 840 35 840 35 888 7.5 c 128,-1,119
 936 -20 936 -20 936 -63 c 0,86,87
EndSplineSet
EndChar

StartChar: l2
Encoding: 3425 3425 168
Width: 1708
GlyphClass: 2
Flags: W
LayerCount: 2
Fore
SplineSet
1708 170 m 0,0,1
 1708 -29 1708 -29 1597 -168 c 1,2,3
 1479 -319 1479 -319 1284 -319 c 0,4,5
 1169 -319 1169 -319 1071 -254 c 1,6,-1
 1114 -166 l 1,7,8
 1196 -227 1196 -227 1284 -227 c 0,9,10
 1434 -227 1434 -227 1524 -102 c 1,11,12
 1606 8 1606 8 1606 164 c 0,13,14
 1606 446 1606 446 1421 498 c 1,15,16
 1462 420 1462 420 1462 319 c 0,17,18
 1462 178 1462 178 1405 90 c 1,19,20
 1335 -14 1335 -14 1202 -14 c 0,21,22
 1077 -14 1077 -14 1012 70 c 1,23,24
 950 143 950 143 950 272 c 0,25,26
 950 410 950 410 1031 506 c 128,-1,27
 1112 602 1112 602 1247 602 c 1,28,29
 1202 682 1202 682 1061 682 c 0,30,31
 973 682 973 682 918.5 631 c 128,-1,32
 864 580 864 580 864 494 c 2,33,-1
 864 0 l 1,34,-1
 752 0 l 1,35,-1
 752 494 l 2,36,37
 752 582 752 582 693.5 632 c 128,-1,38
 635 682 635 682 547 682 c 0,39,40
 414 682 414 682 327 590 c 128,-1,41
 240 498 240 498 231 365 c 1,42,43
 250 416 250 416 311 446 c 0,44,45
 362 471 362 471 424 471 c 0,46,47
 528 471 528 471 601 402.5 c 128,-1,48
 674 334 674 334 674 229 c 0,49,50
 674 117 674 117 599 51.5 c 128,-1,51
 524 -14 524 -14 410 -14 c 0,52,53
 268 -14 268 -14 193 90 c 1,54,55
 125 182 125 182 125 328 c 0,56,57
 125 483 125 483 205 607 c 128,-1,58
 285 731 285 731 428 772 c 1,59,60
 483 786 483 786 559 786 c 0,61,62
 748 786 748 786 807 664 c 1,63,64
 862 786 862 786 1042 786 c 0,65,66
 1264 786 1264 786 1368 604 c 1,67,68
 1536 586 1536 586 1626 459 c 0,69,70
 1708 344 1708 344 1708 170 c 0,0,1
1362 295 m 0,71,72
 1362 420 1362 420 1309 510 c 1,73,74
 1290 512 1290 512 1272 512 c 0,75,76
 1171 512 1171 512 1112 443.5 c 128,-1,77
 1053 375 1053 375 1053 270 c 0,78,79
 1053 193 1053 193 1087 141 c 0,80,81
 1126 82 1126 82 1200 82 c 0,82,83
 1362 82 1362 82 1362 295 c 0,71,72
545 225 m 0,84,85
 545 285 545 285 505 329 c 128,-1,86
 465 373 465 373 406 373 c 0,87,88
 346 373 346 373 303 331 c 128,-1,89
 260 289 260 289 260 227 c 0,90,91
 260 168 260 168 303 127 c 128,-1,92
 346 86 346 86 406 86 c 0,93,94
 465 86 465 86 505 126 c 128,-1,95
 545 166 545 166 545 225 c 0,84,85
EndSplineSet
EndChar

StartChar: uni0D66
Encoding: 3430 3430 169
Width: 942
GlyphClass: 2
Flags: W
LayerCount: 2
Fore
SplineSet
1075 739 m 1,0,-1
 475 739 l 2,1,2
 362 739 362 739 293.5 647 c 128,-1,3
 225 555 225 555 225 418 c 0,4,5
 225 279 225 279 293 188 c 1,6,7
 362 92 362 92 475 92 c 0,8,9
 590 92 590 92 659 188 c 1,10,11
 727 279 727 279 727 418 c 0,12,13
 727 592 727 592 602 696 c 1,14,-1
 752 696 l 1,15,16
 831 578 831 578 831 418 c 0,17,18
 831 229 831 229 737 106 c 0,19,20
 639 -23 639 -23 477 -23 c 256,21,22
 315 -23 315 -23 215 106 c 1,23,24
 121 229 121 229 121 418 c 0,25,26
 121 621 121 621 227.5 737.5 c 128,-1,27
 334 854 334 854 504 854 c 2,28,-1
 1075 854 l 1,29,-1
 1075 739 l 1,0,-1
EndSplineSet
EndChar

StartChar: uni0D67
Encoding: 3431 3431 170
Width: 1089
GlyphClass: 2
Flags: W
LayerCount: 2
Fore
SplineSet
1085 0 m 1,0,-1
 305 -2 l 2,1,2
 168 -2 168 -2 168 -100 c 0,3,4
 168 -154 168 -154 213 -184 c 0,5,6
 252 -209 252 -209 305 -209 c 2,7,-1
 567 -209 l 1,8,-1
 567 -317 l 1,9,-1
 287 -317 l 2,10,11
 190 -317 190 -317 122.5 -256 c 128,-1,12
 55 -195 55 -195 55 -100 c 0,13,14
 55 -6 55 -6 116.5 54.5 c 128,-1,15
 178 115 178 115 270 115 c 2,16,-1
 371 115 l 1,17,-1
 371 500 l 2,18,19
 371 657 371 657 474.5 767 c 128,-1,20
 578 877 578 877 727 877 c 0,21,22
 877 877 877 877 981 770.5 c 128,-1,23
 1085 664 1085 664 1085 510 c 2,24,-1
 1085 0 l 1,0,-1
967 115 m 1,25,-1
 967 504 l 2,26,27
 967 612 967 612 897 687 c 128,-1,28
 827 762 827 762 727 762 c 256,29,30
 627 762 627 762 558 686 c 128,-1,31
 489 610 489 610 489 502 c 2,32,-1
 489 115 l 1,33,-1
 967 115 l 1,25,-1
EndSplineSet
EndChar

StartChar: uni0D68
Encoding: 3432 3432 171
Width: 1134
GlyphClass: 2
Flags: W
LayerCount: 2
Fore
SplineSet
1196 0 m 1,0,-1
 672 0 l 1,1,-1
 672 90 l 1,2,3
 852 197 852 197 852 420 c 0,4,5
 852 565 852 565 763 661.5 c 128,-1,6
 674 758 674 758 537 758 c 0,7,8
 399 758 399 758 312 659.5 c 128,-1,9
 225 561 225 561 225 414 c 0,10,11
 225 291 225 291 286.5 195.5 c 128,-1,12
 348 100 348 100 459 61 c 1,13,-1
 385 -16 l 1,14,15
 258 41 258 41 189.5 155.5 c 128,-1,16
 121 270 121 270 121 416 c 0,17,18
 121 612 121 612 244 742 c 128,-1,19
 367 872 367 872 551 872 c 0,20,21
 731 872 731 872 846 745 c 128,-1,22
 961 618 961 618 961 424 c 0,23,24
 961 213 961 213 844 115 c 1,25,-1
 1196 115 l 1,26,-1
 1196 0 l 1,0,-1
EndSplineSet
EndChar

StartChar: uni0D69
Encoding: 3433 3433 172
Width: 1552
GlyphClass: 2
Flags: W
LayerCount: 2
Fore
SplineSet
1612 0 m 1,0,-1
 1087 0 l 1,1,-1
 1087 90 l 1,2,3
 1268 197 1268 197 1268 420 c 0,4,5
 1268 545 1268 545 1206 645 c 0,6,7
 1135 758 1135 758 1022 758 c 0,8,9
 934 758 934 758 876.5 695.5 c 128,-1,10
 819 633 819 633 819 541 c 2,11,-1
 819 0 l 1,12,-1
 700 0 l 1,13,-1
 700 541 l 2,14,15
 700 625 700 625 646 694.5 c 128,-1,16
 592 764 592 764 514 764 c 0,17,18
 393 764 393 764 316.5 664.5 c 128,-1,19
 240 565 240 565 240 434 c 0,20,21
 240 311 240 311 301 211 c 1,22,23
 365 104 365 104 469 59 c 1,24,-1
 387 -23 l 1,25,26
 266 41 266 41 199.5 161 c 128,-1,27
 133 281 133 281 133 426 c 0,28,29
 133 612 133 612 238.5 742 c 128,-1,30
 344 872 344 872 516 872 c 0,31,32
 592 872 592 872 659.5 834.5 c 128,-1,33
 727 797 727 797 760 727 c 1,34,35
 788 797 788 797 874 838 c 1,36,37
 948 872 948 872 1030 872 c 0,38,39
 1192 872 1192 872 1292 731 c 1,40,41
 1380 602 1380 602 1380 424 c 0,42,43
 1380 248 1380 248 1274 115 c 1,44,-1
 1612 115 l 1,45,-1
 1612 0 l 1,0,-1
EndSplineSet
EndChar

StartChar: uni0D6A
Encoding: 3434 3434 173
Width: 1044
GlyphClass: 2
Flags: W
LayerCount: 2
Fore
SplineSet
1042 332 m 0,0,1
 1042 197 1042 197 983 94 c 1,2,3
 913 -25 913 -25 795 -25 c 0,4,5
 680 -25 680 -25 618 88 c 0,6,7
 567 180 567 180 567 309 c 2,8,-1
 567 758 l 1,9,10
 426 750 426 750 333 635 c 128,-1,11
 240 520 240 520 240 369 c 0,12,13
 240 172 240 172 387 59 c 1,14,-1
 307 -20 l 1,15,16
 133 129 133 129 133 377 c 0,17,18
 133 575 133 575 257 719.5 c 128,-1,19
 381 864 381 864 567 870 c 1,20,-1
 567 1073 l 1,21,-1
 682 1073 l 1,22,-1
 682 860 l 1,23,24
 866 834 866 834 961 670 c 0,25,26
 1042 530 1042 530 1042 332 c 0,0,1
926 334 m 0,27,28
 926 481 926 481 872 584 c 1,29,30
 809 709 809 709 682 741 c 1,31,-1
 682 311 l 2,32,33
 682 236 682 236 705 176 c 1,34,35
 735 92 735 92 797 92 c 0,36,37
 864 92 864 92 899 184 c 1,38,39
 926 252 926 252 926 334 c 0,27,28
EndSplineSet
EndChar

StartChar: uni0D6B
Encoding: 3435 3435 174
Width: 1460
GlyphClass: 2
Flags: W
LayerCount: 2
Fore
SplineSet
1462 430 m 0,0,1
 1462 186 1462 186 1329 -20 c 1,2,-1
 1239 33 l 1,3,4
 1346 211 1346 211 1346 420 c 0,5,6
 1346 664 1346 664 1196.5 824.5 c 128,-1,7
 1047 985 1047 985 803 985 c 0,8,9
 547 985 547 985 387 807 c 1,10,11
 236 637 236 637 236 379 c 0,12,13
 236 -31 236 -31 516 -174 c 0,14,15
 610 -223 610 -223 713 -223 c 0,16,17
 848 -223 848 -223 938 -152 c 0,18,19
 1036 -74 1036 -74 1036 57 c 0,20,21
 1036 238 1036 238 872 238 c 2,22,-1
 772 238 l 1,23,-1
 772 360 l 1,24,-1
 872 360 l 2,25,26
 948 360 948 360 994 410.5 c 128,-1,27
 1040 461 1040 461 1040 537 c 0,28,29
 1040 635 1040 635 972.5 693.5 c 128,-1,30
 905 752 905 752 807 752 c 0,31,32
 653 752 653 752 561 633 c 0,33,34
 477 524 477 524 477 367 c 0,35,36
 477 199 477 199 555 16 c 1,37,-1
 455 -29 l 1,38,39
 369 182 369 182 369 381 c 0,40,41
 369 582 369 582 488.5 719 c 128,-1,42
 608 856 608 856 807 856 c 0,43,44
 954 856 954 856 1051 772 c 1,45,46
 1155 684 1155 684 1155 541 c 0,47,48
 1155 358 1155 358 1034 309 c 1,49,50
 1153 254 1153 254 1153 51 c 0,51,52
 1153 -129 1153 -129 1016 -238 c 0,53,54
 891 -338 891 -338 705 -338 c 0,55,56
 580 -338 580 -338 469 -285 c 0,57,58
 125 -121 125 -121 125 356 c 0,59,60
 125 676 125 676 303 879 c 0,61,62
 492 1094 492 1094 807 1094 c 0,63,64
 1096 1094 1096 1094 1279 906.5 c 128,-1,65
 1462 719 1462 719 1462 430 c 0,0,1
EndSplineSet
EndChar

StartChar: uni0D6C
Encoding: 3436 3436 175
Width: 1896
GlyphClass: 2
Flags: W
LayerCount: 2
Fore
SplineSet
1898 350 m 0,0,1
 1898 74 1898 74 1735 -129 c 0,2,3
 1565 -340 1565 -340 1315 -340 c 0,4,5
 1233 -340 1233 -340 1145 -307 c 1,6,-1
 1178 -197 l 1,7,8
 1243 -221 1243 -221 1315 -221 c 0,9,10
 1520 -221 1520 -221 1657 -45 c 1,11,12
 1790 123 1790 123 1790 350 c 0,13,14
 1790 520 1790 520 1729 631 c 0,15,16
 1657 764 1657 764 1516 764 c 0,17,18
 1436 764 1436 764 1382.5 699.5 c 128,-1,19
 1329 635 1329 635 1329 549 c 2,20,-1
 1329 0 l 1,21,-1
 1210 0 l 1,22,-1
 1210 567 l 2,23,24
 1210 649 1210 649 1153 706.5 c 128,-1,25
 1096 764 1096 764 1016 764 c 256,26,27
 936 764 936 764 877.5 707.5 c 128,-1,28
 819 651 819 651 819 567 c 2,29,-1
 819 0 l 1,30,-1
 700 0 l 1,31,-1
 700 549 l 2,32,33
 700 633 700 633 646 698.5 c 128,-1,34
 592 764 592 764 514 764 c 0,35,36
 393 764 393 764 319 659 c 0,37,38
 252 565 252 565 252 434 c 0,39,40
 252 309 252 309 307 211 c 1,41,42
 365 104 365 104 469 59 c 1,43,-1
 387 -23 l 1,44,45
 266 41 266 41 199.5 161 c 128,-1,46
 133 281 133 281 133 426 c 0,47,48
 133 612 133 612 238.5 744.5 c 128,-1,49
 344 877 344 877 516 877 c 0,50,51
 592 877 592 877 659.5 840 c 128,-1,52
 727 803 727 803 760 735 c 1,53,54
 815 877 815 877 1014 877 c 0,55,56
 1204 877 1204 877 1270 735 c 1,57,58
 1305 803 1305 803 1374 842 c 1,59,60
 1438 877 1438 877 1513 877 c 0,61,62
 1704 877 1704 877 1808 711 c 0,63,64
 1898 567 1898 567 1898 350 c 0,0,1
EndSplineSet
EndChar

StartChar: uni0D6D
Encoding: 3437 3437 176
Width: 1060
GlyphClass: 2
Flags: W
LayerCount: 2
Fore
SplineSet
1063 352 m 0,0,1
 1063 74 1063 74 897 -129 c 1,2,3
 723 -340 723 -340 473 -340 c 0,4,5
 391 -340 391 -340 307 -305 c 1,6,-1
 340 -201 l 1,7,8
 403 -221 403 -221 473 -221 c 0,9,10
 678 -221 678 -221 817 -47 c 0,11,12
 950 121 950 121 950 348 c 0,13,14
 950 520 950 520 856 635 c 1,15,16
 758 758 758 758 592 758 c 0,17,18
 442 758 442 758 346 660.5 c 128,-1,19
 250 563 250 563 242 406 c 1,20,21
 260 463 260 463 324 496 c 1,22,23
 379 522 379 522 442 522 c 0,24,25
 553 522 553 522 629 446.5 c 128,-1,26
 705 371 705 371 705 256 c 0,27,28
 705 129 705 129 627 56.5 c 128,-1,29
 549 -16 549 -16 428 -16 c 0,30,31
 281 -16 281 -16 199 98 c 1,32,33
 129 203 129 203 129 365 c 0,34,35
 129 586 129 586 258 729 c 128,-1,36
 387 872 387 872 596 872 c 0,37,38
 811 872 811 872 940 717 c 0,39,40
 1063 569 1063 569 1063 352 c 0,0,1
569 250 m 0,41,42
 569 317 569 317 528 365.5 c 128,-1,43
 487 414 487 414 426 414 c 0,44,45
 362 414 362 414 316 366.5 c 128,-1,46
 270 319 270 319 270 252 c 0,47,48
 270 186 270 186 315 141 c 128,-1,49
 360 96 360 96 424 96 c 0,50,51
 487 96 487 96 528 140 c 128,-1,52
 569 184 569 184 569 250 c 0,41,42
EndSplineSet
EndChar

StartChar: uni0D6E
Encoding: 3438 3438 177
Width: 1300
GlyphClass: 2
Flags: W
LayerCount: 2
Fore
SplineSet
1303 0 m 1,0,-1
 1300 -14 l 1,1,2
 1274 -182 1274 -182 1116 -268 c 0,3,4
 985 -340 985 -340 788 -340 c 0,5,6
 715 -340 715 -340 629 -307 c 1,7,-1
 662 -199 l 1,8,9
 725 -221 725 -221 799 -221 c 0,10,11
 930 -221 930 -221 1026 -182 c 0,12,13
 1155 -129 1155 -129 1171 -14 c 1,14,-1
 1174 0 l 1,15,-1
 682 0 l 1,16,-1
 682 90 l 1,17,18
 862 197 862 197 862 420 c 0,19,20
 862 567 862 567 772 666.5 c 128,-1,21
 682 766 682 766 547 766 c 0,22,23
 410 766 410 766 320.5 664.5 c 128,-1,24
 231 563 231 563 231 414 c 0,25,26
 231 152 231 152 459 68 c 1,27,-1
 395 -16 l 1,28,29
 133 104 133 104 133 416 c 0,30,31
 133 612 133 612 255 742 c 128,-1,32
 377 872 377 872 561 872 c 0,33,34
 741 872 741 872 856 745 c 128,-1,35
 971 618 971 618 971 424 c 0,36,37
 971 213 971 213 846 115 c 1,38,-1
 1184 115 l 1,39,-1
 1184 858 l 1,40,-1
 1303 858 l 1,41,-1
 1303 0 l 1,0,-1
EndSplineSet
EndChar

StartChar: uni0D6F
Encoding: 3439 3439 178
Width: 1470
GlyphClass: 2
Flags: W
LayerCount: 2
Fore
SplineSet
1473 332 m 0,0,1
 1473 197 1473 197 1413 94 c 0,2,3
 1343 -25 1343 -25 1225 -25 c 0,4,5
 1110 -25 1110 -25 1049 88 c 1,6,7
 997 180 997 180 997 309 c 2,8,-1
 997 758 l 1,9,10
 913 752 913 752 865 695.5 c 128,-1,11
 817 639 817 639 817 549 c 2,12,-1
 817 0 l 1,13,-1
 700 0 l 1,14,-1
 700 549 l 2,15,16
 700 631 700 631 645 694.5 c 128,-1,17
 590 758 590 758 512 758 c 0,18,19
 393 758 393 758 317 657 c 1,20,21
 250 565 250 565 250 434 c 0,22,23
 250 311 250 311 303 213 c 0,24,25
 360 106 360 106 463 61 c 1,26,-1
 385 -23 l 1,27,28
 264 39 264 39 197.5 160 c 128,-1,29
 131 281 131 281 131 426 c 0,30,31
 131 612 131 612 236.5 742 c 128,-1,32
 342 872 342 872 514 872 c 0,33,34
 672 872 672 872 758 727 c 1,35,36
 836 866 836 866 997 870 c 1,37,-1
 997 1206 l 1,38,-1
 1112 1206 l 1,39,-1
 1112 860 l 1,40,41
 1296 834 1296 834 1391 670 c 0,42,43
 1473 530 1473 530 1473 332 c 0,0,1
1356 334 m 0,44,45
 1356 481 1356 481 1303 584 c 0,46,47
 1239 709 1239 709 1112 741 c 1,48,-1
 1112 311 l 2,49,50
 1112 236 1112 236 1135 176 c 1,51,52
 1165 92 1165 92 1227 92 c 0,53,54
 1294 92 1294 92 1329 184 c 1,55,56
 1356 252 1356 252 1356 334 c 0,44,45
EndSplineSet
EndChar

StartChar: ZWNJ
Encoding: 8204 8204 179
Width: 321
GlyphClass: 2
Flags: W
LayerCount: 2
Fore
SplineSet
66 1032 m 1,0,-1
 225 1032 l 1,1,-1
 225 43 l 1,2,-1
 66 43 l 1,3,-1
 66 1032 l 1,0,-1
EndSplineSet
EndChar

StartChar: ZWJ
Encoding: 8205 8205 180
Width: 321
GlyphClass: 2
Flags: W
LayerCount: 2
Fore
SplineSet
225 43 m 1,0,-1
 66 43 l 1,1,-1
 66 913 l 1,2,-1
 141 1030 l 1,3,-1
 154 1030 l 1,4,-1
 223 922 l 1,5,-1
 225 43 l 1,0,-1
387 834 m 1,6,-1
 199 1110 l 1,7,-1
 377 1354 l 1,8,-1
 270 1354 l 1,9,-1
 186 1233 l 2,10,11
 154 1186 154 1186 145 1174 c 1,12,13
 125 1210 125 1210 111 1233 c 2,14,-1
 33 1354 l 1,15,-1
 -76 1354 l 1,16,-1
 96 1106 l 1,17,-1
 -90 834 l 1,18,-1
 14 834 l 1,19,-1
 66 913 l 1,20,-1
 66 1032 l 1,21,-1
 141 1030 l 1,22,-1
 147 1040 l 1,23,-1
 154 1030 l 1,24,-1
 223 1030 l 1,25,-1
 223 922 l 1,26,-1
 283 834 l 1,27,-1
 387 834 l 1,6,-1
EndSplineSet
EndChar

StartChar: uni25CC
Encoding: 9676 9676 181
Width: 952
GlyphClass: 2
Flags: W
LayerCount: 2
Fore
SplineSet
870 670 m 1,0,-1
 780 608 l 1,1,2
 741 674 741 674 721 686 c 1,3,-1
 719 686 l 1,4,5
 688 709 688 709 668 719 c 1,6,-1
 729 803 l 1,7,8
 797 760 797 760 823 733 c 2,9,-1
 825 731 l 1,10,11
 856 692 856 692 870 670 c 1,0,-1
578 864 m 1,12,-1
 561 764 l 1,13,14
 508 772 508 772 481 772 c 0,15,16
 451 772 451 772 397 764 c 1,17,-1
 381 864 l 1,18,19
 440 877 440 877 479 877 c 0,20,21
 522 877 522 877 578 864 c 1,12,-1
920 541 m 1,22,23
 932 494 932 494 932 447.5 c 128,-1,24
 932 401 932 401 920 354 c 1,25,-1
 815 371 l 1,26,27
 823 424 823 424 823 446 c 0,28,29
 823 475 823 475 815 524 c 1,30,-1
 920 541 l 1,22,23
870 225 m 1,31,32
 823 158 823 158 801 135 c 1,33,-1
 799 135 l 1,34,35
 795 131 795 131 770 116.5 c 128,-1,36
 745 102 745 102 729 92 c 1,37,-1
 668 176 l 1,38,39
 727 213 727 213 745 233 c 1,40,41
 774 276 774 276 780 287 c 1,42,-1
 870 225 l 1,31,32
295 719 m 1,43,44
 225 680 225 680 215 659 c 1,45,-1
 205 643 l 1,46,47
 193 627 193 627 182 608 c 1,48,-1
 92 670 l 1,49,50
 135 733 135 733 160 756 c 0,51,52
 170 764 170 764 231 803 c 1,53,-1
 295 719 l 1,43,44
147 371 m 1,54,-1
 41 354 l 1,55,56
 20 446 20 446 41 541 c 1,57,-1
 147 524 l 1,58,59
 137 496 137 496 137 446 c 0,60,61
 137 399 137 399 147 371 c 1,54,-1
578 31 m 1,62,63
 539 20 539 20 479 20 c 0,64,65
 424 20 424 20 381 31 c 1,66,-1
 397 131 l 1,67,68
 451 123 451 123 481 123 c 0,69,70
 508 123 508 123 561 131 c 1,71,-1
 578 31 l 1,62,63
295 176 m 1,72,-1
 231 92 l 1,73,74
 154 141 154 141 137 162 c 1,75,-1
 135 162 l 1,76,-1
 92 225 l 1,77,-1
 182 287 l 1,78,79
 223 223 223 223 242 211 c 0,80,81
 250 205 250 205 295 176 c 1,72,-1
EndSplineSet
EndChar

StartChar: r4
Encoding: 65539 -1 183
Width: 491
GlyphClass: 3
Flags: W
LayerCount: 2
Fore
SplineSet
551 -70 m 1,0,-1
 537 -186 l 1,1,2
 455 -205 455 -205 408 -205 c 0,3,4
 115 -205 115 -205 115 131 c 0,5,6
 115 268 115 268 152 494 c 1,7,8
 184 680 184 680 213 774 c 1,9,-1
 313 774 l 1,10,11
 221 393 221 393 221 150 c 0,12,13
 221 -109 221 -109 410 -109 c 0,14,15
 473 -109 473 -109 551 -70 c 1,0,-1
EndSplineSet
Ligature2: "'pstf' Post Base Forms in Malay+AQEA-lam lookup 7 subtable" r3 xx
EndChar

StartChar: y2
Encoding: 65540 -1 184
Width: 395
GlyphClass: 3
Flags: W
LayerCount: 2
Fore
SplineSet
530 -119 m 0,0,1
 530 -229 530 -229 447.5 -294.5 c 128,-1,2
 365 -360 365 -360 250 -360 c 0,3,4
 158 -360 158 -360 92 -317 c 0,5,6
 18 -268 18 -268 18 -180 c 0,7,8
 18 -113 18 -113 51 -84 c 1,9,10
 57 -76 57 -76 113 -51 c 0,11,12
 147 -35 147 -35 150 0 c 2,13,-1
 152 29 l 1,14,-1
 252 29 l 1,15,-1
 252 12 l 2,16,17
 252 -68 252 -68 192.5 -101.5 c 128,-1,18
 133 -135 133 -135 133 -180 c 0,19,20
 133 -256 133 -256 246 -256 c 0,21,22
 311 -256 311 -256 360.5 -219 c 128,-1,23
 410 -182 410 -182 410 -119 c 0,24,25
 410 -45 410 -45 348 41 c 0,26,27
 291 121 291 121 231 199 c 1,28,29
 168 301 168 301 160 410 c 1,30,31
 158 530 158 530 156 772 c 1,32,-1
 268 772 l 1,33,34
 266 668 266 668 272 457 c 1,35,36
 281 344 281 344 348 231 c 1,37,-1
 467 59 l 1,38,39
 530 -35 530 -35 530 -119 c 0,0,1
EndSplineSet
Ligature2: "'pstf' Post Base Forms in Malay+AQEA-lam lookup 7 subtable" y1 xx
EndChar

StartChar: y2u1
Encoding: 65541 -1 185
Width: 395
GlyphClass: 3
Flags: W
LayerCount: 2
Fore
SplineSet
612 -489 m 0,0,1
 612 -584 612 -584 545.5 -651.5 c 128,-1,2
 479 -719 479 -719 383 -719 c 0,3,4
 289 -719 289 -719 222.5 -651.5 c 128,-1,5
 156 -584 156 -584 156 -489 c 0,6,7
 156 -416 156 -416 197 -356 c 1,8,9
 18 -328 18 -328 18 -180 c 0,10,11
 18 -113 18 -113 51 -84 c 1,12,13
 57 -76 57 -76 113 -51 c 0,14,15
 147 -35 147 -35 150 0 c 2,16,-1
 152 29 l 1,17,-1
 252 29 l 1,18,-1
 252 12 l 2,19,20
 252 -68 252 -68 192.5 -101.5 c 128,-1,21
 133 -135 133 -135 133 -180 c 0,22,23
 133 -256 133 -256 246 -256 c 0,24,25
 311 -256 311 -256 360.5 -219 c 128,-1,26
 410 -182 410 -182 410 -119 c 0,27,28
 410 -45 410 -45 348 41 c 0,29,30
 291 121 291 121 231 199 c 1,31,32
 168 301 168 301 160 410 c 1,33,34
 158 530 158 530 156 772 c 1,35,-1
 268 772 l 1,36,37
 266 668 266 668 272 457 c 1,38,39
 281 344 281 344 348 231 c 1,40,-1
 467 59 l 1,41,42
 530 -35 530 -35 530 -119 c 0,43,44
 530 -211 530 -211 467 -276 c 1,45,46
 532 -301 532 -301 572 -359.5 c 128,-1,47
 612 -418 612 -418 612 -489 c 0,0,1
518 -489 m 0,48,49
 518 -432 518 -432 479 -393 c 128,-1,50
 440 -354 440 -354 383 -354 c 0,51,52
 328 -354 328 -354 288 -393 c 128,-1,53
 248 -432 248 -432 248 -489 c 0,54,55
 248 -545 248 -545 288 -585 c 128,-1,56
 328 -625 328 -625 383 -625 c 0,57,58
 440 -625 440 -625 479 -585 c 128,-1,59
 518 -545 518 -545 518 -489 c 0,48,49
EndSplineSet
Ligature2: "'psts' Post Base Substitutions in Malay+AQEA-lam lookup 5 subtable" y2 u1
EndChar

StartChar: y2u2
Encoding: 65542 -1 186
Width: 395
GlyphClass: 3
Flags: W
LayerCount: 2
Fore
SplineSet
647 -510 m 0,0,1
 647 -614 647 -614 573.5 -689 c 128,-1,2
 500 -764 500 -764 393 -764 c 0,3,4
 289 -764 289 -764 214 -689 c 128,-1,5
 139 -614 139 -614 139 -510 c 0,6,7
 139 -424 139 -424 193 -356 c 1,8,9
 18 -324 18 -324 18 -180 c 0,10,11
 18 -113 18 -113 51 -84 c 0,12,13
 57 -78 57 -78 113 -51 c 0,14,15
 147 -35 147 -35 150 0 c 2,16,-1
 152 29 l 1,17,-1
 252 29 l 1,18,-1
 252 12 l 2,19,20
 252 -68 252 -68 192.5 -101.5 c 128,-1,21
 133 -135 133 -135 133 -180 c 0,22,23
 133 -256 133 -256 246 -256 c 0,24,25
 311 -256 311 -256 360.5 -219 c 128,-1,26
 410 -182 410 -182 410 -119 c 0,27,28
 410 -45 410 -45 348 41 c 0,29,30
 291 121 291 121 231 199 c 1,31,32
 168 301 168 301 160 410 c 1,33,34
 158 530 158 530 156 772 c 1,35,-1
 268 772 l 1,36,37
 266 668 266 668 272 457 c 1,38,39
 281 344 281 344 348 231 c 1,40,-1
 467 59 l 1,41,42
 530 -35 530 -35 530 -119 c 0,43,44
 530 -207 530 -207 475 -268 c 1,45,46
 551 -295 551 -295 599 -360.5 c 128,-1,47
 647 -426 647 -426 647 -510 c 0,0,1
473 -430 m 0,48,49
 473 -397 473 -397 448.5 -373.5 c 128,-1,50
 424 -350 424 -350 391 -350 c 0,51,52
 356 -350 356 -350 332.5 -373.5 c 128,-1,53
 309 -397 309 -397 309 -430 c 0,54,55
 309 -465 309 -465 332.5 -488.5 c 128,-1,56
 356 -512 356 -512 391 -512 c 0,57,58
 424 -512 424 -512 448.5 -488.5 c 128,-1,59
 473 -465 473 -465 473 -430 c 0,48,49
555 -510 m 0,60,61
 555 -465 555 -465 530 -426 c 1,62,-1
 530 -430 l 1,63,64
 532 -487 532 -487 490.5 -529 c 128,-1,65
 449 -571 449 -571 391 -571 c 0,66,67
 334 -571 334 -571 294 -531.5 c 128,-1,68
 254 -492 254 -492 252 -436 c 1,69,70
 233 -471 233 -471 233 -510 c 0,71,72
 233 -575 233 -575 280.5 -622.5 c 128,-1,73
 328 -670 328 -670 393 -670 c 0,74,75
 461 -670 461 -670 508 -622.5 c 128,-1,76
 555 -575 555 -575 555 -510 c 0,60,61
EndSplineSet
Ligature2: "'psts' Post Base Substitutions in Malay+AQEA-lam lookup 5 subtable" y2 u2
EndChar

StartChar: v2
Encoding: 65543 -1 187
Width: 346
GlyphClass: 3
Flags: W
LayerCount: 2
Fore
SplineSet
348 -2 m 1,0,-1
 39 -2 l 1,1,-1
 39 102 l 1,2,-1
 231 102 l 1,3,-1
 231 766 l 1,4,-1
 348 766 l 1,5,-1
 348 -2 l 1,0,-1
EndSplineSet
Ligature2: "'pstf' Post Base Forms in Malay+AQEA-lam lookup 7 subtable" v1 xx
EndChar

StartChar: NameMe_195550
Encoding: 65544 -1 188
Width: 1611
GlyphClass: 2
Flags: W
LayerCount: 2
Fore
SplineSet
1614 342 m 1,0,-1
 1309 342 l 1,1,2
 1309 324 1309 324 1309 285 c 0,3,4
 1309 164 1309 164 1245 80 c 0,5,6
 1176 -10 1176 -10 1057 -10 c 0,7,8
 956 -10 956 -10 902 55.5 c 128,-1,9
 848 121 848 121 848 225 c 0,10,11
 848 334 848 334 932 391 c 0,12,13
 1006 442 1006 442 1118 442 c 1,14,15
 1169 444 1169 444 1190 442 c 1,16,17
 1176 545 1176 545 1120 610 c 1,18,19
 1057 686 1057 686 956 686 c 0,20,21
 868 686 868 686 821 627 c 0,22,23
 780 575 780 575 780 494 c 2,24,-1
 780 0 l 1,25,-1
 668 0 l 1,26,-1
 668 494 l 2,27,28
 668 569 668 569 615.5 628.5 c 128,-1,29
 563 688 563 688 489 688 c 0,30,31
 375 688 375 688 305 594 c 1,32,33
 240 510 240 510 240 391 c 0,34,35
 240 281 240 281 293 190 c 0,36,37
 348 94 348 94 446 53 c 1,38,-1
 369 -20 l 1,39,40
 254 35 254 35 188 147 c 0,41,42
 125 254 125 254 125 385 c 0,43,44
 125 551 125 551 223 666 c 0,45,46
 328 788 328 788 492 788 c 0,47,48
 664 788 664 788 723 664 c 1,49,50
 778 788 778 788 946 788 c 0,51,52
 1096 788 1096 788 1196 684 c 1,53,54
 1284 590 1284 590 1309 442 c 1,55,-1
 1614 442 l 1,56,-1
 1614 342 l 1,0,-1
1198 293 m 2,57,-1
 1198 342 l 1,58,59
 1178 342 1178 342 1130 342 c 0,60,61
 952 342 952 342 952 217 c 0,62,63
 952 168 952 168 971 129 c 1,64,65
 997 84 997 84 1040 84 c 0,66,67
 1198 84 1198 84 1198 293 c 2,57,-1
EndSplineSet
EndChar

StartChar: NameMe_195551
Encoding: 65545 -1 189
Width: 768
GlyphClass: 2
Flags: W
LayerCount: 2
Fore
SplineSet
238 373 m 1,0,-1
 238 485 l 1,1,-1
 733 612 l 1,2,-1
 733 500 l 1,3,-1
 238 373 l 1,0,-1
725 1053 m 0,4,5
 678 1053 678 1053 678 1112 c 0,6,7
 678 1122 678 1122 684 1138.5 c 128,-1,8
 690 1155 690 1155 690 1163 c 0,9,10
 690 1174 690 1174 680 1174 c 0,11,12
 651 1174 651 1174 618 1008 c 1,13,14
 590 885 590 885 584 795 c 1,15,16
 543 508 543 508 514 330 c 1,17,18
 475 74 475 74 432 -66 c 0,19,20
 354 -324 354 -324 233 -324 c 0,21,22
 147 -324 147 -324 147 -225 c 0,23,24
 147 -195 147 -195 161.5 -166 c 128,-1,25
 176 -137 176 -137 201 -137 c 0,26,27
 254 -137 254 -137 254 -199 c 0,28,29
 254 -205 254 -205 240 -248 c 1,30,31
 244 -252 244 -252 246 -252 c 0,32,33
 272 -252 272 -252 301 -162 c 128,-1,34
 330 -72 330 -72 342 -4 c 0,35,36
 354 66 354 66 362 125 c 1,37,-1
 479 838 l 1,38,39
 487 893 487 893 502 950 c 0,40,41
 516 1006 516 1006 541 1075 c 1,42,43
 565 1147 565 1147 602 1190 c 128,-1,44
 639 1233 639 1233 684 1233 c 0,45,46
 723 1233 723 1233 750.5 1206.5 c 128,-1,47
 778 1180 778 1180 778 1130 c 0,48,49
 778 1053 778 1053 725 1053 c 0,4,5
EndSplineSet
EndChar

StartChar: k1cil
Encoding: 65546 -1 190
Width: 1343
GlyphClass: 3
Flags: W
LayerCount: 2
Fore
SplineSet
1346 229 m 0,0,1
 1346 123 1346 123 1292 55 c 0,2,3
 1233 -20 1233 -20 1130 -20 c 0,4,5
 993 -20 993 -20 958 94 c 1,6,7
 903 -20 903 -20 733 -20 c 0,8,9
 567 -20 567 -20 512 94 c 1,10,11
 477 -20 477 -20 340 -20 c 0,12,13
 238 -20 238 -20 178 55 c 1,14,15
 125 123 125 123 125 229 c 0,16,17
 125 467 125 467 453 467 c 1,18,19
 453 604 453 604 520 690 c 0,20,21
 596 786 596 786 731 786 c 0,22,23
 823 786 823 786 901 736 c 128,-1,24
 979 686 979 686 1001 604 c 1,25,26
 1008 614 1008 614 1024 633 c 1,27,28
 1106 709 1106 709 1128 735 c 0,29,30
 1184 801 1184 801 1184 858 c 0,31,32
 1184 905 1184 905 1149 944 c 128,-1,33
 1114 983 1114 983 1065 983 c 0,34,35
 975 983 975 983 881 889 c 1,36,-1
 823 965 l 1,37,38
 903 1085 903 1085 1073 1085 c 0,39,40
 1184 1085 1184 1085 1241 1019.5 c 128,-1,41
 1298 954 1298 954 1298 850 c 0,42,43
 1298 770 1298 770 1204 674 c 1,44,45
 1087 557 1087 557 1069 514 c 0,46,47
 1059 492 1059 492 1051 467 c 1,48,49
 1346 467 1346 467 1346 229 c 0,0,1
1245 231 m 0,50,51
 1245 365 1245 365 1071 365 c 2,52,-1
 1026 365 l 1,53,54
 1026 350 1026 350 1016 287 c 0,55,56
 1008 238 1008 238 1008 209 c 0,57,58
 1008 158 1008 158 1038.5 118 c 128,-1,59
 1069 78 1069 78 1120 78 c 0,60,61
 1180 78 1180 78 1214 127 c 1,62,63
 1245 168 1245 168 1245 231 c 0,50,51
909 467 m 1,64,-1
 909 494 l 2,65,66
 909 571 909 571 861 627.5 c 128,-1,67
 813 684 813 684 735 684 c 0,68,69
 659 684 659 684 610 627.5 c 128,-1,70
 561 571 561 571 561 494 c 2,71,-1
 561 467 l 1,72,-1
 909 467 l 1,64,-1
911 365 m 1,73,-1
 561 365 l 1,74,-1
 561 334 l 2,75,76
 561 76 561 76 739 76 c 0,77,78
 895 76 895 76 909 334 c 1,79,-1
 911 365 l 1,73,-1
459 209 m 0,80,81
 459 229 459 229 455 287 c 0,82,83
 451 336 451 336 453 365 c 1,84,-1
 399 365 l 2,85,86
 225 365 225 365 225 231 c 0,87,88
 225 168 225 168 256 127 c 1,89,90
 291 78 291 78 350 78 c 0,91,92
 399 78 399 78 432 119 c 1,93,94
 459 156 459 156 459 209 c 0,80,81
EndSplineSet
Ligature2: "'haln' Halant Forms in Malay+AQEA-lam lookup 6 subtable" k1 xx ZWJ
Ligature2: "'half' Half Forms in Malay+AQEA-lam lookup 1 subtable" k1 xx ZWJ
Ligature2: "'akhn' Akhand in Malay+AQEA-lam lookup 0 subtable" k1 xx ZWJ
EndChar

StartChar: nhcil
Encoding: 65547 -1 191
Width: 1966
GlyphClass: 3
Flags: W
LayerCount: 2
Fore
SplineSet
1968 309 m 0,0,1
 1968 182 1968 182 1901 86 c 1,2,3
 1825 -18 1825 -18 1702 -18 c 128,-1,4
 1579 -18 1579 -18 1507 90 c 0,5,6
 1446 182 1446 182 1446 313 c 0,7,8
 1446 506 1446 506 1630 668 c 1,9,10
 1610 682 1610 682 1532 682 c 0,11,12
 1456 682 1456 682 1406 627.5 c 128,-1,13
 1356 573 1356 573 1356 494 c 2,14,-1
 1356 0 l 1,15,-1
 1243 0 l 1,16,-1
 1243 494 l 2,17,18
 1243 578 1243 578 1189 630 c 128,-1,19
 1135 682 1135 682 1051 682 c 128,-1,20
 967 682 967 682 915.5 630 c 128,-1,21
 864 578 864 578 864 494 c 2,22,-1
 864 0 l 1,23,-1
 743 0 l 1,24,-1
 743 494 l 2,25,26
 743 682 743 682 510 682 c 0,27,28
 389 682 389 682 307 582 c 0,29,30
 231 489 231 489 223 365 c 1,31,32
 260 463 260 463 389 463 c 0,33,34
 487 463 487 463 548.5 395.5 c 128,-1,35
 610 328 610 328 610 229 c 0,36,37
 610 125 610 125 544.5 52.5 c 128,-1,38
 479 -20 479 -20 377 -20 c 0,39,40
 252 -20 252 -20 182 96 c 0,41,42
 123 195 123 195 123 328 c 0,43,44
 123 522 123 522 235.5 654 c 128,-1,45
 348 786 348 786 539 786 c 0,46,47
 709 786 709 786 801 678 c 1,48,49
 866 786 866 786 1053 786 c 0,50,51
 1227 786 1227 786 1298 678 c 1,52,53
 1372 786 1372 786 1530 786 c 0,54,55
 1642 786 1642 786 1714 752 c 1,56,57
 1765 799 1765 799 1765 862 c 0,58,59
 1765 909 1765 909 1733.5 948 c 128,-1,60
 1702 987 1702 987 1655 987 c 0,61,62
 1573 987 1573 987 1497 903 c 1,63,-1
 1432 969 l 1,64,65
 1505 1090 1505 1090 1663 1090 c 0,66,67
 1765 1090 1765 1090 1821 1020 c 1,68,69
 1872 958 1872 958 1872 852 c 0,70,71
 1872 778 1872 778 1806 694 c 1,72,73
 1968 559 1968 559 1968 309 c 0,0,1
1851 311 m 0,74,75
 1851 508 1851 508 1722 621 c 1,76,77
 1550 481 1550 481 1550 317 c 0,78,79
 1550 231 1550 231 1585 166 c 1,80,81
 1626 82 1626 82 1702 82 c 128,-1,82
 1778 82 1778 82 1819 164 c 0,83,84
 1851 229 1851 229 1851 311 c 0,74,75
502 223 m 0,85,86
 502 283 502 283 467 327 c 128,-1,87
 432 371 432 371 375 371 c 0,88,89
 315 371 315 371 279.5 329 c 128,-1,90
 244 287 244 287 244 227.5 c 128,-1,91
 244 168 244 168 279.5 124 c 128,-1,92
 315 80 315 80 372.5 80 c 128,-1,93
 430 80 430 80 466 123 c 128,-1,94
 502 166 502 166 502 223 c 0,85,86
EndSplineSet
Ligature2: "'haln' Halant Forms in Malay+AQEA-lam lookup 6 subtable" nh xx ZWJ
Ligature2: "'half' Half Forms in Malay+AQEA-lam lookup 1 subtable" nh xx ZWJ
Ligature2: "'akhn' Akhand in Malay+AQEA-lam lookup 0 subtable" nh xx ZWJ
EndChar

StartChar: n1cil
Encoding: 65548 -1 192
Width: 1394
GlyphClass: 3
Flags: W
LayerCount: 2
Fore
SplineSet
1397 307 m 0,0,1
 1397 178 1397 178 1329 86 c 1,2,3
 1255 -18 1255 -18 1133 -18 c 0,4,5
 1008 -18 1008 -18 936 88 c 0,6,7
 874 180 874 180 874 309 c 0,8,9
 874 504 874 504 1059 666 c 1,10,11
 1034 682 1034 682 938 682 c 0,12,13
 868 682 868 682 824 623.5 c 128,-1,14
 780 565 780 565 780 494 c 2,15,-1
 780 0 l 1,16,-1
 668 0 l 1,17,-1
 668 494 l 2,18,19
 668 569 668 569 616.5 625.5 c 128,-1,20
 565 682 565 682 489 682 c 0,21,22
 375 682 375 682 305 592 c 0,23,24
 240 510 240 510 240 391 c 0,25,26
 240 281 240 281 293 190 c 0,27,28
 348 94 348 94 446 53 c 1,29,-1
 369 -20 l 1,30,31
 254 37 254 37 189.5 145.5 c 128,-1,32
 125 254 125 254 125 385 c 0,33,34
 125 551 125 551 226.5 668.5 c 128,-1,35
 328 786 328 786 492 786 c 0,36,37
 651 786 651 786 723 676 c 1,38,39
 795 786 795 786 956 786 c 0,40,41
 1065 786 1065 786 1143 750 c 1,42,43
 1194 795 1194 795 1194 858 c 0,44,45
 1194 905 1194 905 1162 944 c 128,-1,46
 1130 983 1130 983 1085 983 c 0,47,48
 999 983 999 983 924 901 c 1,49,-1
 860 965 l 1,50,51
 936 1085 936 1085 1092 1085 c 0,52,53
 1196 1085 1196 1085 1249 1016 c 1,54,55
 1300 954 1300 954 1300 850 c 0,56,57
 1300 774 1300 774 1237 692 c 1,58,59
 1397 555 1397 555 1397 307 c 0,0,1
1282 309 m 0,60,61
 1282 504 1282 504 1151 616 c 1,62,63
 981 477 981 477 981 313 c 0,64,65
 981 229 981 229 1014 164 c 0,66,67
 1055 82 1055 82 1133 82 c 0,68,69
 1206 82 1206 82 1249 162 c 0,70,71
 1282 225 1282 225 1282 309 c 0,60,61
EndSplineSet
Ligature2: "'haln' Halant Forms in Malay+AQEA-lam lookup 6 subtable" n1 xx ZWJ
Ligature2: "'half' Half Forms in Malay+AQEA-lam lookup 1 subtable" n1 xx ZWJ
Ligature2: "'akhn' Akhand in Malay+AQEA-lam lookup 0 subtable" n1 xx ZWJ
EndChar

StartChar: l3cil
Encoding: 65549 -1 193
Width: 1564
GlyphClass: 3
Flags: W
LayerCount: 2
Fore
SplineSet
1567 307 m 0,0,1
 1567 178 1567 178 1499 86 c 1,2,3
 1425 -18 1425 -18 1303 -18 c 0,4,5
 1178 -18 1178 -18 1108 88 c 1,6,7
 1044 180 1044 180 1044 309 c 0,8,9
 1044 406 1044 406 1102 492 c 0,10,11
 1139 547 1139 547 1233 637 c 1,12,13
 1174 684 1174 684 1040 684 c 0,14,15
 930 684 930 684 838 657 c 1,16,17
 911 602 911 602 960.5 498.5 c 128,-1,18
 1010 395 1010 395 1010 303 c 0,19,20
 1010 180 1010 180 934 86 c 1,21,22
 854 -18 854 -18 735 -18 c 0,23,24
 604 -18 604 -18 528 80 c 0,25,26
 461 168 461 168 461 303 c 0,27,28
 461 514 461 514 635 657 c 1,29,30
 567 684 567 684 526 684 c 0,31,32
 399 684 399 684 314 589 c 128,-1,33
 229 494 229 494 229 365 c 0,34,35
 229 152 229 152 387 45 c 1,36,-1
 319 -20 l 1,37,38
 123 109 123 109 123 375 c 0,39,40
 123 459 123 459 158 539 c 0,41,42
 266 784 266 784 565 784 c 0,43,44
 672 784 672 784 743 725 c 1,45,46
 846 788 846 788 1004 788 c 0,47,48
 1180 788 1180 788 1296 729 c 1,49,50
 1354 780 1354 780 1354 854 c 0,51,52
 1354 903 1354 903 1328.5 943 c 128,-1,53
 1303 983 1303 983 1255 983 c 0,54,55
 1174 983 1174 983 1098 901 c 1,56,-1
 1030 965 l 1,57,58
 1106 1085 1106 1085 1264 1085 c 0,59,60
 1470 1085 1470 1085 1470 844 c 0,61,62
 1470 764 1470 764 1395 664 c 1,63,64
 1567 510 1567 510 1567 307 c 0,0,1
1452 309 m 0,65,66
 1452 408 1452 408 1428.5 459 c 128,-1,67
 1405 510 1405 510 1327 582 c 1,68,69
 1233 500 1233 500 1206 465 c 0,70,71
 1151 393 1151 393 1151 313 c 0,72,73
 1151 229 1151 229 1184 164 c 0,74,75
 1225 82 1225 82 1303 82 c 0,76,77
 1378 82 1378 82 1419 162 c 0,78,79
 1452 225 1452 225 1452 309 c 0,65,66
891 303 m 0,80,81
 891 483 891 483 731 602 c 1,82,83
 571 489 571 489 571 303 c 0,84,85
 571 78 571 78 735 78 c 0,86,87
 813 78 813 78 856 156 c 1,88,89
 891 217 891 217 891 303 c 0,80,81
EndSplineSet
Ligature2: "'haln' Halant Forms in Malay+AQEA-lam lookup 6 subtable" l3 xx ZWJ
Ligature2: "'half' Half Forms in Malay+AQEA-lam lookup 1 subtable" l3 xx ZWJ
Ligature2: "'akhn' Akhand in Malay+AQEA-lam lookup 0 subtable" l3 xx ZWJ
EndChar

StartChar: lhcil
Encoding: 65550 -1 194
Width: 1411
GlyphClass: 3
Flags: W
LayerCount: 2
Fore
SplineSet
1413 307 m 0,0,1
 1413 178 1413 178 1348 86 c 1,2,3
 1272 -16 1272 -16 1149 -16 c 0,4,5
 1024 -16 1024 -16 954 88 c 0,6,7
 891 180 891 180 891 309 c 0,8,9
 891 485 891 485 1077 655 c 1,10,11
 1042 682 1042 682 979 682 c 0,12,13
 748 682 748 682 748 375 c 2,14,-1
 748 293 l 2,15,16
 748 162 748 162 661.5 72 c 128,-1,17
 575 -18 575 -18 438 -18 c 0,18,19
 281 -18 281 -18 197 102 c 1,20,21
 125 209 125 209 125 377 c 0,22,23
 125 672 125 672 358 791 c 1,24,-1
 428 721 l 1,25,26
 238 627 238 627 238 393 c 0,27,28
 238 272 238 272 281 190 c 0,29,30
 334 88 334 88 442 88 c 0,31,32
 637 88 637 88 635 340 c 1,33,-1
 633 455 l 2,34,35
 631 594 631 594 731 691 c 128,-1,36
 831 788 831 788 973 788 c 0,37,38
 1073 788 1073 788 1161 743 c 1,39,40
 1210 793 1210 793 1210 858 c 0,41,42
 1210 905 1210 905 1178.5 944 c 128,-1,43
 1147 983 1147 983 1102 983 c 0,44,45
 1020 983 1020 983 938 893 c 1,46,-1
 877 965 l 1,47,48
 952 1085 952 1085 1110 1085 c 0,49,50
 1212 1085 1212 1085 1268 1016 c 1,51,52
 1317 954 1317 954 1317 850 c 0,53,54
 1317 770 1317 770 1253 684 c 1,55,56
 1413 541 1413 541 1413 307 c 0,0,1
1298 309 m 0,57,58
 1298 410 1298 410 1270.5 473.5 c 128,-1,59
 1243 537 1243 537 1169 604 c 1,60,61
 997 459 997 459 997 313 c 0,62,63
 997 229 997 229 1030 164 c 1,64,65
 1073 84 1073 84 1149 84 c 128,-1,66
 1225 84 1225 84 1266 162 c 0,67,68
 1298 225 1298 225 1298 309 c 0,57,58
EndSplineSet
Ligature2: "'haln' Halant Forms in Malay+AQEA-lam lookup 6 subtable" lh xx ZWJ
Ligature2: "'half' Half Forms in Malay+AQEA-lam lookup 1 subtable" lh xx ZWJ
Ligature2: "'akhn' Akhand in Malay+AQEA-lam lookup 0 subtable" lh xx ZWJ
EndChar

StartChar: r3cil
Encoding: 65551 -1 195
Width: 983
GlyphClass: 3
Flags: W
LayerCount: 2
Fore
SplineSet
985 307 m 0,0,1
 985 178 985 178 922 86 c 1,2,3
 848 -18 848 -18 727 -18 c 128,-1,4
 606 -18 606 -18 537 88 c 1,5,6
 475 180 475 180 475 309 c 0,7,8
 475 504 475 504 657 666 c 1,9,10
 635 682 635 682 563 682 c 0,11,12
 414 682 414 682 321.5 580.5 c 128,-1,13
 229 479 229 479 229 324 c 0,14,15
 229 158 229 158 369 51 c 1,16,-1
 293 -16 l 1,17,18
 125 117 125 117 125 328 c 0,19,20
 125 530 125 530 243.5 658 c 128,-1,21
 362 786 362 786 559 786 c 0,22,23
 662 786 662 786 739 750 c 1,24,25
 788 797 788 797 788 858 c 0,26,27
 788 905 788 905 757.5 944 c 128,-1,28
 727 983 727 983 682 983 c 0,29,30
 600 983 600 983 528 903 c 1,31,-1
 463 965 l 1,32,33
 535 1085 535 1085 688 1085 c 0,34,35
 791 1085 791 1085 846 1018.5 c 128,-1,36
 901 952 901 952 901 850 c 0,37,38
 901 786 901 786 829 692 c 1,39,40
 985 555 985 555 985 307 c 0,0,1
872 309 m 0,41,42
 872 504 872 504 745 616 c 1,43,44
 584 481 584 481 584 313 c 0,45,46
 584 227 584 227 614 164 c 0,47,48
 653 82 653 82 727 82 c 128,-1,49
 801 82 801 82 842 162 c 1,50,51
 872 225 872 225 872 309 c 0,41,42
EndSplineSet
Ligature2: "'haln' Halant Forms in Malay+AQEA-lam lookup 6 subtable" r3 xx ZWJ
Ligature2: "'half' Half Forms in Malay+AQEA-lam lookup 1 subtable" r3 xx ZWJ
Ligature2: "'akhn' Akhand in Malay+AQEA-lam lookup 0 subtable" r3 xx ZWJ
EndChar

StartChar: k1u1
Encoding: 65552 -1 196
Width: 1325
GlyphClass: 3
Flags: W
LayerCount: 2
Fore
SplineSet
1327 125 m 0,0,1
 1327 57 1327 57 1275 18.5 c 128,-1,2
 1223 -20 1223 -20 1149 -20 c 0,3,4
 1073 -20 1073 -20 1026 10 c 1,5,-1
 1065 90 l 1,6,7
 1098 70 1098 70 1139 70 c 0,8,9
 1239 70 1239 70 1239 130 c 0,10,11
 1239 175 1239 175 1177 175 c 2,12,-1
 1099 175 l 1,13,-1
 1100 265 l 1,14,-1
 1175 265 l 2,15,16
 1222 265 1222 265 1221 317 c 0,17,18
 1220 361 1220 361 1165 363 c 1,19,20
 1018 364 1018 364 1008 365 c 1,21,-1
 1008 330 l 2,22,23
 1008 -20 1008 -20 733 -20 c 0,24,25
 567 -20 567 -20 514 90 c 1,26,27
 481 -20 481 -20 340 -20 c 0,28,29
 234 -20 234 -20 176 57 c 0,30,31
 125 125 125 125 125 229 c 256,32,33
 125 333 125 333 201 403 c 0,34,35
 270 467 270 467 377 467 c 2,36,-1
 453 467 l 1,37,-1
 453 502 l 2,38,39
 453 623 453 623 531.5 704.5 c 128,-1,40
 610 786 610 786 739 786 c 0,41,42
 858 786 858 786 936 700 c 0,43,44
 1008 621 1008 621 1008 502 c 2,45,-1
 1008 467 l 1,46,-1
 1124 467 l 2,47,48
 1201 467 1201 467 1266 425 c 0,49,50
 1327 385 1327 385 1327 326 c 0,51,52
 1327 258 1327 258 1276 225 c 1,53,54
 1327 197 1327 197 1327 125 c 0,0,1
895 467 m 1,55,-1
 895 498 l 2,56,57
 895 573 895 573 848 627.5 c 128,-1,58
 801 682 801 682 727 682 c 128,-1,59
 653 682 653 682 607 626.5 c 128,-1,60
 561 571 561 571 561 494 c 2,61,-1
 561 467 l 1,62,-1
 895 467 l 1,55,-1
895 336 m 2,63,-1
 895 365 l 1,64,-1
 561 365 l 1,65,-1
 561 334 l 2,66,67
 561 82 561 82 729 82 c 0,68,69
 895 82 895 82 895 336 c 2,63,-1
459 209 m 1,70,-1
 453 332 l 1,71,-1
 453 365 l 1,72,-1
 399 365 l 2,73,74
 225 365 225 365 225 231 c 0,75,76
 225 172 225 172 254 131 c 1,77,78
 287 82 287 82 350 82 c 0,79,80
 399 82 399 82 431 120 c 128,-1,81
 463 158 463 158 459 209 c 1,70,-1
EndSplineSet
Ligature2: "'psts' Post Base Substitutions in Malay+AQEA-lam lookup 5 subtable" k1 u1
EndChar

StartChar: k1u2
Encoding: 65553 -1 197
Width: 1247
GlyphClass: 3
Flags: W
LayerCount: 2
Fore
SplineSet
1249 147 m 0,0,1
 1249 -2 1249 -2 1096 -2 c 2,2,-1
 389 -2 l 2,3,4
 336 -2 336 -2 298 -31.5 c 128,-1,5
 260 -61 260 -61 260 -108.5 c 128,-1,6
 260 -156 260 -156 299 -180.5 c 128,-1,7
 338 -205 338 -205 389 -205 c 2,8,-1
 1225 -205 l 1,9,-1
 1225 -307 l 1,10,-1
 371 -307 l 2,11,12
 274 -307 274 -307 210.5 -256 c 128,-1,13
 147 -205 147 -205 147 -109 c 0,14,15
 147 -14 147 -14 215 43 c 1,16,17
 276 96 276 96 371 96 c 2,18,-1
 1065 96 l 2,19,20
 1139 96 1139 96 1139 145 c 0,21,22
 1139 211 1139 211 1075 211 c 2,23,-1
 987 211 l 1,24,-1
 987 303 l 1,25,-1
 1069 303 l 2,26,27
 1139 303 1139 303 1139 369 c 0,28,29
 1139 432 1139 432 1059 432 c 1,30,31
 973 434 973 434 924 434 c 1,32,-1
 924 412 l 2,33,34
 924 125 924 125 674 125 c 0,35,36
 532 125 532 125 477 209 c 1,37,38
 438 125 438 125 324 125 c 0,39,40
 227 125 227 125 172 190 c 1,41,42
 125 248 125 248 125 332 c 0,43,44
 125 422 125 422 192.5 476 c 128,-1,45
 260 530 260 530 356 530 c 2,46,-1
 416 530 l 1,47,-1
 416 551 l 2,48,49
 416 651 416 651 488.5 719.5 c 128,-1,50
 561 788 561 788 678 788 c 0,51,52
 786 788 786 788 855 718.5 c 128,-1,53
 924 649 924 649 924 551 c 2,54,-1
 924 530 l 1,55,-1
 1065 530 l 2,56,57
 1139 530 1139 530 1193 485 c 128,-1,58
 1247 440 1247 440 1247 371 c 0,59,60
 1247 283 1247 283 1194 254 c 1,61,62
 1249 233 1249 233 1249 147 c 0,0,1
811 530 m 1,63,-1
 811 547 l 2,64,65
 811 606 811 606 770 651 c 128,-1,66
 729 696 729 696 667.5 696 c 128,-1,67
 606 696 606 696 566 650 c 128,-1,68
 526 604 526 604 526 545 c 2,69,-1
 526 530 l 1,70,-1
 811 530 l 1,63,-1
811 416 m 2,71,-1
 811 432 l 1,72,-1
 526 432 l 1,73,-1
 526 416 l 2,74,75
 526 215 526 215 670 215 c 0,76,77
 811 215 811 215 811 416 c 2,71,-1
422 315 m 1,78,-1
 416 416 l 1,79,-1
 416 432 l 1,80,-1
 377 432 l 2,81,82
 229 432 229 432 229 334 c 0,83,84
 229 217 229 217 332 217 c 0,85,86
 373 217 373 217 399.5 246.5 c 128,-1,87
 426 276 426 276 422 315 c 1,78,-1
EndSplineSet
Ligature2: "'psts' Post Base Substitutions in Malay+AQEA-lam lookup 5 subtable" k1 u2
EndChar

StartChar: k1r1
Encoding: 65554 -1 198
Width: 1341
GlyphClass: 3
Flags: W
LayerCount: 2
Fore
SplineSet
1343 145 m 0,0,1
 1343 -86 1343 -86 1163 -227 c 1,2,3
 999 -358 999 -358 768 -358 c 0,4,5
 659 -358 659 -358 573 -322 c 0,6,7
 459 -274 459 -274 459 -180 c 0,8,9
 459 -104 459 -104 547 -68 c 1,10,11
 612 -39 612 -39 702 -39 c 0,12,13
 801 -39 801 -39 893 -76 c 0,14,15
 1006 -121 1006 -121 1014 -199 c 1,16,17
 1124 -145 1124 -145 1184 -43 c 1,18,19
 1239 47 1239 47 1239 150 c 0,20,21
 1239 246 1239 246 1163 307 c 1,22,23
 1096 365 1096 365 1008 365 c 1,24,25
 1008 -4 1008 -4 733 -4 c 0,26,27
 565 -4 565 -4 512 104 c 1,28,29
 494 51 494 51 445.5 15.5 c 128,-1,30
 397 -20 397 -20 340 -20 c 0,31,32
 238 -20 238 -20 178 55 c 1,33,34
 125 123 125 123 125 229 c 0,35,36
 125 467 125 467 453 467 c 1,37,38
 453 610 453 610 522 694 c 1,39,40
 596 786 596 786 739 786 c 0,41,42
 872 786 872 786 944 690 c 0,43,44
 1008 604 1008 604 1008 467 c 1,45,46
 1153 461 1153 461 1243 381 c 1,47,48
 1343 295 1343 295 1343 145 c 0,0,1
895 467 m 1,49,-1
 895 498 l 2,50,51
 895 571 895 571 848 626.5 c 128,-1,52
 801 682 801 682 727 682 c 128,-1,53
 653 682 653 682 607 625.5 c 128,-1,54
 561 569 561 569 561 494 c 2,55,-1
 561 467 l 1,56,-1
 895 467 l 1,49,-1
895 365 m 1,57,-1
 561 365 l 1,58,-1
 561 334 l 2,59,60
 561 94 561 94 729 94 c 0,61,62
 895 94 895 94 895 365 c 1,57,-1
459 209 m 0,63,64
 459 229 459 229 455 287 c 0,65,66
 451 336 451 336 453 365 c 1,67,-1
 399 365 l 2,68,69
 225 365 225 365 225 231 c 0,70,71
 225 170 225 170 257 127 c 128,-1,72
 289 84 289 84 348 84 c 0,73,74
 399 84 399 84 429 121 c 128,-1,75
 459 158 459 158 459 209 c 0,63,64
907 -211 m 0,76,77
 907 -176 907 -176 823 -154 c 0,78,79
 762 -139 762 -139 711 -139 c 0,80,81
 571 -139 571 -139 571 -184 c 0,82,83
 571 -219 571 -219 649 -244 c 1,84,85
 709 -262 709 -262 758 -262 c 0,86,87
 907 -262 907 -262 907 -211 c 0,76,77
EndSplineSet
Ligature2: "'psts' Post Base Substitutions in Malay+AQEA-lam lookup 5 subtable" k1 r1
EndChar

StartChar: k1r2
Encoding: 65555 -1 199
Width: 1345
GlyphClass: 3
Flags: W
LayerCount: 2
Fore
SplineSet
1348 137 m 0,0,1
 1348 -88 1348 -88 1192 -224 c 128,-1,2
 1036 -360 1036 -360 809 -360 c 0,3,4
 459 -360 459 -360 459 -182 c 0,5,6
 459 -115 459 -115 522 -74 c 0,7,8
 578 -37 578 -37 653 -37 c 0,9,10
 782 -37 782 -37 829 -115 c 1,11,12
 862 -35 862 -35 971 -35 c 0,13,14
 1085 -35 1085 -35 1135 -139 c 1,15,16
 1235 -35 1235 -35 1235 137 c 0,17,18
 1235 244 1235 244 1175.5 304.5 c 128,-1,19
 1116 365 1116 365 1008 365 c 1,20,21
 1008 -4 1008 -4 733 -4 c 0,22,23
 567 -4 567 -4 512 100 c 1,24,25
 494 49 494 49 445.5 14.5 c 128,-1,26
 397 -20 397 -20 340 -20 c 0,27,28
 238 -20 238 -20 178 55 c 1,29,30
 125 125 125 125 125 229 c 0,31,32
 125 469 125 469 453 467 c 1,33,34
 453 610 453 610 525.5 698 c 128,-1,35
 598 786 598 786 739 786 c 0,36,37
 872 786 872 786 944 690 c 0,38,39
 1008 606 1008 606 1008 467 c 1,40,41
 1163 461 1163 461 1255.5 375 c 128,-1,42
 1348 289 1348 289 1348 137 c 0,0,1
895 467 m 1,43,-1
 895 498 l 2,44,45
 895 571 895 571 848 626.5 c 128,-1,46
 801 682 801 682 727 682 c 128,-1,47
 653 682 653 682 607 625.5 c 128,-1,48
 561 569 561 569 561 494 c 2,49,-1
 561 467 l 1,50,-1
 895 467 l 1,43,-1
895 365 m 1,51,-1
 561 365 l 1,52,-1
 561 334 l 2,53,54
 561 92 561 92 729 92 c 128,-1,55
 897 92 897 92 895 365 c 1,51,-1
1059 -205 m 1,56,57
 1049 -127 1049 -127 971 -129 c 0,58,59
 934 -129 934 -129 907.5 -153.5 c 128,-1,60
 881 -178 881 -178 881 -213 c 2,61,-1
 881 -236 l 1,62,-1
 786 -236 l 1,63,-1
 786 -203 l 1,64,65
 784 -168 784 -168 741 -145 c 1,66,67
 707 -129 707 -129 670 -129 c 0,68,69
 569 -129 569 -129 569 -184 c 0,70,71
 569 -270 569 -270 795 -270 c 0,72,73
 956 -270 956 -270 1059 -205 c 1,56,57
459 209 m 0,74,75
 459 229 459 229 455 287 c 0,76,77
 451 336 451 336 453 365 c 1,78,-1
 399 365 l 2,79,80
 225 365 225 365 225 231 c 0,81,82
 225 170 225 170 258 127 c 128,-1,83
 291 84 291 84 348 84 c 0,84,85
 399 84 399 84 429 121 c 128,-1,86
 459 158 459 158 459 209 c 0,74,75
EndSplineSet
EndChar

StartChar: k1l1
Encoding: 65556 -1 200
Width: 1341
GlyphClass: 3
Flags: W
LayerCount: 2
Fore
SplineSet
1343 262 m 0,0,1
 1343 152 1343 152 1283 85 c 128,-1,2
 1223 18 1223 18 1110 18 c 0,3,4
 1063 18 1063 18 1026 33 c 1,5,-1
 1026 131 l 1,6,7
 1059 111 1059 111 1094 111 c 0,8,9
 1231 111 1231 111 1231 260 c 0,10,11
 1231 383 1231 383 1069 383 c 2,12,-1
 1008 383 l 1,13,-1
 1008 352 l 2,14,15
 1008 18 1008 18 733 18 c 0,16,17
 565 18 565 18 512 127 c 1,18,19
 475 18 475 18 340 18 c 0,20,21
 236 18 236 18 176 92 c 1,22,23
 125 158 125 158 125 256 c 0,24,25
 125 358 125 358 197.5 420.5 c 128,-1,26
 270 483 270 483 375 483 c 2,27,-1
 453 483 l 1,28,-1
 453 516 l 2,29,30
 453 631 453 631 531.5 708.5 c 128,-1,31
 610 786 610 786 739 786 c 0,32,33
 858 786 858 786 933 707.5 c 128,-1,34
 1008 629 1008 629 1008 516 c 2,35,-1
 1008 483 l 1,36,-1
 1085 483 l 2,37,38
 1194 483 1194 483 1268.5 426 c 128,-1,39
 1343 369 1343 369 1343 262 c 0,0,1
1196 -301 m 0,40,41
 1196 -532 1196 -532 1016 -532 c 0,42,43
 936 -532 936 -532 889 -487 c 128,-1,44
 842 -442 842 -442 842 -365 c 0,45,46
 842 -291 842 -291 886 -240.5 c 128,-1,47
 930 -190 930 -190 1004 -190 c 0,48,49
 1055 -190 1055 -190 1098 -225 c 1,50,51
 1079 -166 1079 -166 1030 -127 c 128,-1,52
 981 -88 981 -88 913 -88 c 0,53,54
 860 -88 860 -88 825.5 -122 c 128,-1,55
 791 -156 791 -156 791 -205 c 2,56,-1
 791 -520 l 1,57,-1
 696 -520 l 1,58,-1
 696 -205 l 2,59,60
 696 -156 696 -156 661.5 -122 c 128,-1,61
 627 -88 627 -88 575 -88 c 0,62,63
 508 -88 508 -88 459 -127 c 128,-1,64
 410 -166 410 -166 391 -225 c 1,65,66
 432 -190 432 -190 487 -190 c 0,67,68
 561 -190 561 -190 605 -241.5 c 128,-1,69
 649 -293 649 -293 649 -367 c 0,70,71
 649 -444 649 -444 603 -488 c 128,-1,72
 557 -532 557 -532 477 -532 c 0,73,74
 293 -532 293 -532 293 -301 c 0,75,76
 293 -182 293 -182 368.5 -91 c 128,-1,77
 444 0 444 0 565 0 c 1,78,79
 686 -2 686 -2 743 -80 c 1,80,81
 801 -2 801 -2 924 0 c 1,82,83
 1044 0 1044 0 1120 -91 c 128,-1,84
 1196 -182 1196 -182 1196 -301 c 0,40,41
895 483 m 1,85,-1
 895 512 l 2,86,87
 895 584 895 584 848 636 c 128,-1,88
 801 688 801 688 727 688 c 128,-1,89
 653 688 653 688 607 635 c 128,-1,90
 561 582 561 582 561 508 c 2,91,-1
 561 483 l 1,92,-1
 895 483 l 1,85,-1
895 356 m 2,93,-1
 895 383 l 1,94,-1
 561 383 l 1,95,-1
 561 356 l 2,96,97
 561 111 561 111 729 111 c 0,98,99
 895 111 895 111 895 356 c 2,93,-1
1104 -366.5 m 128,-1,101
 1104 -334 1104 -334 1077.5 -310.5 c 128,-1,102
 1051 -287 1051 -287 1018 -287 c 0,103,104
 983 -287 983 -287 959.5 -311.5 c 128,-1,105
 936 -336 936 -336 936 -369 c 0,106,107
 936 -446 936 -446 1018 -446 c 0,108,109
 1053 -446 1053 -446 1078.5 -422.5 c 128,-1,100
 1104 -399 1104 -399 1104 -366.5 c 128,-1,101
459 236 m 1,110,-1
 453 354 l 1,111,-1
 453 383 l 1,112,-1
 399 383 l 2,113,114
 225 383 225 383 225 258 c 0,115,116
 225 201 225 201 254 162 c 1,117,118
 287 113 287 113 348 113 c 0,119,120
 397 113 397 113 430 149.5 c 128,-1,121
 463 186 463 186 459 236 c 1,110,-1
557 -369 m 0,122,123
 557 -336 557 -336 532.5 -311.5 c 128,-1,124
 508 -287 508 -287 475 -287 c 0,125,126
 440 -287 440 -287 413.5 -310.5 c 128,-1,127
 387 -334 387 -334 387 -366.5 c 128,-1,128
 387 -399 387 -399 412.5 -422.5 c 128,-1,129
 438 -446 438 -446 475 -446 c 0,130,131
 557 -446 557 -446 557 -369 c 0,122,123
EndSplineSet
Ligature2: "'akhn' Akhand in Malay+AQEA-lam lookup 0 subtable" k1 l1
EndChar

StartChar: k1k1
Encoding: 65557 -1 201
Width: 1681
GlyphClass: 3
Flags: W
LayerCount: 2
Fore
SplineSet
1686 367 m 0,0,1
 1686 86 1686 86 1430 -23 c 1,2,-1
 1374 63 l 1,3,4
 1583 139 1583 139 1583 365 c 0,5,6
 1583 502 1583 502 1507 588 c 0,7,8
 1425 682 1425 682 1280 682 c 0,9,10
 1200 682 1200 682 1124 625 c 0,11,12
 1038 561 1038 561 1038 475 c 2,13,-1
 1038 465 l 1,14,-1
 1112 465 l 1,15,16
 1372 467 1372 467 1372 229 c 0,17,18
 1372 121 1372 121 1311 53 c 0,19,20
 1245 -20 1245 -20 1130 -20 c 0,21,22
 1016 -20 1016 -20 958 111 c 1,23,24
 930 51 930 51 865.5 15.5 c 128,-1,25
 801 -20 801 -20 733 -20 c 0,26,27
 567 -20 567 -20 512 94 c 1,28,29
 477 -20 477 -20 340 -20 c 0,30,31
 238 -20 238 -20 178 55 c 1,32,33
 125 123 125 123 125 229 c 0,34,35
 125 467 125 467 453 467 c 1,36,37
 453 604 453 604 524.5 695 c 128,-1,38
 596 786 596 786 731 786 c 0,39,40
 813 786 813 786 887 750 c 1,41,42
 969 707 969 707 997 637 c 1,43,44
 1081 784 1081 784 1270 784 c 0,45,46
 1464 784 1464 784 1575 668.5 c 128,-1,47
 1686 553 1686 553 1686 367 c 0,0,1
1266 231 m 0,48,49
 1266 365 1266 365 1098 365 c 2,50,-1
 1032 365 l 1,51,52
 1030 362 1030 362 1030 319 c 0,53,54
 1030 307 1030 307 1030 286.5 c 128,-1,55
 1030 266 1030 266 1030 258 c 0,56,57
 1030 193 1030 193 1057 143 c 0,58,59
 1090 84 1090 84 1149 84 c 0,60,61
 1204 84 1204 84 1235 127 c 128,-1,62
 1266 170 1266 170 1266 231 c 0,48,49
913 467 m 1,63,-1
 913 494 l 2,64,65
 913 580 913 580 867 631 c 128,-1,66
 821 682 821 682 735 682 c 0,67,68
 659 682 659 682 610 626.5 c 128,-1,69
 561 571 561 571 561 494 c 2,70,-1
 561 467 l 1,71,-1
 913 467 l 1,63,-1
913 334 m 2,72,-1
 913 365 l 1,73,-1
 561 365 l 1,74,-1
 561 334 l 2,75,76
 561 76 561 76 739 76 c 0,77,78
 913 76 913 76 913 334 c 2,72,-1
459 209 m 0,79,80
 459 231 459 231 455 287 c 0,81,82
 451 336 451 336 453 365 c 1,83,-1
 399 365 l 2,84,85
 225 365 225 365 225 231 c 0,86,87
 225 170 225 170 256 127 c 0,88,89
 291 78 291 78 350 78 c 0,90,91
 399 78 399 78 429 117 c 128,-1,92
 459 156 459 156 459 209 c 0,79,80
EndSplineSet
Ligature2: "'akhn' Akhand in Malay+AQEA-lam lookup 0 subtable" k1 xx k1
EndChar

StartChar: k1k1u1
Encoding: 65558 -1 202
Width: 1714
GlyphClass: 3
Flags: W
LayerCount: 2
Fore
SplineSet
1718 180 m 0,0,1
 1718 88 1718 88 1652.5 35 c 128,-1,2
 1587 -18 1587 -18 1493 -18 c 0,3,4
 1419 -18 1419 -18 1380 -8 c 1,5,-1
 1380 96 l 1,6,7
 1421 70 1421 70 1473 70 c 0,8,9
 1524 70 1524 70 1561.5 101.5 c 128,-1,10
 1599 133 1599 133 1599 184 c 0,11,12
 1599 242 1599 242 1567.5 277.5 c 128,-1,13
 1536 313 1536 313 1481 313 c 2,14,-1
 1401 313 l 1,15,-1
 1401 420 l 1,16,17
 1501 420 1501 420 1528 428 c 0,18,19
 1597 446 1597 446 1597 520 c 0,20,21
 1597 604 1597 604 1501 647 c 1,22,23
 1427 682 1427 682 1333 682 c 0,24,25
 1212 682 1212 682 1135 633 c 1,26,27
 1038 575 1038 575 1038 465 c 1,28,-1
 1116 465 l 1,29,30
 1372 467 1372 467 1372 229 c 0,31,32
 1372 117 1372 117 1306.5 49.5 c 128,-1,33
 1241 -18 1241 -18 1130 -18 c 0,34,35
 1016 -18 1016 -18 958 111 c 1,36,37
 930 51 930 51 866.5 16.5 c 128,-1,38
 803 -18 803 -18 733 -18 c 0,39,40
 567 -18 567 -18 512 94 c 1,41,42
 477 -18 477 -18 340 -18 c 0,43,44
 238 -18 238 -18 181.5 53.5 c 128,-1,45
 125 125 125 125 125 229 c 0,46,47
 125 467 125 467 453 467 c 1,48,49
 453 604 453 604 525.5 695 c 128,-1,50
 598 786 598 786 731 786 c 0,51,52
 815 786 815 786 887 750 c 1,53,54
 969 707 969 707 997 637 c 1,55,56
 1081 786 1081 786 1329 786 c 0,57,58
 1470 786 1470 786 1581 727 c 0,59,60
 1716 655 1716 655 1716 526 c 0,61,62
 1716 395 1716 395 1612 373 c 1,63,64
 1718 340 1718 340 1718 180 c 0,0,1
1266 231 m 0,65,66
 1266 322 1266 322 1188 350 c 1,67,68
 1145 362 1145 362 1032 365 c 1,69,70
 1028 356 1028 356 1028 346 c 0,71,72
 1028 233 1028 233 1042 182 c 0,73,74
 1069 84 1069 84 1149 84 c 0,75,76
 1204 84 1204 84 1237 131 c 0,77,78
 1266 172 1266 172 1266 231 c 0,65,66
913 467 m 1,79,-1
 913 494 l 2,80,81
 913 580 913 580 867 631 c 128,-1,82
 821 682 821 682 735 682 c 0,83,84
 659 682 659 682 610 626.5 c 128,-1,85
 561 571 561 571 561 494 c 2,86,-1
 561 467 l 1,87,-1
 913 467 l 1,79,-1
913 334 m 2,88,-1
 913 365 l 1,89,-1
 561 365 l 1,90,-1
 561 334 l 2,91,92
 561 76 561 76 739 76 c 0,93,94
 913 76 913 76 913 334 c 2,88,-1
459 209 m 0,95,96
 459 231 459 231 455 287 c 0,97,98
 451 336 451 336 453 365 c 1,99,-1
 399 365 l 2,100,101
 225 365 225 365 225 231 c 0,102,103
 225 170 225 170 256 127 c 0,104,105
 291 78 291 78 350 78 c 0,106,107
 399 78 399 78 429 117 c 128,-1,108
 459 156 459 156 459 209 c 0,95,96
EndSplineSet
Ligature2: "'psts' Post Base Substitutions in Malay+AQEA-lam lookup 5 subtable" k1k1 u1
EndChar

StartChar: k1k1u2
Encoding: 65559 -1 203
Width: 1556
GlyphClass: 3
Flags: W
LayerCount: 2
Fore
SplineSet
1559 240 m 0,0,1
 1559 84 1559 84 1460 33 c 0,2,3
 1397 0 1397 0 1247 0 c 2,4,-1
 389 0 l 2,5,6
 336 0 336 0 298 -31.5 c 128,-1,7
 260 -63 260 -63 260 -113 c 0,8,9
 260 -207 260 -207 389 -207 c 2,10,-1
 1536 -207 l 1,11,-1
 1536 -309 l 1,12,-1
 371 -309 l 2,13,14
 274 -309 274 -309 215 -262 c 0,15,16
 147 -209 147 -209 147 -113 c 0,17,18
 147 -18 147 -18 215 41 c 0,19,20
 276 94 276 94 371 94 c 2,21,-1
 1217 94 l 2,22,23
 1335 94 1335 94 1372 111 c 1,24,25
 1444 139 1444 139 1444 244 c 0,26,27
 1444 297 1444 297 1418.5 332 c 128,-1,28
 1393 367 1393 367 1350 367 c 2,29,-1
 1278 367 l 1,30,-1
 1278 467 l 1,31,-1
 1337 467 l 2,32,33
 1438 467 1438 467 1438 557 c 0,34,35
 1438 625 1438 625 1350 662 c 0,36,37
 1284 690 1284 690 1202 690 c 0,38,39
 1106 690 1106 690 1030 647 c 0,40,41
 948 600 948 600 948 526 c 2,42,-1
 948 522 l 1,43,-1
 1012 522 l 2,44,45
 1249 522 1249 522 1249 326 c 0,46,47
 1249 238 1249 238 1185.5 177.5 c 128,-1,48
 1122 117 1122 117 1028 117 c 0,49,50
 930 117 930 117 874 219 c 1,51,52
 815 117 815 117 674 117 c 0,53,54
 535 117 535 117 477 201 c 1,55,56
 438 117 438 117 324 117 c 0,57,58
 231 117 231 117 176 180 c 0,59,60
 125 238 125 238 125 326 c 0,61,62
 125 524 125 524 418 524 c 1,63,64
 420 635 420 635 486.5 709.5 c 128,-1,65
 553 784 553 784 672 784 c 0,66,67
 840 784 840 784 903 666 c 1,68,69
 995 784 995 784 1202 784 c 0,70,71
 1346 784 1346 784 1442 735 c 1,72,73
 1554 674 1554 674 1554 561 c 0,74,75
 1554 442 1554 442 1479 412 c 1,76,77
 1559 371 1559 371 1559 240 c 0,0,1
1143 326 m 0,78,79
 1143 428 1143 428 971 428 c 2,80,-1
 940 428 l 1,81,82
 938 418 938 418 938 387 c 0,83,84
 938 213 938 213 1034 213 c 0,85,86
 1081 213 1081 213 1112 248 c 128,-1,87
 1143 283 1143 283 1143 326 c 0,78,79
827 524 m 1,88,-1
 827 539 l 2,89,90
 827 606 827 606 787.5 649 c 128,-1,91
 748 692 748 692 676 692 c 0,92,93
 612 692 612 692 570 646 c 128,-1,94
 528 600 528 600 528 541 c 2,95,-1
 528 524 l 1,96,-1
 827 524 l 1,88,-1
827 428 m 1,97,-1
 528 428 l 1,98,-1
 528 410 l 2,99,100
 528 207 528 207 680 207 c 0,101,102
 827 207 827 207 827 410 c 2,103,-1
 827 428 l 1,97,-1
424 307 m 0,104,105
 424 328 424 328 420 368 c 128,-1,106
 416 408 416 408 418 428 c 1,107,-1
 377 428 l 2,108,109
 229 428 229 428 229 326 c 0,110,111
 229 279 229 279 256 244 c 128,-1,112
 283 209 283 209 332 209 c 0,113,114
 373 209 373 209 398.5 238.5 c 128,-1,115
 424 268 424 268 424 307 c 0,104,105
EndSplineSet
Ligature2: "'psts' Post Base Substitutions in Malay+AQEA-lam lookup 5 subtable" k1k1 u2
EndChar

